M48
; DRILL file {KiCad 9.0.7+dfsg-1} date 2026-04-22T21:53:53-0700
; FORMAT={-:-/ absolute / inch / decimal}
; #@! TF.CreationDate,2026-04-22T21:53:53-07:00
; #@! TF.GenerationSoftware,Kicad,Pcbnew,9.0.7+dfsg-1
; #@! TF.FileFunction,Plated,1,2,PTH
FMAT,2
INCH
; #@! TA.AperFunction,Plated,PTH,ViaDrill
T1C0.0118
%
G90
G05
T1
X6.811Y-3.3858
X6.8268Y-2.5079
X6.8543Y-3.0866
X6.9906Y-2.8111
X7.0435Y-2.5
X7.0984Y-2.8406
X7.1621Y-3.0551
X7.1661Y-2.5079
X7.2441Y-3.2087
X7.2441Y-3.2992
X7.2441Y-3.3937
X7.3708Y-2.9921
X7.422Y-2.7362
X7.4259Y-2.5472
X7.4259Y-2.689
X7.4259Y-2.7795
X7.4298Y-2.9213
X7.4331Y-3.1969
X7.4417Y-2.5079
X7.5401Y-2.9606
X7.5433Y-3.4016
X7.544Y-2.5472
X7.544Y-2.7795
X7.548Y-2.7362
X7.5499Y-2.6909
X7.685Y-3.1772
X7.7205Y-3.2992
X7.8078Y-3.0512
X7.8117Y-2.5157
X7.874Y-2.5
X7.8976Y-3.1614
X7.9094Y-2.6281
X7.9921Y-2.6871
X8.0197Y-3.1063
X8.122Y-2.5079
M30
