%TF.GenerationSoftware,KiCad,Pcbnew,9.0.7+dfsg-1*%
%TF.CreationDate,2026-04-22T21:53:53-07:00*%
%TF.ProjectId,ffc_adapter,6666635f-6164-4617-9074-65722e6b6963,rev?*%
%TF.SameCoordinates,Original*%
%TF.FileFunction,Legend,Bot*%
%TF.FilePolarity,Positive*%
%FSLAX46Y46*%
G04 Gerber Fmt 4.6, Leading zero omitted, Abs format (unit mm)*
G04 Created by KiCad (PCBNEW 9.0.7+dfsg-1) date 2026-04-22 21:53:53*
%MOMM*%
%LPD*%
G01*
G04 APERTURE LIST*
%ADD10C,0.100000*%
%ADD11C,0.010000*%
%ADD12C,0.000000*%
G04 APERTURE END LIST*
D10*
X206898496Y-62506788D02*
X207065163Y-62506788D01*
X207065163Y-62768693D02*
X207065163Y-62268693D01*
X207065163Y-62268693D02*
X206827068Y-62268693D01*
X206469925Y-62506788D02*
X206636592Y-62506788D01*
X206636592Y-62768693D02*
X206636592Y-62268693D01*
X206636592Y-62268693D02*
X206398497Y-62268693D01*
X205922307Y-62721074D02*
X205946116Y-62744884D01*
X205946116Y-62744884D02*
X206017545Y-62768693D01*
X206017545Y-62768693D02*
X206065164Y-62768693D01*
X206065164Y-62768693D02*
X206136592Y-62744884D01*
X206136592Y-62744884D02*
X206184211Y-62697264D01*
X206184211Y-62697264D02*
X206208021Y-62649645D01*
X206208021Y-62649645D02*
X206231830Y-62554407D01*
X206231830Y-62554407D02*
X206231830Y-62482979D01*
X206231830Y-62482979D02*
X206208021Y-62387741D01*
X206208021Y-62387741D02*
X206184211Y-62340122D01*
X206184211Y-62340122D02*
X206136592Y-62292503D01*
X206136592Y-62292503D02*
X206065164Y-62268693D01*
X206065164Y-62268693D02*
X206017545Y-62268693D01*
X206017545Y-62268693D02*
X205946116Y-62292503D01*
X205946116Y-62292503D02*
X205922307Y-62316312D01*
X205112783Y-62768693D02*
X205112783Y-62506788D01*
X205112783Y-62506788D02*
X205136593Y-62459169D01*
X205136593Y-62459169D02*
X205184212Y-62435360D01*
X205184212Y-62435360D02*
X205279450Y-62435360D01*
X205279450Y-62435360D02*
X205327069Y-62459169D01*
X205112783Y-62744884D02*
X205160402Y-62768693D01*
X205160402Y-62768693D02*
X205279450Y-62768693D01*
X205279450Y-62768693D02*
X205327069Y-62744884D01*
X205327069Y-62744884D02*
X205350878Y-62697264D01*
X205350878Y-62697264D02*
X205350878Y-62649645D01*
X205350878Y-62649645D02*
X205327069Y-62602026D01*
X205327069Y-62602026D02*
X205279450Y-62578217D01*
X205279450Y-62578217D02*
X205160402Y-62578217D01*
X205160402Y-62578217D02*
X205112783Y-62554407D01*
X204660402Y-62768693D02*
X204660402Y-62268693D01*
X204660402Y-62744884D02*
X204708021Y-62768693D01*
X204708021Y-62768693D02*
X204803259Y-62768693D01*
X204803259Y-62768693D02*
X204850878Y-62744884D01*
X204850878Y-62744884D02*
X204874688Y-62721074D01*
X204874688Y-62721074D02*
X204898497Y-62673455D01*
X204898497Y-62673455D02*
X204898497Y-62530598D01*
X204898497Y-62530598D02*
X204874688Y-62482979D01*
X204874688Y-62482979D02*
X204850878Y-62459169D01*
X204850878Y-62459169D02*
X204803259Y-62435360D01*
X204803259Y-62435360D02*
X204708021Y-62435360D01*
X204708021Y-62435360D02*
X204660402Y-62459169D01*
X204208021Y-62768693D02*
X204208021Y-62506788D01*
X204208021Y-62506788D02*
X204231831Y-62459169D01*
X204231831Y-62459169D02*
X204279450Y-62435360D01*
X204279450Y-62435360D02*
X204374688Y-62435360D01*
X204374688Y-62435360D02*
X204422307Y-62459169D01*
X204208021Y-62744884D02*
X204255640Y-62768693D01*
X204255640Y-62768693D02*
X204374688Y-62768693D01*
X204374688Y-62768693D02*
X204422307Y-62744884D01*
X204422307Y-62744884D02*
X204446116Y-62697264D01*
X204446116Y-62697264D02*
X204446116Y-62649645D01*
X204446116Y-62649645D02*
X204422307Y-62602026D01*
X204422307Y-62602026D02*
X204374688Y-62578217D01*
X204374688Y-62578217D02*
X204255640Y-62578217D01*
X204255640Y-62578217D02*
X204208021Y-62554407D01*
X203969926Y-62435360D02*
X203969926Y-62935360D01*
X203969926Y-62459169D02*
X203922307Y-62435360D01*
X203922307Y-62435360D02*
X203827069Y-62435360D01*
X203827069Y-62435360D02*
X203779450Y-62459169D01*
X203779450Y-62459169D02*
X203755640Y-62482979D01*
X203755640Y-62482979D02*
X203731831Y-62530598D01*
X203731831Y-62530598D02*
X203731831Y-62673455D01*
X203731831Y-62673455D02*
X203755640Y-62721074D01*
X203755640Y-62721074D02*
X203779450Y-62744884D01*
X203779450Y-62744884D02*
X203827069Y-62768693D01*
X203827069Y-62768693D02*
X203922307Y-62768693D01*
X203922307Y-62768693D02*
X203969926Y-62744884D01*
X203588973Y-62435360D02*
X203398497Y-62435360D01*
X203517545Y-62268693D02*
X203517545Y-62697264D01*
X203517545Y-62697264D02*
X203493735Y-62744884D01*
X203493735Y-62744884D02*
X203446116Y-62768693D01*
X203446116Y-62768693D02*
X203398497Y-62768693D01*
X203041355Y-62744884D02*
X203088974Y-62768693D01*
X203088974Y-62768693D02*
X203184212Y-62768693D01*
X203184212Y-62768693D02*
X203231831Y-62744884D01*
X203231831Y-62744884D02*
X203255640Y-62697264D01*
X203255640Y-62697264D02*
X203255640Y-62506788D01*
X203255640Y-62506788D02*
X203231831Y-62459169D01*
X203231831Y-62459169D02*
X203184212Y-62435360D01*
X203184212Y-62435360D02*
X203088974Y-62435360D01*
X203088974Y-62435360D02*
X203041355Y-62459169D01*
X203041355Y-62459169D02*
X203017545Y-62506788D01*
X203017545Y-62506788D02*
X203017545Y-62554407D01*
X203017545Y-62554407D02*
X203255640Y-62602026D01*
X202803260Y-62768693D02*
X202803260Y-62435360D01*
X202803260Y-62530598D02*
X202779450Y-62482979D01*
X202779450Y-62482979D02*
X202755641Y-62459169D01*
X202755641Y-62459169D02*
X202708022Y-62435360D01*
X202708022Y-62435360D02*
X202660403Y-62435360D01*
X202112784Y-62768693D02*
X202112784Y-62268693D01*
X202112784Y-62459169D02*
X202065165Y-62435360D01*
X202065165Y-62435360D02*
X201969927Y-62435360D01*
X201969927Y-62435360D02*
X201922308Y-62459169D01*
X201922308Y-62459169D02*
X201898498Y-62482979D01*
X201898498Y-62482979D02*
X201874689Y-62530598D01*
X201874689Y-62530598D02*
X201874689Y-62673455D01*
X201874689Y-62673455D02*
X201898498Y-62721074D01*
X201898498Y-62721074D02*
X201922308Y-62744884D01*
X201922308Y-62744884D02*
X201969927Y-62768693D01*
X201969927Y-62768693D02*
X202065165Y-62768693D01*
X202065165Y-62768693D02*
X202112784Y-62744884D01*
X201588974Y-62768693D02*
X201636593Y-62744884D01*
X201636593Y-62744884D02*
X201660403Y-62721074D01*
X201660403Y-62721074D02*
X201684212Y-62673455D01*
X201684212Y-62673455D02*
X201684212Y-62530598D01*
X201684212Y-62530598D02*
X201660403Y-62482979D01*
X201660403Y-62482979D02*
X201636593Y-62459169D01*
X201636593Y-62459169D02*
X201588974Y-62435360D01*
X201588974Y-62435360D02*
X201517546Y-62435360D01*
X201517546Y-62435360D02*
X201469927Y-62459169D01*
X201469927Y-62459169D02*
X201446117Y-62482979D01*
X201446117Y-62482979D02*
X201422308Y-62530598D01*
X201422308Y-62530598D02*
X201422308Y-62673455D01*
X201422308Y-62673455D02*
X201446117Y-62721074D01*
X201446117Y-62721074D02*
X201469927Y-62744884D01*
X201469927Y-62744884D02*
X201517546Y-62768693D01*
X201517546Y-62768693D02*
X201588974Y-62768693D01*
X200993736Y-62768693D02*
X200993736Y-62506788D01*
X200993736Y-62506788D02*
X201017546Y-62459169D01*
X201017546Y-62459169D02*
X201065165Y-62435360D01*
X201065165Y-62435360D02*
X201160403Y-62435360D01*
X201160403Y-62435360D02*
X201208022Y-62459169D01*
X200993736Y-62744884D02*
X201041355Y-62768693D01*
X201041355Y-62768693D02*
X201160403Y-62768693D01*
X201160403Y-62768693D02*
X201208022Y-62744884D01*
X201208022Y-62744884D02*
X201231831Y-62697264D01*
X201231831Y-62697264D02*
X201231831Y-62649645D01*
X201231831Y-62649645D02*
X201208022Y-62602026D01*
X201208022Y-62602026D02*
X201160403Y-62578217D01*
X201160403Y-62578217D02*
X201041355Y-62578217D01*
X201041355Y-62578217D02*
X200993736Y-62554407D01*
X200755641Y-62768693D02*
X200755641Y-62435360D01*
X200755641Y-62530598D02*
X200731831Y-62482979D01*
X200731831Y-62482979D02*
X200708022Y-62459169D01*
X200708022Y-62459169D02*
X200660403Y-62435360D01*
X200660403Y-62435360D02*
X200612784Y-62435360D01*
X200231831Y-62768693D02*
X200231831Y-62268693D01*
X200231831Y-62744884D02*
X200279450Y-62768693D01*
X200279450Y-62768693D02*
X200374688Y-62768693D01*
X200374688Y-62768693D02*
X200422307Y-62744884D01*
X200422307Y-62744884D02*
X200446117Y-62721074D01*
X200446117Y-62721074D02*
X200469926Y-62673455D01*
X200469926Y-62673455D02*
X200469926Y-62530598D01*
X200469926Y-62530598D02*
X200446117Y-62482979D01*
X200446117Y-62482979D02*
X200422307Y-62459169D01*
X200422307Y-62459169D02*
X200374688Y-62435360D01*
X200374688Y-62435360D02*
X200279450Y-62435360D01*
X200279450Y-62435360D02*
X200231831Y-62459169D01*
X207112782Y-63240332D02*
X206993734Y-63573665D01*
X206993734Y-63573665D02*
X206874687Y-63240332D01*
X206422306Y-63573665D02*
X206708020Y-63573665D01*
X206565163Y-63573665D02*
X206565163Y-63073665D01*
X206565163Y-63073665D02*
X206612782Y-63145094D01*
X206612782Y-63145094D02*
X206660401Y-63192713D01*
X206660401Y-63192713D02*
X206708020Y-63216522D01*
X205827069Y-63573665D02*
X205827069Y-63240332D01*
X205827069Y-63335570D02*
X205803259Y-63287951D01*
X205803259Y-63287951D02*
X205779450Y-63264141D01*
X205779450Y-63264141D02*
X205731831Y-63240332D01*
X205731831Y-63240332D02*
X205684212Y-63240332D01*
X205327069Y-63549856D02*
X205374688Y-63573665D01*
X205374688Y-63573665D02*
X205469926Y-63573665D01*
X205469926Y-63573665D02*
X205517545Y-63549856D01*
X205517545Y-63549856D02*
X205541354Y-63502236D01*
X205541354Y-63502236D02*
X205541354Y-63311760D01*
X205541354Y-63311760D02*
X205517545Y-63264141D01*
X205517545Y-63264141D02*
X205469926Y-63240332D01*
X205469926Y-63240332D02*
X205374688Y-63240332D01*
X205374688Y-63240332D02*
X205327069Y-63264141D01*
X205327069Y-63264141D02*
X205303259Y-63311760D01*
X205303259Y-63311760D02*
X205303259Y-63359379D01*
X205303259Y-63359379D02*
X205541354Y-63406998D01*
X205136593Y-63240332D02*
X205017545Y-63573665D01*
X205017545Y-63573665D02*
X204898498Y-63240332D01*
X204731831Y-63121284D02*
X204708022Y-63097475D01*
X204708022Y-63097475D02*
X204660403Y-63073665D01*
X204660403Y-63073665D02*
X204541355Y-63073665D01*
X204541355Y-63073665D02*
X204493736Y-63097475D01*
X204493736Y-63097475D02*
X204469927Y-63121284D01*
X204469927Y-63121284D02*
X204446117Y-63168903D01*
X204446117Y-63168903D02*
X204446117Y-63216522D01*
X204446117Y-63216522D02*
X204469927Y-63287951D01*
X204469927Y-63287951D02*
X204755641Y-63573665D01*
X204755641Y-63573665D02*
X204446117Y-63573665D01*
X207088972Y-64235780D02*
X206850877Y-64235780D01*
X207136591Y-64378637D02*
X206969925Y-63878637D01*
X206969925Y-63878637D02*
X206803258Y-64378637D01*
X206636592Y-64378637D02*
X206636592Y-63878637D01*
X206588973Y-64188161D02*
X206446116Y-64378637D01*
X206446116Y-64045304D02*
X206636592Y-64235780D01*
X206231830Y-64378637D02*
X206231830Y-64045304D01*
X206231830Y-63878637D02*
X206255639Y-63902447D01*
X206255639Y-63902447D02*
X206231830Y-63926256D01*
X206231830Y-63926256D02*
X206208020Y-63902447D01*
X206208020Y-63902447D02*
X206231830Y-63878637D01*
X206231830Y-63878637D02*
X206231830Y-63926256D01*
X205803259Y-64354828D02*
X205850878Y-64378637D01*
X205850878Y-64378637D02*
X205946116Y-64378637D01*
X205946116Y-64378637D02*
X205993735Y-64354828D01*
X205993735Y-64354828D02*
X206017544Y-64307208D01*
X206017544Y-64307208D02*
X206017544Y-64116732D01*
X206017544Y-64116732D02*
X205993735Y-64069113D01*
X205993735Y-64069113D02*
X205946116Y-64045304D01*
X205946116Y-64045304D02*
X205850878Y-64045304D01*
X205850878Y-64045304D02*
X205803259Y-64069113D01*
X205803259Y-64069113D02*
X205779449Y-64116732D01*
X205779449Y-64116732D02*
X205779449Y-64164351D01*
X205779449Y-64164351D02*
X206017544Y-64211970D01*
X205493735Y-64378637D02*
X205541354Y-64354828D01*
X205541354Y-64354828D02*
X205565164Y-64307208D01*
X205565164Y-64307208D02*
X205565164Y-63878637D01*
X204946116Y-64235780D02*
X204708021Y-64235780D01*
X204993735Y-64378637D02*
X204827069Y-63878637D01*
X204827069Y-63878637D02*
X204660402Y-64378637D01*
X204493736Y-64378637D02*
X204493736Y-64045304D01*
X204493736Y-64140542D02*
X204469926Y-64092923D01*
X204469926Y-64092923D02*
X204446117Y-64069113D01*
X204446117Y-64069113D02*
X204398498Y-64045304D01*
X204398498Y-64045304D02*
X204350879Y-64045304D01*
X204184212Y-64378637D02*
X204184212Y-64045304D01*
X204184212Y-63878637D02*
X204208021Y-63902447D01*
X204208021Y-63902447D02*
X204184212Y-63926256D01*
X204184212Y-63926256D02*
X204160402Y-63902447D01*
X204160402Y-63902447D02*
X204184212Y-63878637D01*
X204184212Y-63878637D02*
X204184212Y-63926256D01*
X203755641Y-64354828D02*
X203803260Y-64378637D01*
X203803260Y-64378637D02*
X203898498Y-64378637D01*
X203898498Y-64378637D02*
X203946117Y-64354828D01*
X203946117Y-64354828D02*
X203969926Y-64307208D01*
X203969926Y-64307208D02*
X203969926Y-64116732D01*
X203969926Y-64116732D02*
X203946117Y-64069113D01*
X203946117Y-64069113D02*
X203898498Y-64045304D01*
X203898498Y-64045304D02*
X203803260Y-64045304D01*
X203803260Y-64045304D02*
X203755641Y-64069113D01*
X203755641Y-64069113D02*
X203731831Y-64116732D01*
X203731831Y-64116732D02*
X203731831Y-64164351D01*
X203731831Y-64164351D02*
X203969926Y-64211970D01*
X203541355Y-64354828D02*
X203493736Y-64378637D01*
X203493736Y-64378637D02*
X203398498Y-64378637D01*
X203398498Y-64378637D02*
X203350879Y-64354828D01*
X203350879Y-64354828D02*
X203327070Y-64307208D01*
X203327070Y-64307208D02*
X203327070Y-64283399D01*
X203327070Y-64283399D02*
X203350879Y-64235780D01*
X203350879Y-64235780D02*
X203398498Y-64211970D01*
X203398498Y-64211970D02*
X203469927Y-64211970D01*
X203469927Y-64211970D02*
X203517546Y-64188161D01*
X203517546Y-64188161D02*
X203541355Y-64140542D01*
X203541355Y-64140542D02*
X203541355Y-64116732D01*
X203541355Y-64116732D02*
X203517546Y-64069113D01*
X203517546Y-64069113D02*
X203469927Y-64045304D01*
X203469927Y-64045304D02*
X203398498Y-64045304D01*
X203398498Y-64045304D02*
X203350879Y-64069113D01*
X206969925Y-64683609D02*
X206922306Y-64683609D01*
X206922306Y-64683609D02*
X206874687Y-64707419D01*
X206874687Y-64707419D02*
X206850877Y-64731228D01*
X206850877Y-64731228D02*
X206827068Y-64778847D01*
X206827068Y-64778847D02*
X206803258Y-64874085D01*
X206803258Y-64874085D02*
X206803258Y-64993133D01*
X206803258Y-64993133D02*
X206827068Y-65088371D01*
X206827068Y-65088371D02*
X206850877Y-65135990D01*
X206850877Y-65135990D02*
X206874687Y-65159800D01*
X206874687Y-65159800D02*
X206922306Y-65183609D01*
X206922306Y-65183609D02*
X206969925Y-65183609D01*
X206969925Y-65183609D02*
X207017544Y-65159800D01*
X207017544Y-65159800D02*
X207041353Y-65135990D01*
X207041353Y-65135990D02*
X207065163Y-65088371D01*
X207065163Y-65088371D02*
X207088972Y-64993133D01*
X207088972Y-64993133D02*
X207088972Y-64874085D01*
X207088972Y-64874085D02*
X207065163Y-64778847D01*
X207065163Y-64778847D02*
X207041353Y-64731228D01*
X207041353Y-64731228D02*
X207017544Y-64707419D01*
X207017544Y-64707419D02*
X206969925Y-64683609D01*
X206374687Y-64850276D02*
X206374687Y-65183609D01*
X206493735Y-64659800D02*
X206612782Y-65016942D01*
X206612782Y-65016942D02*
X206303259Y-65016942D01*
X205755640Y-64659800D02*
X206184211Y-65302657D01*
X205612782Y-64731228D02*
X205588973Y-64707419D01*
X205588973Y-64707419D02*
X205541354Y-64683609D01*
X205541354Y-64683609D02*
X205422306Y-64683609D01*
X205422306Y-64683609D02*
X205374687Y-64707419D01*
X205374687Y-64707419D02*
X205350878Y-64731228D01*
X205350878Y-64731228D02*
X205327068Y-64778847D01*
X205327068Y-64778847D02*
X205327068Y-64826466D01*
X205327068Y-64826466D02*
X205350878Y-64897895D01*
X205350878Y-64897895D02*
X205636592Y-65183609D01*
X205636592Y-65183609D02*
X205327068Y-65183609D01*
X205017545Y-64683609D02*
X204969926Y-64683609D01*
X204969926Y-64683609D02*
X204922307Y-64707419D01*
X204922307Y-64707419D02*
X204898497Y-64731228D01*
X204898497Y-64731228D02*
X204874688Y-64778847D01*
X204874688Y-64778847D02*
X204850878Y-64874085D01*
X204850878Y-64874085D02*
X204850878Y-64993133D01*
X204850878Y-64993133D02*
X204874688Y-65088371D01*
X204874688Y-65088371D02*
X204898497Y-65135990D01*
X204898497Y-65135990D02*
X204922307Y-65159800D01*
X204922307Y-65159800D02*
X204969926Y-65183609D01*
X204969926Y-65183609D02*
X205017545Y-65183609D01*
X205017545Y-65183609D02*
X205065164Y-65159800D01*
X205065164Y-65159800D02*
X205088973Y-65135990D01*
X205088973Y-65135990D02*
X205112783Y-65088371D01*
X205112783Y-65088371D02*
X205136592Y-64993133D01*
X205136592Y-64993133D02*
X205136592Y-64874085D01*
X205136592Y-64874085D02*
X205112783Y-64778847D01*
X205112783Y-64778847D02*
X205088973Y-64731228D01*
X205088973Y-64731228D02*
X205065164Y-64707419D01*
X205065164Y-64707419D02*
X205017545Y-64683609D01*
X204660402Y-64731228D02*
X204636593Y-64707419D01*
X204636593Y-64707419D02*
X204588974Y-64683609D01*
X204588974Y-64683609D02*
X204469926Y-64683609D01*
X204469926Y-64683609D02*
X204422307Y-64707419D01*
X204422307Y-64707419D02*
X204398498Y-64731228D01*
X204398498Y-64731228D02*
X204374688Y-64778847D01*
X204374688Y-64778847D02*
X204374688Y-64826466D01*
X204374688Y-64826466D02*
X204398498Y-64897895D01*
X204398498Y-64897895D02*
X204684212Y-65183609D01*
X204684212Y-65183609D02*
X204374688Y-65183609D01*
X203946117Y-64683609D02*
X204041355Y-64683609D01*
X204041355Y-64683609D02*
X204088974Y-64707419D01*
X204088974Y-64707419D02*
X204112784Y-64731228D01*
X204112784Y-64731228D02*
X204160403Y-64802657D01*
X204160403Y-64802657D02*
X204184212Y-64897895D01*
X204184212Y-64897895D02*
X204184212Y-65088371D01*
X204184212Y-65088371D02*
X204160403Y-65135990D01*
X204160403Y-65135990D02*
X204136593Y-65159800D01*
X204136593Y-65159800D02*
X204088974Y-65183609D01*
X204088974Y-65183609D02*
X203993736Y-65183609D01*
X203993736Y-65183609D02*
X203946117Y-65159800D01*
X203946117Y-65159800D02*
X203922308Y-65135990D01*
X203922308Y-65135990D02*
X203898498Y-65088371D01*
X203898498Y-65088371D02*
X203898498Y-64969323D01*
X203898498Y-64969323D02*
X203922308Y-64921704D01*
X203922308Y-64921704D02*
X203946117Y-64897895D01*
X203946117Y-64897895D02*
X203993736Y-64874085D01*
X203993736Y-64874085D02*
X204088974Y-64874085D01*
X204088974Y-64874085D02*
X204136593Y-64897895D01*
X204136593Y-64897895D02*
X204160403Y-64921704D01*
X204160403Y-64921704D02*
X204184212Y-64969323D01*
D11*
%TO.C,REF\u002A\u002A*%
X180882829Y-74351097D02*
X180942753Y-74373355D01*
X180967673Y-74390080D01*
X180992910Y-74414043D01*
X181010912Y-74444526D01*
X181022858Y-74486023D01*
X181029930Y-74543032D01*
X181033308Y-74620047D01*
X181034171Y-74721565D01*
X181034002Y-74774027D01*
X181033153Y-74845715D01*
X181031711Y-74902925D01*
X181029814Y-74940809D01*
X181027597Y-74954514D01*
X181013172Y-74949981D01*
X180984054Y-74937670D01*
X180983181Y-74937272D01*
X180968060Y-74929356D01*
X180957891Y-74918495D01*
X180951691Y-74899471D01*
X180948478Y-74867069D01*
X180947270Y-74816071D01*
X180947086Y-74741261D01*
X180946714Y-74693804D01*
X180942750Y-74604615D01*
X180933673Y-74539287D01*
X180918524Y-74494393D01*
X180896345Y-74466507D01*
X180866175Y-74452203D01*
X180861990Y-74451206D01*
X180805480Y-74450427D01*
X180761410Y-74475744D01*
X180730972Y-74526502D01*
X180725544Y-74541175D01*
X180713171Y-74573649D01*
X180706905Y-74588572D01*
X180694036Y-74586516D01*
X180665933Y-74575357D01*
X180639721Y-74556927D01*
X180627771Y-74522098D01*
X180631336Y-74497151D01*
X180653235Y-74446547D01*
X180688644Y-74399128D01*
X180730052Y-74366334D01*
X180747400Y-74358752D01*
X180813089Y-74346076D01*
X180882829Y-74351097D01*
G36*
X180882829Y-74351097D02*
G01*
X180942753Y-74373355D01*
X180967673Y-74390080D01*
X180992910Y-74414043D01*
X181010912Y-74444526D01*
X181022858Y-74486023D01*
X181029930Y-74543032D01*
X181033308Y-74620047D01*
X181034171Y-74721565D01*
X181034002Y-74774027D01*
X181033153Y-74845715D01*
X181031711Y-74902925D01*
X181029814Y-74940809D01*
X181027597Y-74954514D01*
X181013172Y-74949981D01*
X180984054Y-74937670D01*
X180983181Y-74937272D01*
X180968060Y-74929356D01*
X180957891Y-74918495D01*
X180951691Y-74899471D01*
X180948478Y-74867069D01*
X180947270Y-74816071D01*
X180947086Y-74741261D01*
X180946714Y-74693804D01*
X180942750Y-74604615D01*
X180933673Y-74539287D01*
X180918524Y-74494393D01*
X180896345Y-74466507D01*
X180866175Y-74452203D01*
X180861990Y-74451206D01*
X180805480Y-74450427D01*
X180761410Y-74475744D01*
X180730972Y-74526502D01*
X180725544Y-74541175D01*
X180713171Y-74573649D01*
X180706905Y-74588572D01*
X180694036Y-74586516D01*
X180665933Y-74575357D01*
X180639721Y-74556927D01*
X180627771Y-74522098D01*
X180631336Y-74497151D01*
X180653235Y-74446547D01*
X180688644Y-74399128D01*
X180730052Y-74366334D01*
X180747400Y-74358752D01*
X180813089Y-74346076D01*
X180882829Y-74351097D01*
G37*
X184831020Y-74317822D02*
X184898810Y-74349680D01*
X184954366Y-74404770D01*
X184965881Y-74422016D01*
X184975432Y-74441562D01*
X184982206Y-74466198D01*
X184986819Y-74500711D01*
X184989888Y-74549889D01*
X184992029Y-74618519D01*
X184993859Y-74711389D01*
X184998404Y-74969007D01*
X184960225Y-74954491D01*
X184925268Y-74941156D01*
X184899097Y-74928323D01*
X184882013Y-74911780D01*
X184872086Y-74886465D01*
X184867386Y-74847316D01*
X184865982Y-74789268D01*
X184865943Y-74707261D01*
X184865744Y-74641895D01*
X184864559Y-74579173D01*
X184861729Y-74536334D01*
X184856609Y-74508220D01*
X184848553Y-74489675D01*
X184836914Y-74475543D01*
X184808303Y-74455600D01*
X184760239Y-74448083D01*
X184712688Y-74467079D01*
X184709550Y-74469511D01*
X184699769Y-74480748D01*
X184692553Y-74498770D01*
X184687299Y-74528026D01*
X184683402Y-74572962D01*
X184680256Y-74638028D01*
X184677257Y-74727670D01*
X184670000Y-74967697D01*
X184608314Y-74940044D01*
X184546629Y-74912391D01*
X184546629Y-74693246D01*
X184546884Y-74633711D01*
X184549086Y-74550892D01*
X184554661Y-74489227D01*
X184564941Y-74443748D01*
X184581258Y-74409484D01*
X184604943Y-74381466D01*
X184637328Y-74354723D01*
X184683907Y-74327780D01*
X184757287Y-74310191D01*
X184831020Y-74317822D01*
G36*
X184831020Y-74317822D02*
G01*
X184898810Y-74349680D01*
X184954366Y-74404770D01*
X184965881Y-74422016D01*
X184975432Y-74441562D01*
X184982206Y-74466198D01*
X184986819Y-74500711D01*
X184989888Y-74549889D01*
X184992029Y-74618519D01*
X184993859Y-74711389D01*
X184998404Y-74969007D01*
X184960225Y-74954491D01*
X184925268Y-74941156D01*
X184899097Y-74928323D01*
X184882013Y-74911780D01*
X184872086Y-74886465D01*
X184867386Y-74847316D01*
X184865982Y-74789268D01*
X184865943Y-74707261D01*
X184865744Y-74641895D01*
X184864559Y-74579173D01*
X184861729Y-74536334D01*
X184856609Y-74508220D01*
X184848553Y-74489675D01*
X184836914Y-74475543D01*
X184808303Y-74455600D01*
X184760239Y-74448083D01*
X184712688Y-74467079D01*
X184709550Y-74469511D01*
X184699769Y-74480748D01*
X184692553Y-74498770D01*
X184687299Y-74528026D01*
X184683402Y-74572962D01*
X184680256Y-74638028D01*
X184677257Y-74727670D01*
X184670000Y-74967697D01*
X184608314Y-74940044D01*
X184546629Y-74912391D01*
X184546629Y-74693246D01*
X184546884Y-74633711D01*
X184549086Y-74550892D01*
X184554661Y-74489227D01*
X184564941Y-74443748D01*
X184581258Y-74409484D01*
X184604943Y-74381466D01*
X184637328Y-74354723D01*
X184683907Y-74327780D01*
X184757287Y-74310191D01*
X184831020Y-74317822D01*
G37*
X183007691Y-74366467D02*
X183012273Y-74369003D01*
X183049704Y-74398057D01*
X183083170Y-74435410D01*
X183089007Y-74443852D01*
X183100165Y-74463553D01*
X183108136Y-74486935D01*
X183113618Y-74519067D01*
X183117307Y-74565019D01*
X183119899Y-74629859D01*
X183122092Y-74718657D01*
X183122402Y-74733669D01*
X183123400Y-74830999D01*
X183121994Y-74899934D01*
X183118164Y-74940948D01*
X183111889Y-74954514D01*
X183092898Y-74950452D01*
X183060638Y-74938144D01*
X183053041Y-74934545D01*
X183041176Y-74926398D01*
X183032994Y-74913004D01*
X183027643Y-74889608D01*
X183024269Y-74851455D01*
X183022019Y-74793790D01*
X183020040Y-74711857D01*
X183019498Y-74687907D01*
X183017403Y-74612266D01*
X183014683Y-74559328D01*
X183010515Y-74524075D01*
X183004079Y-74501487D01*
X182994550Y-74486544D01*
X182981106Y-74474227D01*
X182941305Y-74452634D01*
X182892341Y-74448476D01*
X182848529Y-74464999D01*
X182817008Y-74499210D01*
X182804914Y-74548114D01*
X182804578Y-74561407D01*
X182797972Y-74585472D01*
X182778470Y-74589144D01*
X182740283Y-74574813D01*
X182731438Y-74570217D01*
X182707534Y-74543186D01*
X182707061Y-74502994D01*
X182729836Y-74447409D01*
X182750727Y-74417117D01*
X182804142Y-74374084D01*
X182870074Y-74349755D01*
X182940574Y-74346443D01*
X183007691Y-74366467D01*
G36*
X183007691Y-74366467D02*
G01*
X183012273Y-74369003D01*
X183049704Y-74398057D01*
X183083170Y-74435410D01*
X183089007Y-74443852D01*
X183100165Y-74463553D01*
X183108136Y-74486935D01*
X183113618Y-74519067D01*
X183117307Y-74565019D01*
X183119899Y-74629859D01*
X183122092Y-74718657D01*
X183122402Y-74733669D01*
X183123400Y-74830999D01*
X183121994Y-74899934D01*
X183118164Y-74940948D01*
X183111889Y-74954514D01*
X183092898Y-74950452D01*
X183060638Y-74938144D01*
X183053041Y-74934545D01*
X183041176Y-74926398D01*
X183032994Y-74913004D01*
X183027643Y-74889608D01*
X183024269Y-74851455D01*
X183022019Y-74793790D01*
X183020040Y-74711857D01*
X183019498Y-74687907D01*
X183017403Y-74612266D01*
X183014683Y-74559328D01*
X183010515Y-74524075D01*
X183004079Y-74501487D01*
X182994550Y-74486544D01*
X182981106Y-74474227D01*
X182941305Y-74452634D01*
X182892341Y-74448476D01*
X182848529Y-74464999D01*
X182817008Y-74499210D01*
X182804914Y-74548114D01*
X182804578Y-74561407D01*
X182797972Y-74585472D01*
X182778470Y-74589144D01*
X182740283Y-74574813D01*
X182731438Y-74570217D01*
X182707534Y-74543186D01*
X182707061Y-74502994D01*
X182729836Y-74447409D01*
X182750727Y-74417117D01*
X182804142Y-74374084D01*
X182870074Y-74349755D01*
X182940574Y-74346443D01*
X183007691Y-74366467D01*
G37*
X182053941Y-74349282D02*
X182085774Y-74361758D01*
X182122743Y-74378602D01*
X182122743Y-74865196D01*
X182076812Y-74911127D01*
X182066320Y-74921427D01*
X182037255Y-74944320D01*
X182007943Y-74951735D01*
X181964326Y-74948321D01*
X181946568Y-74946114D01*
X181900767Y-74941445D01*
X181868743Y-74939585D01*
X181859244Y-74939869D01*
X181820274Y-74942948D01*
X181773160Y-74948321D01*
X181758085Y-74950168D01*
X181720110Y-74950893D01*
X181692325Y-74939429D01*
X181660674Y-74911127D01*
X181614743Y-74865196D01*
X181614743Y-74605055D01*
X181615101Y-74528180D01*
X181616216Y-74454886D01*
X181617952Y-74396850D01*
X181620167Y-74358663D01*
X181622721Y-74344914D01*
X181623256Y-74344951D01*
X181641808Y-74351793D01*
X181673153Y-74366868D01*
X181715608Y-74388822D01*
X181719604Y-74617240D01*
X181723600Y-74845657D01*
X181810686Y-74845657D01*
X181814657Y-74595286D01*
X181815916Y-74527227D01*
X181817718Y-74454482D01*
X181819671Y-74396730D01*
X181821612Y-74358648D01*
X181823377Y-74344914D01*
X181823885Y-74344962D01*
X181841482Y-74350015D01*
X181873834Y-74360849D01*
X181919543Y-74376783D01*
X181919765Y-74596706D01*
X181919988Y-74634909D01*
X181921531Y-74709146D01*
X181924292Y-74771145D01*
X181927977Y-74815308D01*
X181932292Y-74836041D01*
X181947732Y-74847131D01*
X181979241Y-74850556D01*
X182013886Y-74845657D01*
X182017857Y-74595286D01*
X182019278Y-74531663D01*
X182022225Y-74456356D01*
X182026079Y-74397286D01*
X182030542Y-74358718D01*
X182035317Y-74344914D01*
X182053941Y-74349282D01*
G36*
X182053941Y-74349282D02*
G01*
X182085774Y-74361758D01*
X182122743Y-74378602D01*
X182122743Y-74865196D01*
X182076812Y-74911127D01*
X182066320Y-74921427D01*
X182037255Y-74944320D01*
X182007943Y-74951735D01*
X181964326Y-74948321D01*
X181946568Y-74946114D01*
X181900767Y-74941445D01*
X181868743Y-74939585D01*
X181859244Y-74939869D01*
X181820274Y-74942948D01*
X181773160Y-74948321D01*
X181758085Y-74950168D01*
X181720110Y-74950893D01*
X181692325Y-74939429D01*
X181660674Y-74911127D01*
X181614743Y-74865196D01*
X181614743Y-74605055D01*
X181615101Y-74528180D01*
X181616216Y-74454886D01*
X181617952Y-74396850D01*
X181620167Y-74358663D01*
X181622721Y-74344914D01*
X181623256Y-74344951D01*
X181641808Y-74351793D01*
X181673153Y-74366868D01*
X181715608Y-74388822D01*
X181719604Y-74617240D01*
X181723600Y-74845657D01*
X181810686Y-74845657D01*
X181814657Y-74595286D01*
X181815916Y-74527227D01*
X181817718Y-74454482D01*
X181819671Y-74396730D01*
X181821612Y-74358648D01*
X181823377Y-74344914D01*
X181823885Y-74344962D01*
X181841482Y-74350015D01*
X181873834Y-74360849D01*
X181919543Y-74376783D01*
X181919765Y-74596706D01*
X181919988Y-74634909D01*
X181921531Y-74709146D01*
X181924292Y-74771145D01*
X181927977Y-74815308D01*
X181932292Y-74836041D01*
X181947732Y-74847131D01*
X181979241Y-74850556D01*
X182013886Y-74845657D01*
X182017857Y-74595286D01*
X182019278Y-74531663D01*
X182022225Y-74456356D01*
X182026079Y-74397286D01*
X182030542Y-74358718D01*
X182035317Y-74344914D01*
X182053941Y-74349282D01*
G37*
X184078543Y-74149444D02*
X184125714Y-74169342D01*
X184125714Y-74566509D01*
X184125519Y-74669498D01*
X184124998Y-74762141D01*
X184124199Y-74840700D01*
X184123172Y-74901439D01*
X184121963Y-74940623D01*
X184120623Y-74954514D01*
X184120099Y-74954468D01*
X184102287Y-74949420D01*
X184069823Y-74938580D01*
X184024114Y-74922646D01*
X184024114Y-74718173D01*
X184023824Y-74637832D01*
X184022474Y-74579562D01*
X184019369Y-74539909D01*
X184013812Y-74513618D01*
X184005107Y-74495436D01*
X183992556Y-74480107D01*
X183983999Y-74471955D01*
X183937728Y-74449375D01*
X183886728Y-74451375D01*
X183839993Y-74478073D01*
X183833189Y-74484698D01*
X183822293Y-74498456D01*
X183814836Y-74516642D01*
X183810169Y-74544177D01*
X183807642Y-74585981D01*
X183806602Y-74646973D01*
X183806400Y-74732073D01*
X183806303Y-74775234D01*
X183805674Y-74846224D01*
X183804556Y-74903076D01*
X183803063Y-74940828D01*
X183801309Y-74954514D01*
X183800785Y-74954468D01*
X183782973Y-74949420D01*
X183750509Y-74938580D01*
X183704800Y-74922646D01*
X183704823Y-74717237D01*
X183704857Y-74698951D01*
X183706778Y-74603626D01*
X183712678Y-74531543D01*
X183724001Y-74477813D01*
X183742187Y-74437549D01*
X183768679Y-74405861D01*
X183804918Y-74377861D01*
X183840263Y-74360333D01*
X183896773Y-74346785D01*
X183952356Y-74346015D01*
X183995086Y-74359195D01*
X183998298Y-74361015D01*
X184008205Y-74360820D01*
X184014975Y-74345572D01*
X184019861Y-74310613D01*
X184024114Y-74251289D01*
X184031371Y-74129547D01*
X184078543Y-74149444D01*
G36*
X184078543Y-74149444D02*
G01*
X184125714Y-74169342D01*
X184125714Y-74566509D01*
X184125519Y-74669498D01*
X184124998Y-74762141D01*
X184124199Y-74840700D01*
X184123172Y-74901439D01*
X184121963Y-74940623D01*
X184120623Y-74954514D01*
X184120099Y-74954468D01*
X184102287Y-74949420D01*
X184069823Y-74938580D01*
X184024114Y-74922646D01*
X184024114Y-74718173D01*
X184023824Y-74637832D01*
X184022474Y-74579562D01*
X184019369Y-74539909D01*
X184013812Y-74513618D01*
X184005107Y-74495436D01*
X183992556Y-74480107D01*
X183983999Y-74471955D01*
X183937728Y-74449375D01*
X183886728Y-74451375D01*
X183839993Y-74478073D01*
X183833189Y-74484698D01*
X183822293Y-74498456D01*
X183814836Y-74516642D01*
X183810169Y-74544177D01*
X183807642Y-74585981D01*
X183806602Y-74646973D01*
X183806400Y-74732073D01*
X183806303Y-74775234D01*
X183805674Y-74846224D01*
X183804556Y-74903076D01*
X183803063Y-74940828D01*
X183801309Y-74954514D01*
X183800785Y-74954468D01*
X183782973Y-74949420D01*
X183750509Y-74938580D01*
X183704800Y-74922646D01*
X183704823Y-74717237D01*
X183704857Y-74698951D01*
X183706778Y-74603626D01*
X183712678Y-74531543D01*
X183724001Y-74477813D01*
X183742187Y-74437549D01*
X183768679Y-74405861D01*
X183804918Y-74377861D01*
X183840263Y-74360333D01*
X183896773Y-74346785D01*
X183952356Y-74346015D01*
X183995086Y-74359195D01*
X183998298Y-74361015D01*
X184008205Y-74360820D01*
X184014975Y-74345572D01*
X184019861Y-74310613D01*
X184024114Y-74251289D01*
X184031371Y-74129547D01*
X184078543Y-74149444D01*
G37*
X186665714Y-74635200D02*
X186665701Y-74650935D01*
X186664914Y-74721119D01*
X186662210Y-74770022D01*
X186656606Y-74804178D01*
X186647119Y-74830124D01*
X186632768Y-74854397D01*
X186629237Y-74859433D01*
X186591878Y-74899143D01*
X186549311Y-74929092D01*
X186527452Y-74938810D01*
X186448908Y-74955020D01*
X186371231Y-74944535D01*
X186299645Y-74908707D01*
X186239374Y-74848887D01*
X186234286Y-74840873D01*
X186217730Y-74794342D01*
X186206573Y-74729552D01*
X186201160Y-74654727D01*
X186201768Y-74585513D01*
X186348248Y-74585513D01*
X186349402Y-74681399D01*
X186349866Y-74687569D01*
X186356629Y-74740478D01*
X186368671Y-74774029D01*
X186389005Y-74797016D01*
X186423097Y-74818548D01*
X186456814Y-74819680D01*
X186491543Y-74794857D01*
X186497584Y-74788325D01*
X186509417Y-74768779D01*
X186516404Y-74740386D01*
X186519727Y-74696430D01*
X186520571Y-74630192D01*
X186519125Y-74568150D01*
X186511907Y-74509042D01*
X186497006Y-74471686D01*
X186472636Y-74452152D01*
X186437008Y-74446514D01*
X186423440Y-74447635D01*
X186385430Y-74468194D01*
X186360312Y-74514299D01*
X186348248Y-74585513D01*
X186201768Y-74585513D01*
X186201833Y-74578096D01*
X186208937Y-74507882D01*
X186222815Y-74452312D01*
X186240649Y-74415301D01*
X186290855Y-74357733D01*
X186358885Y-74321962D01*
X186442158Y-74309665D01*
X186464398Y-74310331D01*
X186529891Y-74323947D01*
X186583687Y-74358249D01*
X186633057Y-74417338D01*
X186635995Y-74421722D01*
X186649287Y-74445299D01*
X186657932Y-74471949D01*
X186662904Y-74508159D01*
X186665174Y-74560413D01*
X186665678Y-74630192D01*
X186665714Y-74635200D01*
G36*
X186665714Y-74635200D02*
G01*
X186665701Y-74650935D01*
X186664914Y-74721119D01*
X186662210Y-74770022D01*
X186656606Y-74804178D01*
X186647119Y-74830124D01*
X186632768Y-74854397D01*
X186629237Y-74859433D01*
X186591878Y-74899143D01*
X186549311Y-74929092D01*
X186527452Y-74938810D01*
X186448908Y-74955020D01*
X186371231Y-74944535D01*
X186299645Y-74908707D01*
X186239374Y-74848887D01*
X186234286Y-74840873D01*
X186217730Y-74794342D01*
X186206573Y-74729552D01*
X186201160Y-74654727D01*
X186201768Y-74585513D01*
X186348248Y-74585513D01*
X186349402Y-74681399D01*
X186349866Y-74687569D01*
X186356629Y-74740478D01*
X186368671Y-74774029D01*
X186389005Y-74797016D01*
X186423097Y-74818548D01*
X186456814Y-74819680D01*
X186491543Y-74794857D01*
X186497584Y-74788325D01*
X186509417Y-74768779D01*
X186516404Y-74740386D01*
X186519727Y-74696430D01*
X186520571Y-74630192D01*
X186519125Y-74568150D01*
X186511907Y-74509042D01*
X186497006Y-74471686D01*
X186472636Y-74452152D01*
X186437008Y-74446514D01*
X186423440Y-74447635D01*
X186385430Y-74468194D01*
X186360312Y-74514299D01*
X186348248Y-74585513D01*
X186201768Y-74585513D01*
X186201833Y-74578096D01*
X186208937Y-74507882D01*
X186222815Y-74452312D01*
X186240649Y-74415301D01*
X186290855Y-74357733D01*
X186358885Y-74321962D01*
X186442158Y-74309665D01*
X186464398Y-74310331D01*
X186529891Y-74323947D01*
X186583687Y-74358249D01*
X186633057Y-74417338D01*
X186635995Y-74421722D01*
X186649287Y-74445299D01*
X186657932Y-74471949D01*
X186662904Y-74508159D01*
X186665174Y-74560413D01*
X186665678Y-74630192D01*
X186665714Y-74635200D01*
G37*
X180540590Y-74652622D02*
X180540307Y-74691305D01*
X180536762Y-74767521D01*
X180527483Y-74823294D01*
X180510375Y-74864613D01*
X180483344Y-74897467D01*
X180444292Y-74927846D01*
X180419445Y-74941660D01*
X180379615Y-74950965D01*
X180323665Y-74950230D01*
X180292385Y-74947283D01*
X180254653Y-74938283D01*
X180224494Y-74918720D01*
X180189408Y-74882267D01*
X180184720Y-74876943D01*
X180153177Y-74835969D01*
X180138128Y-74800283D01*
X180134286Y-74757966D01*
X180134286Y-74695779D01*
X180177742Y-74712182D01*
X180209424Y-74731356D01*
X180236962Y-74776347D01*
X180242711Y-74790752D01*
X180274855Y-74831546D01*
X180318611Y-74852081D01*
X180366254Y-74850235D01*
X180410057Y-74823886D01*
X180425111Y-74807455D01*
X180438763Y-74782667D01*
X180434493Y-74760144D01*
X180409916Y-74736964D01*
X180362651Y-74710202D01*
X180290314Y-74676934D01*
X180141543Y-74611816D01*
X180137595Y-74547308D01*
X180139079Y-74506220D01*
X180236010Y-74506220D01*
X180243368Y-74531657D01*
X180276848Y-74558814D01*
X180337614Y-74589714D01*
X180347669Y-74594190D01*
X180395751Y-74615017D01*
X180431726Y-74629665D01*
X180448444Y-74635200D01*
X180450977Y-74631126D01*
X180451993Y-74606247D01*
X180448369Y-74566257D01*
X180439242Y-74527152D01*
X180410773Y-74477884D01*
X180369678Y-74450122D01*
X180320590Y-74446364D01*
X180268144Y-74469109D01*
X180253609Y-74480481D01*
X180236010Y-74506220D01*
X180139079Y-74506220D01*
X180139338Y-74499064D01*
X180161281Y-74438096D01*
X180188979Y-74404497D01*
X180246405Y-74366966D01*
X180314527Y-74348006D01*
X180384947Y-74349507D01*
X180449267Y-74373355D01*
X180463426Y-74382513D01*
X180495904Y-74410849D01*
X180518116Y-74446695D01*
X180531804Y-74495384D01*
X180538715Y-74562249D01*
X180539628Y-74606247D01*
X180540590Y-74652622D01*
G36*
X180540590Y-74652622D02*
G01*
X180540307Y-74691305D01*
X180536762Y-74767521D01*
X180527483Y-74823294D01*
X180510375Y-74864613D01*
X180483344Y-74897467D01*
X180444292Y-74927846D01*
X180419445Y-74941660D01*
X180379615Y-74950965D01*
X180323665Y-74950230D01*
X180292385Y-74947283D01*
X180254653Y-74938283D01*
X180224494Y-74918720D01*
X180189408Y-74882267D01*
X180184720Y-74876943D01*
X180153177Y-74835969D01*
X180138128Y-74800283D01*
X180134286Y-74757966D01*
X180134286Y-74695779D01*
X180177742Y-74712182D01*
X180209424Y-74731356D01*
X180236962Y-74776347D01*
X180242711Y-74790752D01*
X180274855Y-74831546D01*
X180318611Y-74852081D01*
X180366254Y-74850235D01*
X180410057Y-74823886D01*
X180425111Y-74807455D01*
X180438763Y-74782667D01*
X180434493Y-74760144D01*
X180409916Y-74736964D01*
X180362651Y-74710202D01*
X180290314Y-74676934D01*
X180141543Y-74611816D01*
X180137595Y-74547308D01*
X180139079Y-74506220D01*
X180236010Y-74506220D01*
X180243368Y-74531657D01*
X180276848Y-74558814D01*
X180337614Y-74589714D01*
X180347669Y-74594190D01*
X180395751Y-74615017D01*
X180431726Y-74629665D01*
X180448444Y-74635200D01*
X180450977Y-74631126D01*
X180451993Y-74606247D01*
X180448369Y-74566257D01*
X180439242Y-74527152D01*
X180410773Y-74477884D01*
X180369678Y-74450122D01*
X180320590Y-74446364D01*
X180268144Y-74469109D01*
X180253609Y-74480481D01*
X180236010Y-74506220D01*
X180139079Y-74506220D01*
X180139338Y-74499064D01*
X180161281Y-74438096D01*
X180188979Y-74404497D01*
X180246405Y-74366966D01*
X180314527Y-74348006D01*
X180384947Y-74349507D01*
X180449267Y-74373355D01*
X180463426Y-74382513D01*
X180495904Y-74410849D01*
X180518116Y-74446695D01*
X180531804Y-74495384D01*
X180538715Y-74562249D01*
X180539628Y-74606247D01*
X180540590Y-74652622D01*
G37*
X182630698Y-74649714D02*
X182629537Y-74706313D01*
X182621345Y-74783462D01*
X182603519Y-74841276D01*
X182573975Y-74885422D01*
X182530625Y-74921568D01*
X182489332Y-74942463D01*
X182419987Y-74954090D01*
X182350736Y-74941377D01*
X182288145Y-74905945D01*
X182238779Y-74849418D01*
X182232818Y-74838995D01*
X182224945Y-74820733D01*
X182219106Y-74797429D01*
X182214999Y-74765085D01*
X182212325Y-74719704D01*
X182210781Y-74657287D01*
X182210734Y-74651748D01*
X182311429Y-74651748D01*
X182311772Y-74704577D01*
X182313942Y-74752362D01*
X182319307Y-74783209D01*
X182329217Y-74803935D01*
X182345021Y-74821356D01*
X182348724Y-74824705D01*
X182396299Y-74849419D01*
X182446635Y-74846890D01*
X182493517Y-74817288D01*
X182507477Y-74801953D01*
X182519160Y-74781622D01*
X182525686Y-74753514D01*
X182528524Y-74710550D01*
X182529143Y-74645647D01*
X182528837Y-74596122D01*
X182526722Y-74547782D01*
X182521390Y-74516587D01*
X182511460Y-74495647D01*
X182495550Y-74478073D01*
X182486204Y-74470159D01*
X182437776Y-74448843D01*
X182387040Y-74452198D01*
X182342987Y-74480107D01*
X182333504Y-74491173D01*
X182321939Y-74512009D01*
X182315252Y-74541106D01*
X182312173Y-74585381D01*
X182311429Y-74651748D01*
X182210734Y-74651748D01*
X182210067Y-74573837D01*
X182209883Y-74465358D01*
X182209829Y-74128601D01*
X182257000Y-74148362D01*
X182269472Y-74153770D01*
X182289324Y-74165985D01*
X182300687Y-74184482D01*
X182306933Y-74216829D01*
X182311429Y-74270593D01*
X182315535Y-74318866D01*
X182320963Y-74350557D01*
X182328739Y-74362383D01*
X182340457Y-74359212D01*
X182370318Y-74348067D01*
X182423684Y-74345304D01*
X182481093Y-74355625D01*
X182530625Y-74377861D01*
X182557876Y-74398443D01*
X182592865Y-74438600D01*
X182615274Y-74490086D01*
X182627190Y-74558568D01*
X182630542Y-74645647D01*
X182630698Y-74649714D01*
G36*
X182630698Y-74649714D02*
G01*
X182629537Y-74706313D01*
X182621345Y-74783462D01*
X182603519Y-74841276D01*
X182573975Y-74885422D01*
X182530625Y-74921568D01*
X182489332Y-74942463D01*
X182419987Y-74954090D01*
X182350736Y-74941377D01*
X182288145Y-74905945D01*
X182238779Y-74849418D01*
X182232818Y-74838995D01*
X182224945Y-74820733D01*
X182219106Y-74797429D01*
X182214999Y-74765085D01*
X182212325Y-74719704D01*
X182210781Y-74657287D01*
X182210734Y-74651748D01*
X182311429Y-74651748D01*
X182311772Y-74704577D01*
X182313942Y-74752362D01*
X182319307Y-74783209D01*
X182329217Y-74803935D01*
X182345021Y-74821356D01*
X182348724Y-74824705D01*
X182396299Y-74849419D01*
X182446635Y-74846890D01*
X182493517Y-74817288D01*
X182507477Y-74801953D01*
X182519160Y-74781622D01*
X182525686Y-74753514D01*
X182528524Y-74710550D01*
X182529143Y-74645647D01*
X182528837Y-74596122D01*
X182526722Y-74547782D01*
X182521390Y-74516587D01*
X182511460Y-74495647D01*
X182495550Y-74478073D01*
X182486204Y-74470159D01*
X182437776Y-74448843D01*
X182387040Y-74452198D01*
X182342987Y-74480107D01*
X182333504Y-74491173D01*
X182321939Y-74512009D01*
X182315252Y-74541106D01*
X182312173Y-74585381D01*
X182311429Y-74651748D01*
X182210734Y-74651748D01*
X182210067Y-74573837D01*
X182209883Y-74465358D01*
X182209829Y-74128601D01*
X182257000Y-74148362D01*
X182269472Y-74153770D01*
X182289324Y-74165985D01*
X182300687Y-74184482D01*
X182306933Y-74216829D01*
X182311429Y-74270593D01*
X182315535Y-74318866D01*
X182320963Y-74350557D01*
X182328739Y-74362383D01*
X182340457Y-74359212D01*
X182370318Y-74348067D01*
X182423684Y-74345304D01*
X182481093Y-74355625D01*
X182530625Y-74377861D01*
X182557876Y-74398443D01*
X182592865Y-74438600D01*
X182615274Y-74490086D01*
X182627190Y-74558568D01*
X182630542Y-74645647D01*
X182630698Y-74649714D01*
G37*
X185562299Y-74594055D02*
X185557684Y-74704078D01*
X185555078Y-74727387D01*
X185535660Y-74810352D01*
X185500573Y-74873448D01*
X185447212Y-74921808D01*
X185444196Y-74923804D01*
X185376362Y-74952185D01*
X185305535Y-74954711D01*
X185237289Y-74933097D01*
X185177196Y-74889062D01*
X185130829Y-74824322D01*
X185130050Y-74822761D01*
X185114643Y-74782558D01*
X185103357Y-74736866D01*
X185097370Y-74693972D01*
X185097861Y-74662160D01*
X185106007Y-74649714D01*
X185113244Y-74650471D01*
X185147851Y-74664235D01*
X185187078Y-74689546D01*
X185220448Y-74718845D01*
X185237483Y-74744572D01*
X185255192Y-74779471D01*
X185291485Y-74811212D01*
X185333630Y-74823886D01*
X185349077Y-74820221D01*
X185379569Y-74801774D01*
X185406128Y-74776166D01*
X185417486Y-74752934D01*
X185417482Y-74752848D01*
X185404596Y-74742179D01*
X185370241Y-74722933D01*
X185319593Y-74697813D01*
X185257829Y-74669524D01*
X185257489Y-74669374D01*
X185190388Y-74639498D01*
X185145411Y-74617973D01*
X185118145Y-74601437D01*
X185104178Y-74586531D01*
X185099097Y-74569893D01*
X185098490Y-74548162D01*
X185102712Y-74507013D01*
X185246000Y-74507013D01*
X185260791Y-74519949D01*
X185297644Y-74539333D01*
X185298725Y-74539881D01*
X185342205Y-74560587D01*
X185381102Y-74577105D01*
X185405778Y-74584093D01*
X185415676Y-74574753D01*
X185417486Y-74542748D01*
X185409966Y-74502915D01*
X185383897Y-74466717D01*
X185346154Y-74447950D01*
X185304077Y-74449845D01*
X185265005Y-74475632D01*
X185249647Y-74493451D01*
X185246000Y-74507013D01*
X185102712Y-74507013D01*
X185103833Y-74496086D01*
X185130251Y-74425335D01*
X185174473Y-74369735D01*
X185231697Y-74331239D01*
X185297120Y-74311797D01*
X185365937Y-74313359D01*
X185433347Y-74337878D01*
X185494544Y-74387302D01*
X185528450Y-74436212D01*
X185552806Y-74506027D01*
X185556767Y-74542748D01*
X185562299Y-74594055D01*
G36*
X185562299Y-74594055D02*
G01*
X185557684Y-74704078D01*
X185555078Y-74727387D01*
X185535660Y-74810352D01*
X185500573Y-74873448D01*
X185447212Y-74921808D01*
X185444196Y-74923804D01*
X185376362Y-74952185D01*
X185305535Y-74954711D01*
X185237289Y-74933097D01*
X185177196Y-74889062D01*
X185130829Y-74824322D01*
X185130050Y-74822761D01*
X185114643Y-74782558D01*
X185103357Y-74736866D01*
X185097370Y-74693972D01*
X185097861Y-74662160D01*
X185106007Y-74649714D01*
X185113244Y-74650471D01*
X185147851Y-74664235D01*
X185187078Y-74689546D01*
X185220448Y-74718845D01*
X185237483Y-74744572D01*
X185255192Y-74779471D01*
X185291485Y-74811212D01*
X185333630Y-74823886D01*
X185349077Y-74820221D01*
X185379569Y-74801774D01*
X185406128Y-74776166D01*
X185417486Y-74752934D01*
X185417482Y-74752848D01*
X185404596Y-74742179D01*
X185370241Y-74722933D01*
X185319593Y-74697813D01*
X185257829Y-74669524D01*
X185257489Y-74669374D01*
X185190388Y-74639498D01*
X185145411Y-74617973D01*
X185118145Y-74601437D01*
X185104178Y-74586531D01*
X185099097Y-74569893D01*
X185098490Y-74548162D01*
X185102712Y-74507013D01*
X185246000Y-74507013D01*
X185260791Y-74519949D01*
X185297644Y-74539333D01*
X185298725Y-74539881D01*
X185342205Y-74560587D01*
X185381102Y-74577105D01*
X185405778Y-74584093D01*
X185415676Y-74574753D01*
X185417486Y-74542748D01*
X185409966Y-74502915D01*
X185383897Y-74466717D01*
X185346154Y-74447950D01*
X185304077Y-74449845D01*
X185265005Y-74475632D01*
X185249647Y-74493451D01*
X185246000Y-74507013D01*
X185102712Y-74507013D01*
X185103833Y-74496086D01*
X185130251Y-74425335D01*
X185174473Y-74369735D01*
X185231697Y-74331239D01*
X185297120Y-74311797D01*
X185365937Y-74313359D01*
X185433347Y-74337878D01*
X185494544Y-74387302D01*
X185528450Y-74436212D01*
X185552806Y-74506027D01*
X185556767Y-74542748D01*
X185562299Y-74594055D01*
G37*
X183489483Y-74360569D02*
X183539376Y-74389661D01*
X183561325Y-74412327D01*
X183603504Y-74480082D01*
X183617714Y-74553950D01*
X183617714Y-74604770D01*
X183570999Y-74585128D01*
X183538692Y-74565308D01*
X183513231Y-74524160D01*
X183510616Y-74515675D01*
X183482478Y-74472451D01*
X183440067Y-74449103D01*
X183391370Y-74448100D01*
X183344373Y-74471914D01*
X183337357Y-74478056D01*
X183313893Y-74504745D01*
X183310019Y-74528014D01*
X183327768Y-74550862D01*
X183369179Y-74576287D01*
X183436286Y-74607288D01*
X183440824Y-74609252D01*
X183515322Y-74643990D01*
X183566203Y-74674763D01*
X183597525Y-74705488D01*
X183613343Y-74740082D01*
X183617714Y-74782462D01*
X183611986Y-74829446D01*
X183583062Y-74889585D01*
X183532178Y-74932788D01*
X183495374Y-74945759D01*
X183443434Y-74952856D01*
X183392999Y-74951340D01*
X183356983Y-74940632D01*
X183353158Y-74937966D01*
X183342998Y-74919337D01*
X183350048Y-74886505D01*
X183362297Y-74860735D01*
X183381939Y-74850006D01*
X183419191Y-74850539D01*
X183470908Y-74847462D01*
X183504701Y-74826212D01*
X183516114Y-74786877D01*
X183516104Y-74785747D01*
X183509187Y-74762913D01*
X183485659Y-74741963D01*
X183439914Y-74717815D01*
X183377704Y-74688741D01*
X183336499Y-74672925D01*
X183312712Y-74673944D01*
X183301597Y-74694837D01*
X183298408Y-74738641D01*
X183298400Y-74808393D01*
X183298044Y-74851452D01*
X183296413Y-74904626D01*
X183293761Y-74941022D01*
X183290422Y-74954514D01*
X183289530Y-74954423D01*
X183270237Y-74947110D01*
X183238284Y-74931678D01*
X183194124Y-74908842D01*
X183199371Y-74703078D01*
X183199736Y-74689432D01*
X183203904Y-74593651D01*
X183211268Y-74521462D01*
X183223330Y-74468058D01*
X183241593Y-74428633D01*
X183267560Y-74398380D01*
X183302733Y-74372493D01*
X183303384Y-74372087D01*
X183360256Y-74350968D01*
X183426033Y-74347400D01*
X183489483Y-74360569D01*
G36*
X183489483Y-74360569D02*
G01*
X183539376Y-74389661D01*
X183561325Y-74412327D01*
X183603504Y-74480082D01*
X183617714Y-74553950D01*
X183617714Y-74604770D01*
X183570999Y-74585128D01*
X183538692Y-74565308D01*
X183513231Y-74524160D01*
X183510616Y-74515675D01*
X183482478Y-74472451D01*
X183440067Y-74449103D01*
X183391370Y-74448100D01*
X183344373Y-74471914D01*
X183337357Y-74478056D01*
X183313893Y-74504745D01*
X183310019Y-74528014D01*
X183327768Y-74550862D01*
X183369179Y-74576287D01*
X183436286Y-74607288D01*
X183440824Y-74609252D01*
X183515322Y-74643990D01*
X183566203Y-74674763D01*
X183597525Y-74705488D01*
X183613343Y-74740082D01*
X183617714Y-74782462D01*
X183611986Y-74829446D01*
X183583062Y-74889585D01*
X183532178Y-74932788D01*
X183495374Y-74945759D01*
X183443434Y-74952856D01*
X183392999Y-74951340D01*
X183356983Y-74940632D01*
X183353158Y-74937966D01*
X183342998Y-74919337D01*
X183350048Y-74886505D01*
X183362297Y-74860735D01*
X183381939Y-74850006D01*
X183419191Y-74850539D01*
X183470908Y-74847462D01*
X183504701Y-74826212D01*
X183516114Y-74786877D01*
X183516104Y-74785747D01*
X183509187Y-74762913D01*
X183485659Y-74741963D01*
X183439914Y-74717815D01*
X183377704Y-74688741D01*
X183336499Y-74672925D01*
X183312712Y-74673944D01*
X183301597Y-74694837D01*
X183298408Y-74738641D01*
X183298400Y-74808393D01*
X183298044Y-74851452D01*
X183296413Y-74904626D01*
X183293761Y-74941022D01*
X183290422Y-74954514D01*
X183289530Y-74954423D01*
X183270237Y-74947110D01*
X183238284Y-74931678D01*
X183194124Y-74908842D01*
X183199371Y-74703078D01*
X183199736Y-74689432D01*
X183203904Y-74593651D01*
X183211268Y-74521462D01*
X183223330Y-74468058D01*
X183241593Y-74428633D01*
X183267560Y-74398380D01*
X183302733Y-74372493D01*
X183303384Y-74372087D01*
X183360256Y-74350968D01*
X183426033Y-74347400D01*
X183489483Y-74360569D01*
G37*
X181367495Y-74346220D02*
X181398599Y-74354121D01*
X181427559Y-74373817D01*
X181464831Y-74410484D01*
X181488801Y-74436378D01*
X181513770Y-74469997D01*
X181525031Y-74501506D01*
X181527657Y-74541485D01*
X181527657Y-74606917D01*
X181483035Y-74583842D01*
X181447673Y-74555724D01*
X181423451Y-74517848D01*
X181419291Y-74507551D01*
X181387594Y-74467637D01*
X181343554Y-74447624D01*
X181295531Y-74449572D01*
X181251886Y-74475543D01*
X181233420Y-74496635D01*
X181222663Y-74523619D01*
X181234178Y-74547634D01*
X181269981Y-74571791D01*
X181332090Y-74599199D01*
X181341515Y-74602985D01*
X181398058Y-74627759D01*
X181446580Y-74652189D01*
X181477451Y-74671486D01*
X181508371Y-74705953D01*
X181528927Y-74760957D01*
X181526744Y-74819983D01*
X181502424Y-74875845D01*
X181456568Y-74921355D01*
X181419438Y-74940727D01*
X181347711Y-74954292D01*
X181307852Y-74952462D01*
X181270953Y-74942568D01*
X181256797Y-74921806D01*
X181262091Y-74887613D01*
X181263631Y-74883092D01*
X181275842Y-74859116D01*
X181296174Y-74850042D01*
X181334908Y-74850649D01*
X181362257Y-74851474D01*
X181394257Y-74844392D01*
X181416182Y-74823219D01*
X181428670Y-74797152D01*
X181430062Y-74769845D01*
X181429998Y-74769685D01*
X181413807Y-74754930D01*
X181379155Y-74733457D01*
X181334321Y-74709458D01*
X181287582Y-74687125D01*
X181247217Y-74670652D01*
X181221504Y-74664229D01*
X181217679Y-74670518D01*
X181212864Y-74700115D01*
X181209566Y-74748447D01*
X181208343Y-74809372D01*
X181208058Y-74851542D01*
X181206718Y-74904653D01*
X181204528Y-74941025D01*
X181201769Y-74954514D01*
X181187344Y-74949981D01*
X181158226Y-74937670D01*
X181121257Y-74920826D01*
X181121257Y-74704721D01*
X181121493Y-74649327D01*
X181123729Y-74565207D01*
X181129423Y-74502800D01*
X181139903Y-74457358D01*
X181156497Y-74424133D01*
X181180531Y-74398378D01*
X181213333Y-74375344D01*
X181255124Y-74356335D01*
X181332287Y-74344914D01*
X181367495Y-74346220D01*
G36*
X181367495Y-74346220D02*
G01*
X181398599Y-74354121D01*
X181427559Y-74373817D01*
X181464831Y-74410484D01*
X181488801Y-74436378D01*
X181513770Y-74469997D01*
X181525031Y-74501506D01*
X181527657Y-74541485D01*
X181527657Y-74606917D01*
X181483035Y-74583842D01*
X181447673Y-74555724D01*
X181423451Y-74517848D01*
X181419291Y-74507551D01*
X181387594Y-74467637D01*
X181343554Y-74447624D01*
X181295531Y-74449572D01*
X181251886Y-74475543D01*
X181233420Y-74496635D01*
X181222663Y-74523619D01*
X181234178Y-74547634D01*
X181269981Y-74571791D01*
X181332090Y-74599199D01*
X181341515Y-74602985D01*
X181398058Y-74627759D01*
X181446580Y-74652189D01*
X181477451Y-74671486D01*
X181508371Y-74705953D01*
X181528927Y-74760957D01*
X181526744Y-74819983D01*
X181502424Y-74875845D01*
X181456568Y-74921355D01*
X181419438Y-74940727D01*
X181347711Y-74954292D01*
X181307852Y-74952462D01*
X181270953Y-74942568D01*
X181256797Y-74921806D01*
X181262091Y-74887613D01*
X181263631Y-74883092D01*
X181275842Y-74859116D01*
X181296174Y-74850042D01*
X181334908Y-74850649D01*
X181362257Y-74851474D01*
X181394257Y-74844392D01*
X181416182Y-74823219D01*
X181428670Y-74797152D01*
X181430062Y-74769845D01*
X181429998Y-74769685D01*
X181413807Y-74754930D01*
X181379155Y-74733457D01*
X181334321Y-74709458D01*
X181287582Y-74687125D01*
X181247217Y-74670652D01*
X181221504Y-74664229D01*
X181217679Y-74670518D01*
X181212864Y-74700115D01*
X181209566Y-74748447D01*
X181208343Y-74809372D01*
X181208058Y-74851542D01*
X181206718Y-74904653D01*
X181204528Y-74941025D01*
X181201769Y-74954514D01*
X181187344Y-74949981D01*
X181158226Y-74937670D01*
X181121257Y-74920826D01*
X181121257Y-74704721D01*
X181121493Y-74649327D01*
X181123729Y-74565207D01*
X181129423Y-74502800D01*
X181139903Y-74457358D01*
X181156497Y-74424133D01*
X181180531Y-74398378D01*
X181213333Y-74375344D01*
X181255124Y-74356335D01*
X181332287Y-74344914D01*
X181367495Y-74346220D01*
G37*
X186109815Y-74701524D02*
X186111252Y-74813000D01*
X186111651Y-74845339D01*
X186112929Y-74953455D01*
X186113185Y-75036186D01*
X186111634Y-75096426D01*
X186107490Y-75137073D01*
X186099964Y-75161023D01*
X186088271Y-75171171D01*
X186071624Y-75170414D01*
X186049236Y-75161648D01*
X186020321Y-75147769D01*
X186014142Y-75144808D01*
X185988413Y-75130311D01*
X185974976Y-75113065D01*
X185969834Y-75084308D01*
X185968990Y-75035283D01*
X185968952Y-74947257D01*
X185878276Y-74947257D01*
X185822498Y-74944815D01*
X185778640Y-74934908D01*
X185742218Y-74914886D01*
X185739503Y-74912929D01*
X185702546Y-74879869D01*
X185676826Y-74839931D01*
X185660606Y-74787657D01*
X185652148Y-74717588D01*
X185650083Y-74638430D01*
X185794857Y-74638430D01*
X185794882Y-74651697D01*
X185796261Y-74711584D01*
X185800687Y-74750732D01*
X185809461Y-74776153D01*
X185823886Y-74794857D01*
X185824784Y-74795750D01*
X185860237Y-74819952D01*
X185894596Y-74817567D01*
X185933403Y-74788260D01*
X185942895Y-74778244D01*
X185956876Y-74757708D01*
X185964760Y-74730997D01*
X185968245Y-74690499D01*
X185969029Y-74628603D01*
X185968350Y-74591130D01*
X185960983Y-74522980D01*
X185944168Y-74478330D01*
X185916234Y-74453926D01*
X185875509Y-74446514D01*
X185858350Y-74448094D01*
X185828660Y-74463766D01*
X185809031Y-74498691D01*
X185798188Y-74555901D01*
X185794857Y-74638430D01*
X185650083Y-74638430D01*
X185649714Y-74624267D01*
X185650253Y-74556169D01*
X185652707Y-74504587D01*
X185658158Y-74468816D01*
X185667686Y-74442015D01*
X185682371Y-74417338D01*
X185695852Y-74398480D01*
X185744799Y-74347568D01*
X185800256Y-74319918D01*
X185869928Y-74311165D01*
X185949664Y-74319890D01*
X186018595Y-74351185D01*
X186073113Y-74406381D01*
X186077223Y-74412224D01*
X186086808Y-74427753D01*
X186094151Y-74445498D01*
X186099612Y-74469290D01*
X186103550Y-74502958D01*
X186106323Y-74550333D01*
X186108292Y-74615245D01*
X186108528Y-74628603D01*
X186109815Y-74701524D01*
G36*
X186109815Y-74701524D02*
G01*
X186111252Y-74813000D01*
X186111651Y-74845339D01*
X186112929Y-74953455D01*
X186113185Y-75036186D01*
X186111634Y-75096426D01*
X186107490Y-75137073D01*
X186099964Y-75161023D01*
X186088271Y-75171171D01*
X186071624Y-75170414D01*
X186049236Y-75161648D01*
X186020321Y-75147769D01*
X186014142Y-75144808D01*
X185988413Y-75130311D01*
X185974976Y-75113065D01*
X185969834Y-75084308D01*
X185968990Y-75035283D01*
X185968952Y-74947257D01*
X185878276Y-74947257D01*
X185822498Y-74944815D01*
X185778640Y-74934908D01*
X185742218Y-74914886D01*
X185739503Y-74912929D01*
X185702546Y-74879869D01*
X185676826Y-74839931D01*
X185660606Y-74787657D01*
X185652148Y-74717588D01*
X185650083Y-74638430D01*
X185794857Y-74638430D01*
X185794882Y-74651697D01*
X185796261Y-74711584D01*
X185800687Y-74750732D01*
X185809461Y-74776153D01*
X185823886Y-74794857D01*
X185824784Y-74795750D01*
X185860237Y-74819952D01*
X185894596Y-74817567D01*
X185933403Y-74788260D01*
X185942895Y-74778244D01*
X185956876Y-74757708D01*
X185964760Y-74730997D01*
X185968245Y-74690499D01*
X185969029Y-74628603D01*
X185968350Y-74591130D01*
X185960983Y-74522980D01*
X185944168Y-74478330D01*
X185916234Y-74453926D01*
X185875509Y-74446514D01*
X185858350Y-74448094D01*
X185828660Y-74463766D01*
X185809031Y-74498691D01*
X185798188Y-74555901D01*
X185794857Y-74638430D01*
X185650083Y-74638430D01*
X185649714Y-74624267D01*
X185650253Y-74556169D01*
X185652707Y-74504587D01*
X185658158Y-74468816D01*
X185667686Y-74442015D01*
X185682371Y-74417338D01*
X185695852Y-74398480D01*
X185744799Y-74347568D01*
X185800256Y-74319918D01*
X185869928Y-74311165D01*
X185949664Y-74319890D01*
X186018595Y-74351185D01*
X186073113Y-74406381D01*
X186077223Y-74412224D01*
X186086808Y-74427753D01*
X186094151Y-74445498D01*
X186099612Y-74469290D01*
X186103550Y-74502958D01*
X186106323Y-74550333D01*
X186108292Y-74615245D01*
X186108528Y-74628603D01*
X186109815Y-74701524D01*
G37*
X183513933Y-69642371D02*
X183589856Y-69642865D01*
X183644491Y-69644135D01*
X183681500Y-69646547D01*
X183704547Y-69650467D01*
X183717296Y-69656262D01*
X183723411Y-69664299D01*
X183726556Y-69674943D01*
X183726646Y-69675325D01*
X183731814Y-69700347D01*
X183741209Y-69748681D01*
X183753867Y-69815260D01*
X183768825Y-69895014D01*
X183785119Y-69982875D01*
X183786448Y-69990064D01*
X183802691Y-70075340D01*
X183817805Y-70150242D01*
X183830808Y-70210219D01*
X183840715Y-70250717D01*
X183846544Y-70267184D01*
X183846575Y-70267210D01*
X183864943Y-70276320D01*
X183902640Y-70291457D01*
X183951543Y-70309358D01*
X183954297Y-70310330D01*
X184016817Y-70333959D01*
X184089543Y-70363595D01*
X184157294Y-70393062D01*
X184268703Y-70443626D01*
X184515399Y-70275160D01*
X184532775Y-70263311D01*
X184607202Y-70212947D01*
X184673614Y-70168612D01*
X184728039Y-70132916D01*
X184766506Y-70108471D01*
X184785042Y-70097889D01*
X184797743Y-70100315D01*
X184826579Y-70119110D01*
X184871143Y-70156330D01*
X184932670Y-70213020D01*
X185012398Y-70290227D01*
X185019532Y-70297255D01*
X185082796Y-70360222D01*
X185138990Y-70417268D01*
X185184677Y-70464817D01*
X185216414Y-70499297D01*
X185230764Y-70517131D01*
X185230810Y-70517217D01*
X185232633Y-70530795D01*
X185225910Y-70552820D01*
X185208946Y-70586304D01*
X185180044Y-70634261D01*
X185137508Y-70699704D01*
X185079644Y-70785645D01*
X185069783Y-70800151D01*
X185019913Y-70873635D01*
X184975905Y-70938687D01*
X184940380Y-70991417D01*
X184915959Y-71027936D01*
X184905264Y-71044356D01*
X184904458Y-71047834D01*
X184909518Y-71073785D01*
X184924677Y-71116159D01*
X184947463Y-71167728D01*
X184978429Y-71235170D01*
X185013004Y-71315195D01*
X185042366Y-71387629D01*
X185049645Y-71406377D01*
X185068710Y-71454246D01*
X185082715Y-71487596D01*
X185089041Y-71500114D01*
X185096025Y-71501050D01*
X185127413Y-71506461D01*
X185178787Y-71515806D01*
X185244802Y-71528069D01*
X185320113Y-71542232D01*
X185399375Y-71557280D01*
X185477243Y-71572195D01*
X185548370Y-71585961D01*
X185607412Y-71597562D01*
X185649022Y-71605980D01*
X185667857Y-71610199D01*
X185670980Y-71611389D01*
X185678591Y-71617805D01*
X185684254Y-71631465D01*
X185688251Y-71655999D01*
X185690866Y-71695038D01*
X185692384Y-71752213D01*
X185693086Y-71831154D01*
X185693257Y-71935492D01*
X185693257Y-72252799D01*
X185617057Y-72267839D01*
X185607840Y-72269642D01*
X185558891Y-72278980D01*
X185491205Y-72291669D01*
X185412478Y-72306273D01*
X185330400Y-72321355D01*
X185298078Y-72327422D01*
X185225855Y-72342181D01*
X185165666Y-72356137D01*
X185123040Y-72367952D01*
X185103510Y-72376287D01*
X185094660Y-72389905D01*
X185078548Y-72425938D01*
X185062065Y-72472572D01*
X185056263Y-72490034D01*
X185034906Y-72547358D01*
X185007359Y-72615201D01*
X184978107Y-72682355D01*
X184962463Y-72717430D01*
X184940174Y-72769822D01*
X184924857Y-72809058D01*
X184919162Y-72828563D01*
X184919478Y-72830036D01*
X184930281Y-72850729D01*
X184954638Y-72890665D01*
X184990081Y-72945972D01*
X185034136Y-73012781D01*
X185084332Y-73087220D01*
X185249501Y-73329623D01*
X185032503Y-73546983D01*
X185011516Y-73567899D01*
X184947342Y-73630505D01*
X184889990Y-73684495D01*
X184842820Y-73726826D01*
X184809192Y-73754457D01*
X184792467Y-73764343D01*
X184774303Y-73756821D01*
X184736265Y-73735227D01*
X184682726Y-73702151D01*
X184617884Y-73660191D01*
X184545940Y-73611943D01*
X184475275Y-73564291D01*
X184411526Y-73522328D01*
X184359513Y-73489165D01*
X184323279Y-73467378D01*
X184306867Y-73459543D01*
X184305905Y-73459614D01*
X184284103Y-73467338D01*
X184245440Y-73485323D01*
X184197612Y-73510013D01*
X184197110Y-73510284D01*
X184133587Y-73542099D01*
X184090060Y-73557642D01*
X184063052Y-73557685D01*
X184049090Y-73543000D01*
X184043180Y-73528544D01*
X184027229Y-73489831D01*
X184002660Y-73430316D01*
X183970779Y-73353165D01*
X183932893Y-73261541D01*
X183890310Y-73158607D01*
X183844337Y-73047526D01*
X183802667Y-72946472D01*
X183760268Y-72842780D01*
X183722756Y-72750119D01*
X183691388Y-72671642D01*
X183667425Y-72610500D01*
X183652123Y-72569843D01*
X183646743Y-72552825D01*
X183657018Y-72537219D01*
X183685563Y-72511162D01*
X183725971Y-72480887D01*
X183822979Y-72401684D01*
X183909793Y-72300475D01*
X183973322Y-72189116D01*
X184013177Y-72070893D01*
X184028965Y-71949095D01*
X184020296Y-71827010D01*
X183986778Y-71707925D01*
X183928021Y-71595129D01*
X183843632Y-71491911D01*
X183799631Y-71451713D01*
X183694211Y-71380638D01*
X183581410Y-71334301D01*
X183464525Y-71311599D01*
X183346853Y-71311428D01*
X183231690Y-71332687D01*
X183122335Y-71374270D01*
X183022083Y-71435076D01*
X182934233Y-71514001D01*
X182862080Y-71609941D01*
X182808922Y-71721795D01*
X182778057Y-71848457D01*
X182772392Y-71909507D01*
X182780185Y-72041776D01*
X182815284Y-72167266D01*
X182876649Y-72283759D01*
X182963243Y-72389039D01*
X183074029Y-72480887D01*
X183112931Y-72509930D01*
X183142104Y-72536272D01*
X183153257Y-72552800D01*
X183148810Y-72567209D01*
X183134378Y-72605815D01*
X183111173Y-72665201D01*
X183080452Y-72742215D01*
X183043474Y-72833703D01*
X183001496Y-72936516D01*
X182955778Y-73047502D01*
X182914178Y-73148072D01*
X182871222Y-73251947D01*
X182832829Y-73344819D01*
X182800305Y-73423525D01*
X182774958Y-73484899D01*
X182758095Y-73525779D01*
X182751025Y-73543000D01*
X182750943Y-73543204D01*
X182736798Y-73557745D01*
X182709659Y-73557579D01*
X182666023Y-73541927D01*
X182602388Y-73510013D01*
X182597379Y-73507326D01*
X182550125Y-73483150D01*
X182512811Y-73466037D01*
X182493133Y-73459543D01*
X182477005Y-73467218D01*
X182440959Y-73488871D01*
X182389092Y-73521928D01*
X182325445Y-73563810D01*
X182254060Y-73611943D01*
X182183724Y-73659131D01*
X182118670Y-73701267D01*
X182064820Y-73734578D01*
X182026374Y-73756469D01*
X182007534Y-73764343D01*
X182004325Y-73763343D01*
X181981954Y-73747584D01*
X181943733Y-73715033D01*
X181893021Y-73668733D01*
X181833181Y-73611726D01*
X181767571Y-73547058D01*
X181550648Y-73329772D01*
X181719601Y-73081253D01*
X181888553Y-72832733D01*
X181837183Y-72721595D01*
X181837031Y-72721266D01*
X181806183Y-72650418D01*
X181774661Y-72571523D01*
X181749266Y-72501600D01*
X181745423Y-72490322D01*
X181726047Y-72437967D01*
X181708574Y-72397283D01*
X181696388Y-72376287D01*
X181691426Y-72373322D01*
X181661634Y-72363375D01*
X181611047Y-72350505D01*
X181545194Y-72336053D01*
X181469600Y-72321355D01*
X181446957Y-72317210D01*
X181365038Y-72302116D01*
X181288600Y-72287899D01*
X181225337Y-72275995D01*
X181182943Y-72267839D01*
X181106743Y-72252799D01*
X181106743Y-71935492D01*
X181106760Y-71896476D01*
X181107082Y-71801292D01*
X181108033Y-71730255D01*
X181109896Y-71679734D01*
X181112955Y-71646098D01*
X181117494Y-71625718D01*
X181123795Y-71614962D01*
X181132143Y-71610199D01*
X181140224Y-71608270D01*
X181173172Y-71601445D01*
X181225736Y-71591022D01*
X181292569Y-71578018D01*
X181368328Y-71563449D01*
X181447665Y-71548333D01*
X181525237Y-71533685D01*
X181595698Y-71520523D01*
X181653702Y-71509863D01*
X181693904Y-71502721D01*
X181710959Y-71500114D01*
X181712112Y-71498541D01*
X181721385Y-71478119D01*
X181737432Y-71439045D01*
X181757635Y-71387629D01*
X181785672Y-71318353D01*
X181820186Y-71238290D01*
X181852538Y-71167728D01*
X181859952Y-71151889D01*
X181880755Y-71102293D01*
X181893219Y-71064038D01*
X181894863Y-71044356D01*
X181894015Y-71042962D01*
X181880548Y-71022420D01*
X181853850Y-70982516D01*
X181816539Y-70927140D01*
X181771234Y-70860177D01*
X181720552Y-70785517D01*
X181663445Y-70700692D01*
X181620607Y-70634800D01*
X181591460Y-70586478D01*
X181574317Y-70552733D01*
X181567495Y-70530572D01*
X181569306Y-70517002D01*
X181569915Y-70515984D01*
X181586297Y-70496210D01*
X181619695Y-70460175D01*
X181666671Y-70411451D01*
X181723786Y-70353612D01*
X181787603Y-70290227D01*
X181853802Y-70225905D01*
X181918648Y-70165447D01*
X181966299Y-70124655D01*
X181997990Y-70102484D01*
X182014958Y-70097889D01*
X182017175Y-70098921D01*
X182040524Y-70112837D01*
X182082912Y-70140030D01*
X182140369Y-70177889D01*
X182208923Y-70223803D01*
X182284601Y-70275160D01*
X182531298Y-70443626D01*
X182642706Y-70393062D01*
X182645943Y-70391597D01*
X182714343Y-70361965D01*
X182786907Y-70332493D01*
X182848457Y-70309358D01*
X182848729Y-70309262D01*
X182897595Y-70291367D01*
X182935212Y-70276253D01*
X182953457Y-70267184D01*
X182953752Y-70266855D01*
X182959946Y-70248282D01*
X182970139Y-70206045D01*
X182983348Y-70144696D01*
X182998590Y-70068789D01*
X183014881Y-69982875D01*
X183015449Y-69979796D01*
X183031713Y-69892128D01*
X183046608Y-69812741D01*
X183059171Y-69746701D01*
X183068438Y-69699079D01*
X183073444Y-69674943D01*
X183073764Y-69673605D01*
X183077060Y-69663273D01*
X183083738Y-69655506D01*
X183097462Y-69649940D01*
X183121895Y-69646207D01*
X183160702Y-69643942D01*
X183217546Y-69642778D01*
X183296090Y-69642348D01*
X183400000Y-69642286D01*
X183413056Y-69642286D01*
X183513933Y-69642371D01*
G36*
X183513933Y-69642371D02*
G01*
X183589856Y-69642865D01*
X183644491Y-69644135D01*
X183681500Y-69646547D01*
X183704547Y-69650467D01*
X183717296Y-69656262D01*
X183723411Y-69664299D01*
X183726556Y-69674943D01*
X183726646Y-69675325D01*
X183731814Y-69700347D01*
X183741209Y-69748681D01*
X183753867Y-69815260D01*
X183768825Y-69895014D01*
X183785119Y-69982875D01*
X183786448Y-69990064D01*
X183802691Y-70075340D01*
X183817805Y-70150242D01*
X183830808Y-70210219D01*
X183840715Y-70250717D01*
X183846544Y-70267184D01*
X183846575Y-70267210D01*
X183864943Y-70276320D01*
X183902640Y-70291457D01*
X183951543Y-70309358D01*
X183954297Y-70310330D01*
X184016817Y-70333959D01*
X184089543Y-70363595D01*
X184157294Y-70393062D01*
X184268703Y-70443626D01*
X184515399Y-70275160D01*
X184532775Y-70263311D01*
X184607202Y-70212947D01*
X184673614Y-70168612D01*
X184728039Y-70132916D01*
X184766506Y-70108471D01*
X184785042Y-70097889D01*
X184797743Y-70100315D01*
X184826579Y-70119110D01*
X184871143Y-70156330D01*
X184932670Y-70213020D01*
X185012398Y-70290227D01*
X185019532Y-70297255D01*
X185082796Y-70360222D01*
X185138990Y-70417268D01*
X185184677Y-70464817D01*
X185216414Y-70499297D01*
X185230764Y-70517131D01*
X185230810Y-70517217D01*
X185232633Y-70530795D01*
X185225910Y-70552820D01*
X185208946Y-70586304D01*
X185180044Y-70634261D01*
X185137508Y-70699704D01*
X185079644Y-70785645D01*
X185069783Y-70800151D01*
X185019913Y-70873635D01*
X184975905Y-70938687D01*
X184940380Y-70991417D01*
X184915959Y-71027936D01*
X184905264Y-71044356D01*
X184904458Y-71047834D01*
X184909518Y-71073785D01*
X184924677Y-71116159D01*
X184947463Y-71167728D01*
X184978429Y-71235170D01*
X185013004Y-71315195D01*
X185042366Y-71387629D01*
X185049645Y-71406377D01*
X185068710Y-71454246D01*
X185082715Y-71487596D01*
X185089041Y-71500114D01*
X185096025Y-71501050D01*
X185127413Y-71506461D01*
X185178787Y-71515806D01*
X185244802Y-71528069D01*
X185320113Y-71542232D01*
X185399375Y-71557280D01*
X185477243Y-71572195D01*
X185548370Y-71585961D01*
X185607412Y-71597562D01*
X185649022Y-71605980D01*
X185667857Y-71610199D01*
X185670980Y-71611389D01*
X185678591Y-71617805D01*
X185684254Y-71631465D01*
X185688251Y-71655999D01*
X185690866Y-71695038D01*
X185692384Y-71752213D01*
X185693086Y-71831154D01*
X185693257Y-71935492D01*
X185693257Y-72252799D01*
X185617057Y-72267839D01*
X185607840Y-72269642D01*
X185558891Y-72278980D01*
X185491205Y-72291669D01*
X185412478Y-72306273D01*
X185330400Y-72321355D01*
X185298078Y-72327422D01*
X185225855Y-72342181D01*
X185165666Y-72356137D01*
X185123040Y-72367952D01*
X185103510Y-72376287D01*
X185094660Y-72389905D01*
X185078548Y-72425938D01*
X185062065Y-72472572D01*
X185056263Y-72490034D01*
X185034906Y-72547358D01*
X185007359Y-72615201D01*
X184978107Y-72682355D01*
X184962463Y-72717430D01*
X184940174Y-72769822D01*
X184924857Y-72809058D01*
X184919162Y-72828563D01*
X184919478Y-72830036D01*
X184930281Y-72850729D01*
X184954638Y-72890665D01*
X184990081Y-72945972D01*
X185034136Y-73012781D01*
X185084332Y-73087220D01*
X185249501Y-73329623D01*
X185032503Y-73546983D01*
X185011516Y-73567899D01*
X184947342Y-73630505D01*
X184889990Y-73684495D01*
X184842820Y-73726826D01*
X184809192Y-73754457D01*
X184792467Y-73764343D01*
X184774303Y-73756821D01*
X184736265Y-73735227D01*
X184682726Y-73702151D01*
X184617884Y-73660191D01*
X184545940Y-73611943D01*
X184475275Y-73564291D01*
X184411526Y-73522328D01*
X184359513Y-73489165D01*
X184323279Y-73467378D01*
X184306867Y-73459543D01*
X184305905Y-73459614D01*
X184284103Y-73467338D01*
X184245440Y-73485323D01*
X184197612Y-73510013D01*
X184197110Y-73510284D01*
X184133587Y-73542099D01*
X184090060Y-73557642D01*
X184063052Y-73557685D01*
X184049090Y-73543000D01*
X184043180Y-73528544D01*
X184027229Y-73489831D01*
X184002660Y-73430316D01*
X183970779Y-73353165D01*
X183932893Y-73261541D01*
X183890310Y-73158607D01*
X183844337Y-73047526D01*
X183802667Y-72946472D01*
X183760268Y-72842780D01*
X183722756Y-72750119D01*
X183691388Y-72671642D01*
X183667425Y-72610500D01*
X183652123Y-72569843D01*
X183646743Y-72552825D01*
X183657018Y-72537219D01*
X183685563Y-72511162D01*
X183725971Y-72480887D01*
X183822979Y-72401684D01*
X183909793Y-72300475D01*
X183973322Y-72189116D01*
X184013177Y-72070893D01*
X184028965Y-71949095D01*
X184020296Y-71827010D01*
X183986778Y-71707925D01*
X183928021Y-71595129D01*
X183843632Y-71491911D01*
X183799631Y-71451713D01*
X183694211Y-71380638D01*
X183581410Y-71334301D01*
X183464525Y-71311599D01*
X183346853Y-71311428D01*
X183231690Y-71332687D01*
X183122335Y-71374270D01*
X183022083Y-71435076D01*
X182934233Y-71514001D01*
X182862080Y-71609941D01*
X182808922Y-71721795D01*
X182778057Y-71848457D01*
X182772392Y-71909507D01*
X182780185Y-72041776D01*
X182815284Y-72167266D01*
X182876649Y-72283759D01*
X182963243Y-72389039D01*
X183074029Y-72480887D01*
X183112931Y-72509930D01*
X183142104Y-72536272D01*
X183153257Y-72552800D01*
X183148810Y-72567209D01*
X183134378Y-72605815D01*
X183111173Y-72665201D01*
X183080452Y-72742215D01*
X183043474Y-72833703D01*
X183001496Y-72936516D01*
X182955778Y-73047502D01*
X182914178Y-73148072D01*
X182871222Y-73251947D01*
X182832829Y-73344819D01*
X182800305Y-73423525D01*
X182774958Y-73484899D01*
X182758095Y-73525779D01*
X182751025Y-73543000D01*
X182750943Y-73543204D01*
X182736798Y-73557745D01*
X182709659Y-73557579D01*
X182666023Y-73541927D01*
X182602388Y-73510013D01*
X182597379Y-73507326D01*
X182550125Y-73483150D01*
X182512811Y-73466037D01*
X182493133Y-73459543D01*
X182477005Y-73467218D01*
X182440959Y-73488871D01*
X182389092Y-73521928D01*
X182325445Y-73563810D01*
X182254060Y-73611943D01*
X182183724Y-73659131D01*
X182118670Y-73701267D01*
X182064820Y-73734578D01*
X182026374Y-73756469D01*
X182007534Y-73764343D01*
X182004325Y-73763343D01*
X181981954Y-73747584D01*
X181943733Y-73715033D01*
X181893021Y-73668733D01*
X181833181Y-73611726D01*
X181767571Y-73547058D01*
X181550648Y-73329772D01*
X181719601Y-73081253D01*
X181888553Y-72832733D01*
X181837183Y-72721595D01*
X181837031Y-72721266D01*
X181806183Y-72650418D01*
X181774661Y-72571523D01*
X181749266Y-72501600D01*
X181745423Y-72490322D01*
X181726047Y-72437967D01*
X181708574Y-72397283D01*
X181696388Y-72376287D01*
X181691426Y-72373322D01*
X181661634Y-72363375D01*
X181611047Y-72350505D01*
X181545194Y-72336053D01*
X181469600Y-72321355D01*
X181446957Y-72317210D01*
X181365038Y-72302116D01*
X181288600Y-72287899D01*
X181225337Y-72275995D01*
X181182943Y-72267839D01*
X181106743Y-72252799D01*
X181106743Y-71935492D01*
X181106760Y-71896476D01*
X181107082Y-71801292D01*
X181108033Y-71730255D01*
X181109896Y-71679734D01*
X181112955Y-71646098D01*
X181117494Y-71625718D01*
X181123795Y-71614962D01*
X181132143Y-71610199D01*
X181140224Y-71608270D01*
X181173172Y-71601445D01*
X181225736Y-71591022D01*
X181292569Y-71578018D01*
X181368328Y-71563449D01*
X181447665Y-71548333D01*
X181525237Y-71533685D01*
X181595698Y-71520523D01*
X181653702Y-71509863D01*
X181693904Y-71502721D01*
X181710959Y-71500114D01*
X181712112Y-71498541D01*
X181721385Y-71478119D01*
X181737432Y-71439045D01*
X181757635Y-71387629D01*
X181785672Y-71318353D01*
X181820186Y-71238290D01*
X181852538Y-71167728D01*
X181859952Y-71151889D01*
X181880755Y-71102293D01*
X181893219Y-71064038D01*
X181894863Y-71044356D01*
X181894015Y-71042962D01*
X181880548Y-71022420D01*
X181853850Y-70982516D01*
X181816539Y-70927140D01*
X181771234Y-70860177D01*
X181720552Y-70785517D01*
X181663445Y-70700692D01*
X181620607Y-70634800D01*
X181591460Y-70586478D01*
X181574317Y-70552733D01*
X181567495Y-70530572D01*
X181569306Y-70517002D01*
X181569915Y-70515984D01*
X181586297Y-70496210D01*
X181619695Y-70460175D01*
X181666671Y-70411451D01*
X181723786Y-70353612D01*
X181787603Y-70290227D01*
X181853802Y-70225905D01*
X181918648Y-70165447D01*
X181966299Y-70124655D01*
X181997990Y-70102484D01*
X182014958Y-70097889D01*
X182017175Y-70098921D01*
X182040524Y-70112837D01*
X182082912Y-70140030D01*
X182140369Y-70177889D01*
X182208923Y-70223803D01*
X182284601Y-70275160D01*
X182531298Y-70443626D01*
X182642706Y-70393062D01*
X182645943Y-70391597D01*
X182714343Y-70361965D01*
X182786907Y-70332493D01*
X182848457Y-70309358D01*
X182848729Y-70309262D01*
X182897595Y-70291367D01*
X182935212Y-70276253D01*
X182953457Y-70267184D01*
X182953752Y-70266855D01*
X182959946Y-70248282D01*
X182970139Y-70206045D01*
X182983348Y-70144696D01*
X182998590Y-70068789D01*
X183014881Y-69982875D01*
X183015449Y-69979796D01*
X183031713Y-69892128D01*
X183046608Y-69812741D01*
X183059171Y-69746701D01*
X183068438Y-69699079D01*
X183073444Y-69674943D01*
X183073764Y-69673605D01*
X183077060Y-69663273D01*
X183083738Y-69655506D01*
X183097462Y-69649940D01*
X183121895Y-69646207D01*
X183160702Y-69643942D01*
X183217546Y-69642778D01*
X183296090Y-69642348D01*
X183400000Y-69642286D01*
X183413056Y-69642286D01*
X183513933Y-69642371D01*
G37*
D12*
%TO.C,G\u002A\u002A\u002A*%
G36*
X195029825Y-80063255D02*
G01*
X195017447Y-80075633D01*
X195005069Y-80063255D01*
X195017447Y-80050876D01*
X195029825Y-80063255D01*
G37*
G36*
X195500196Y-78454093D02*
G01*
X195487818Y-78466471D01*
X195475440Y-78454093D01*
X195487818Y-78441715D01*
X195500196Y-78454093D01*
G37*
G36*
X195599221Y-78899707D02*
G01*
X195586843Y-78912085D01*
X195574465Y-78899707D01*
X195586843Y-78887329D01*
X195599221Y-78899707D01*
G37*
G36*
X195623978Y-77909453D02*
G01*
X195611599Y-77921832D01*
X195599221Y-77909453D01*
X195611599Y-77897075D01*
X195623978Y-77909453D01*
G37*
G36*
X195648734Y-77835184D02*
G01*
X195636356Y-77847562D01*
X195623978Y-77835184D01*
X195636356Y-77822806D01*
X195648734Y-77835184D01*
G37*
G36*
X195648734Y-81771442D02*
G01*
X195636356Y-81783820D01*
X195623978Y-81771442D01*
X195636356Y-81759063D01*
X195648734Y-81771442D01*
G37*
G36*
X195896297Y-76919200D02*
G01*
X195883919Y-76931578D01*
X195871541Y-76919200D01*
X195883919Y-76906822D01*
X195896297Y-76919200D01*
G37*
G36*
X195896297Y-77364814D02*
G01*
X195883919Y-77377192D01*
X195871541Y-77364814D01*
X195883919Y-77352436D01*
X195896297Y-77364814D01*
G37*
G36*
X196861794Y-73849414D02*
G01*
X196849416Y-73861793D01*
X196837038Y-73849414D01*
X196849416Y-73837036D01*
X196861794Y-73849414D01*
G37*
G36*
X196861794Y-74938693D02*
G01*
X196849416Y-74951071D01*
X196837038Y-74938693D01*
X196849416Y-74926315D01*
X196861794Y-74938693D01*
G37*
G36*
X196960820Y-73626607D02*
G01*
X196948441Y-73638985D01*
X196936063Y-73626607D01*
X196948441Y-73614229D01*
X196960820Y-73626607D01*
G37*
G36*
X197134114Y-73428557D02*
G01*
X197121736Y-73440935D01*
X197109358Y-73428557D01*
X197121736Y-73416178D01*
X197134114Y-73428557D01*
G37*
G36*
X198322418Y-72562085D02*
G01*
X198310040Y-72574463D01*
X198297662Y-72562085D01*
X198310040Y-72549707D01*
X198322418Y-72562085D01*
G37*
G36*
X201961599Y-77340058D02*
G01*
X201949221Y-77352436D01*
X201936843Y-77340058D01*
X201949221Y-77327679D01*
X201961599Y-77340058D01*
G37*
G36*
X201961599Y-78627387D02*
G01*
X201949221Y-78639765D01*
X201936843Y-78627387D01*
X201949221Y-78615009D01*
X201961599Y-78627387D01*
G37*
G36*
X202060625Y-77092494D02*
G01*
X202048247Y-77104872D01*
X202035868Y-77092494D01*
X202048247Y-77080116D01*
X202060625Y-77092494D01*
G37*
G36*
X205798831Y-78874950D02*
G01*
X205786453Y-78887329D01*
X205774075Y-78874950D01*
X205786453Y-78862572D01*
X205798831Y-78874950D01*
G37*
G36*
X195524952Y-78639765D02*
G01*
X195523166Y-78652871D01*
X195508448Y-78656269D01*
X195505485Y-78652641D01*
X195508448Y-78623261D01*
X195515894Y-78619388D01*
X195524952Y-78639765D01*
G37*
G36*
X195549709Y-78738791D02*
G01*
X195547922Y-78751896D01*
X195533204Y-78755295D01*
X195530241Y-78751666D01*
X195533204Y-78722286D01*
X195540651Y-78718413D01*
X195549709Y-78738791D01*
G37*
G36*
X195572510Y-78055928D02*
G01*
X195570760Y-78081038D01*
X195559508Y-78088421D01*
X195554602Y-78079663D01*
X195557553Y-78040971D01*
X195566464Y-78029512D01*
X195572510Y-78055928D01*
G37*
G36*
X195574465Y-78813060D02*
G01*
X195572678Y-78826165D01*
X195557961Y-78829564D01*
X195554998Y-78825935D01*
X195557961Y-78796555D01*
X195565407Y-78792682D01*
X195574465Y-78813060D01*
G37*
G36*
X195599221Y-77971344D02*
G01*
X195597435Y-77984450D01*
X195582717Y-77987848D01*
X195579754Y-77984220D01*
X195582717Y-77954840D01*
X195590163Y-77950967D01*
X195599221Y-77971344D01*
G37*
G36*
X195623978Y-81684794D02*
G01*
X195622191Y-81697900D01*
X195607473Y-81701299D01*
X195604510Y-81697670D01*
X195607473Y-81668290D01*
X195614920Y-81664417D01*
X195623978Y-81684794D01*
G37*
G36*
X195772516Y-82130409D02*
G01*
X195770729Y-82143514D01*
X195756011Y-82146913D01*
X195753048Y-82143284D01*
X195756011Y-82113904D01*
X195763458Y-82110031D01*
X195772516Y-82130409D01*
G37*
G36*
X196886551Y-73787524D02*
G01*
X196884764Y-73800629D01*
X196870046Y-73804028D01*
X196867084Y-73800399D01*
X196870046Y-73771019D01*
X196877493Y-73767146D01*
X196886551Y-73787524D01*
G37*
G36*
X198858805Y-71122091D02*
G01*
X198862678Y-71129538D01*
X198842301Y-71138596D01*
X198829195Y-71136809D01*
X198825797Y-71122091D01*
X198829425Y-71119129D01*
X198858805Y-71122091D01*
G37*
G36*
X201837818Y-78243664D02*
G01*
X201836031Y-78256770D01*
X201821313Y-78260168D01*
X201818351Y-78256540D01*
X201821313Y-78227160D01*
X201828760Y-78223287D01*
X201837818Y-78243664D01*
G37*
G36*
X201887330Y-78392202D02*
G01*
X201885544Y-78405308D01*
X201870826Y-78408706D01*
X201867863Y-78405078D01*
X201870826Y-78375698D01*
X201878272Y-78371825D01*
X201887330Y-78392202D01*
G37*
G36*
X201912087Y-78466471D02*
G01*
X201910300Y-78479577D01*
X201895582Y-78482975D01*
X201892620Y-78479347D01*
X201895582Y-78449967D01*
X201903029Y-78446094D01*
X201912087Y-78466471D01*
G37*
G36*
X201934889Y-78551055D02*
G01*
X201933138Y-78576164D01*
X201921886Y-78583548D01*
X201916980Y-78574789D01*
X201919932Y-78536098D01*
X201928843Y-78524639D01*
X201934889Y-78551055D01*
G37*
G36*
X201986356Y-78714034D02*
G01*
X201984569Y-78727140D01*
X201969851Y-78730538D01*
X201966889Y-78726910D01*
X201969851Y-78697530D01*
X201977298Y-78693657D01*
X201986356Y-78714034D01*
G37*
G36*
X202011112Y-78813060D02*
G01*
X202009325Y-78826165D01*
X201994608Y-78829564D01*
X201991645Y-78825935D01*
X201994608Y-78796555D01*
X202002054Y-78792682D01*
X202011112Y-78813060D01*
G37*
G36*
X202031959Y-78986354D02*
G01*
X202028509Y-79020409D01*
X202019473Y-79017299D01*
X202016203Y-79006093D01*
X202019473Y-78955409D01*
X202028069Y-78951209D01*
X202031959Y-78986354D01*
G37*
G36*
X202233919Y-76634502D02*
G01*
X202232132Y-76647608D01*
X202217415Y-76651006D01*
X202214452Y-76647378D01*
X202217415Y-76617998D01*
X202224861Y-76614125D01*
X202233919Y-76634502D01*
G37*
G36*
X202256721Y-76521036D02*
G01*
X202254970Y-76546145D01*
X202243718Y-76553528D01*
X202238813Y-76544770D01*
X202241764Y-76506079D01*
X202250675Y-76494620D01*
X202256721Y-76521036D01*
G37*
G36*
X202759991Y-83846956D02*
G01*
X202764191Y-83855553D01*
X202729046Y-83859443D01*
X202694990Y-83855992D01*
X202698100Y-83846956D01*
X202709306Y-83843687D01*
X202759991Y-83846956D01*
G37*
G36*
X202908529Y-83871713D02*
G01*
X202912729Y-83880309D01*
X202877584Y-83884199D01*
X202843528Y-83880749D01*
X202846638Y-83871713D01*
X202857844Y-83868443D01*
X202908529Y-83871713D01*
G37*
G36*
X203017870Y-83896360D02*
G01*
X203021743Y-83903807D01*
X203001365Y-83912865D01*
X202988260Y-83911078D01*
X202984861Y-83896360D01*
X202988490Y-83893398D01*
X203017870Y-83896360D01*
G37*
G36*
X203092139Y-83921117D02*
G01*
X203096012Y-83928563D01*
X203075634Y-83937621D01*
X203062529Y-83935834D01*
X203059130Y-83921117D01*
X203062759Y-83918154D01*
X203092139Y-83921117D01*
G37*
G36*
X204608573Y-74788092D02*
G01*
X204606822Y-74813201D01*
X204595570Y-74820585D01*
X204590665Y-74811826D01*
X204593616Y-74773135D01*
X204602527Y-74761676D01*
X204608573Y-74788092D01*
G37*
G36*
X195857571Y-77433962D02*
G01*
X195845225Y-77457065D01*
X195826809Y-77464494D01*
X195824158Y-77452562D01*
X195843713Y-77420103D01*
X195846973Y-77416904D01*
X195865108Y-77405039D01*
X195857571Y-77433962D01*
G37*
G36*
X196922093Y-73695755D02*
G01*
X196909747Y-73718858D01*
X196891332Y-73726288D01*
X196888680Y-73714355D01*
X196908235Y-73681896D01*
X196911495Y-73678698D01*
X196929631Y-73666833D01*
X196922093Y-73695755D01*
G37*
G36*
X197049831Y-73511379D02*
G01*
X197046542Y-73516418D01*
X197022081Y-73539218D01*
X197010332Y-73529043D01*
X197012545Y-73523475D01*
X197038914Y-73500462D01*
X197052749Y-73494438D01*
X197049831Y-73511379D01*
G37*
G36*
X201935433Y-77391118D02*
G01*
X201921406Y-77438126D01*
X201911268Y-77457938D01*
X201894381Y-77466764D01*
X201892663Y-77451017D01*
X201909065Y-77409994D01*
X201929674Y-77381739D01*
X201935433Y-77391118D01*
G37*
G36*
X202108727Y-76970260D02*
G01*
X202094701Y-77017268D01*
X202084562Y-77037080D01*
X202067675Y-77045906D01*
X202065958Y-77030159D01*
X202082359Y-76989137D01*
X202102968Y-76960882D01*
X202108727Y-76970260D01*
G37*
G36*
X194961746Y-79973450D02*
G01*
X194988151Y-79996108D01*
X195005069Y-80016773D01*
X195004663Y-80021117D01*
X194988533Y-80021285D01*
X194952399Y-79982796D01*
X194938569Y-79964859D01*
X194932422Y-79952039D01*
X194961746Y-79973450D01*
G37*
G36*
X195544289Y-78152948D02*
G01*
X195535562Y-78204761D01*
X195521126Y-78247462D01*
X195508396Y-78260116D01*
X195505615Y-78235354D01*
X195514342Y-78183541D01*
X195528778Y-78140841D01*
X195541508Y-78128186D01*
X195544289Y-78152948D01*
G37*
G36*
X195662543Y-81141269D02*
G01*
X195685868Y-81164911D01*
X195690480Y-81173676D01*
X195688790Y-81189668D01*
X195684438Y-81188554D01*
X195661112Y-81164911D01*
X195656501Y-81156146D01*
X195658190Y-81140155D01*
X195662543Y-81141269D01*
G37*
G36*
X196778851Y-74501426D02*
G01*
X196780783Y-74554970D01*
X196780060Y-74591300D01*
X196776176Y-74622403D01*
X196770054Y-74610672D01*
X196765958Y-74571408D01*
X196770054Y-74499268D01*
X196773914Y-74486727D01*
X196778851Y-74501426D01*
G37*
G36*
X196782699Y-74220759D02*
G01*
X196782733Y-74226622D01*
X196779414Y-74265377D01*
X196771287Y-74264554D01*
X196766745Y-74244212D01*
X196770369Y-74190285D01*
X196771594Y-74186029D01*
X196779129Y-74182363D01*
X196782699Y-74220759D01*
G37*
G36*
X195736614Y-77640867D02*
G01*
X195706188Y-77710252D01*
X195697077Y-77728660D01*
X195670374Y-77774211D01*
X195654885Y-77787697D01*
X195654136Y-77781462D01*
X195666878Y-77742619D01*
X195695362Y-77682793D01*
X195703831Y-77666990D01*
X195734327Y-77616426D01*
X195745625Y-77608655D01*
X195736614Y-77640867D01*
G37*
G36*
X195661403Y-81832789D02*
G01*
X195681959Y-81882845D01*
X195684018Y-81888137D01*
X195711531Y-81965161D01*
X195731589Y-82031383D01*
X195737195Y-82056692D01*
X195732883Y-82058829D01*
X195711708Y-82016271D01*
X195683277Y-81943282D01*
X195662078Y-81867733D01*
X195661536Y-81864975D01*
X195655393Y-81827438D01*
X195661403Y-81832789D01*
G37*
G36*
X198664805Y-72356516D02*
G01*
X198661048Y-72376300D01*
X198614106Y-72409657D01*
X198525902Y-72454799D01*
X198431008Y-72497228D01*
X198376065Y-72517391D01*
X198364028Y-72514127D01*
X198395181Y-72487525D01*
X198469809Y-72437670D01*
X198537419Y-72397038D01*
X198600507Y-72364237D01*
X198636914Y-72351656D01*
X198664805Y-72356516D01*
G37*
G36*
X201800890Y-77826275D02*
G01*
X201803213Y-77882458D01*
X201804010Y-77983722D01*
X201803966Y-78080468D01*
X201802574Y-78140315D01*
X201798893Y-78158582D01*
X201792008Y-78139377D01*
X201781000Y-78086805D01*
X201770147Y-77989575D01*
X201780423Y-77863998D01*
X201788177Y-77831452D01*
X201796169Y-77810749D01*
X201800890Y-77826275D01*
G37*
G36*
X200110156Y-72432894D02*
G01*
X200129631Y-72460056D01*
X200129756Y-72462084D01*
X200153189Y-72494566D01*
X200204846Y-72525342D01*
X200236856Y-72545294D01*
X200292611Y-72599428D01*
X200346311Y-72668258D01*
X200386193Y-72736050D01*
X200400494Y-72787067D01*
X200392694Y-72790798D01*
X200369549Y-72763643D01*
X200357955Y-72745815D01*
X200289829Y-72656015D01*
X200215538Y-72591799D01*
X200115013Y-72535149D01*
X200044912Y-72497704D01*
X200006643Y-72467117D01*
X200010392Y-72447350D01*
X200010940Y-72447004D01*
X200064306Y-72427874D01*
X200110156Y-72432894D01*
G37*
G36*
X197507243Y-78072802D02*
G01*
X197586253Y-78105966D01*
X197655039Y-78133884D01*
X197800697Y-78184013D01*
X197972872Y-78235280D01*
X198157523Y-78283853D01*
X198340610Y-78325899D01*
X198508091Y-78357586D01*
X198540105Y-78362462D01*
X198668793Y-78378220D01*
X198824860Y-78393127D01*
X198991462Y-78405695D01*
X199151755Y-78414437D01*
X199547857Y-78430992D01*
X199325050Y-78449932D01*
X199283447Y-78453512D01*
X199178827Y-78462884D01*
X199092643Y-78471106D01*
X199040352Y-78476724D01*
X199005951Y-78479598D01*
X198896771Y-78479378D01*
X198757055Y-78470457D01*
X198599305Y-78454039D01*
X198436023Y-78431327D01*
X198279709Y-78403523D01*
X198192993Y-78384931D01*
X198041027Y-78343933D01*
X197898429Y-78291017D01*
X197740443Y-78217649D01*
X197663573Y-78178807D01*
X197568776Y-78128596D01*
X197502749Y-78090720D01*
X197468487Y-78067349D01*
X197468987Y-78060653D01*
X197507243Y-78072802D01*
G37*
G36*
X202803315Y-75667555D02*
G01*
X202732266Y-75728608D01*
X202637540Y-75803577D01*
X202536020Y-75879158D01*
X202438910Y-75947268D01*
X202357411Y-75999824D01*
X202302728Y-76028743D01*
X202289513Y-76038788D01*
X202277001Y-76073355D01*
X202271967Y-76139333D01*
X202273198Y-76245644D01*
X202275332Y-76318572D01*
X202276476Y-76379193D01*
X202275080Y-76394074D01*
X202270691Y-76365390D01*
X202262854Y-76295321D01*
X202252344Y-76222910D01*
X202235698Y-76152082D01*
X202218448Y-76113983D01*
X202199391Y-76106309D01*
X202152382Y-76112078D01*
X202074228Y-76137145D01*
X201958506Y-76183220D01*
X201910415Y-76203052D01*
X201783932Y-76253176D01*
X201660922Y-76299516D01*
X201562348Y-76334088D01*
X201480530Y-76362083D01*
X201358815Y-76406606D01*
X201252894Y-76448258D01*
X201181990Y-76475962D01*
X201111729Y-76499535D01*
X201070371Y-76508580D01*
X201065342Y-76508210D01*
X201067729Y-76495933D01*
X201114257Y-76466915D01*
X201203210Y-76422032D01*
X201332873Y-76362163D01*
X201501528Y-76288184D01*
X201737965Y-76183806D01*
X201975378Y-76073942D01*
X202200429Y-75964894D01*
X202404644Y-75860869D01*
X202579549Y-75766077D01*
X202716668Y-75684727D01*
X202939475Y-75543346D01*
X202803315Y-75667555D01*
G37*
G36*
X199659473Y-71008142D02*
G01*
X199754544Y-71012520D01*
X199825574Y-71021748D01*
X199884161Y-71037210D01*
X199941899Y-71060291D01*
X200063622Y-71114709D01*
X200118994Y-71062691D01*
X200150575Y-71035155D01*
X200176779Y-71026645D01*
X200196657Y-71050505D01*
X200202772Y-71058250D01*
X200235626Y-71076242D01*
X200298338Y-71092610D01*
X200397436Y-71108795D01*
X200539445Y-71126239D01*
X200743977Y-71152164D01*
X200912005Y-71181118D01*
X201052912Y-71215652D01*
X201177940Y-71258525D01*
X201298331Y-71312497D01*
X201368300Y-71349930D01*
X201456130Y-71402161D01*
X201542539Y-71457843D01*
X201617131Y-71509979D01*
X201669510Y-71551572D01*
X201689280Y-71575626D01*
X201688816Y-71576690D01*
X201666556Y-71568355D01*
X201621200Y-71539145D01*
X201534283Y-71484371D01*
X201396835Y-71412305D01*
X201241812Y-71342316D01*
X201086102Y-71281925D01*
X200946590Y-71238653D01*
X200805156Y-71209548D01*
X200624796Y-71185188D01*
X200434523Y-71170533D01*
X200132885Y-71156289D01*
X200055084Y-71234090D01*
X200006561Y-71281302D01*
X199973317Y-71306437D01*
X199959246Y-71300037D01*
X199956336Y-71264578D01*
X199956184Y-71260721D01*
X199931707Y-71207162D01*
X199875106Y-71150866D01*
X199800347Y-71103097D01*
X199721396Y-71075117D01*
X199697537Y-71072176D01*
X199618855Y-71068779D01*
X199509807Y-71068435D01*
X199383096Y-71070752D01*
X199251426Y-71075337D01*
X199127502Y-71081800D01*
X199024027Y-71089749D01*
X198953705Y-71098791D01*
X198950647Y-71099353D01*
X198937013Y-71098399D01*
X198964567Y-71084670D01*
X199027974Y-71060890D01*
X199071784Y-71046594D01*
X199149069Y-71027817D01*
X199237389Y-71015987D01*
X199349546Y-71009646D01*
X199498344Y-71007337D01*
X199528765Y-71007230D01*
X199659473Y-71008142D01*
G37*
G36*
X205827901Y-78960192D02*
G01*
X205846340Y-79017671D01*
X205867149Y-79101466D01*
X205887941Y-79201223D01*
X205906333Y-79306589D01*
X205919939Y-79407212D01*
X205920483Y-79412240D01*
X205930384Y-79604516D01*
X205922394Y-79805295D01*
X205898038Y-79995845D01*
X205858841Y-80157437D01*
X205837188Y-80219582D01*
X205714793Y-80486153D01*
X205550307Y-80742525D01*
X205349759Y-80980275D01*
X205119177Y-81190980D01*
X205065942Y-81236209D01*
X205003471Y-81303327D01*
X204981872Y-81352549D01*
X204979995Y-81383714D01*
X204962579Y-81481533D01*
X204931008Y-81600970D01*
X204890339Y-81725868D01*
X204845629Y-81840071D01*
X204801935Y-81927424D01*
X204724624Y-82039338D01*
X204585768Y-82191056D01*
X204426497Y-82319786D01*
X204255903Y-82419557D01*
X204083081Y-82484399D01*
X203917124Y-82508342D01*
X203846444Y-82511715D01*
X203747720Y-82523971D01*
X203672759Y-82541824D01*
X203656108Y-82547748D01*
X203601476Y-82566736D01*
X203575721Y-82574936D01*
X203575282Y-82574988D01*
X203541978Y-82563545D01*
X203488850Y-82533856D01*
X203434823Y-82497549D01*
X203398822Y-82466251D01*
X203397566Y-82464805D01*
X203348715Y-82438099D01*
X203276843Y-82427392D01*
X203259327Y-82426827D01*
X203148491Y-82398506D01*
X203054220Y-82334409D01*
X202991587Y-82244215D01*
X202944915Y-82172558D01*
X202879953Y-82119256D01*
X202878026Y-82118240D01*
X202813080Y-82067064D01*
X202762085Y-82000019D01*
X202751579Y-81976604D01*
X202725853Y-81877112D01*
X202711185Y-81749237D01*
X202708113Y-81608148D01*
X202717175Y-81469016D01*
X202738910Y-81347010D01*
X202757356Y-81273343D01*
X202772675Y-81205486D01*
X202778558Y-81169799D01*
X202777436Y-81165241D01*
X202755158Y-81131423D01*
X202712261Y-81080033D01*
X202659220Y-81022181D01*
X202606512Y-80968980D01*
X202564611Y-80931541D01*
X202543992Y-80920976D01*
X202535206Y-80942061D01*
X202512929Y-81003236D01*
X202480041Y-81096802D01*
X202439220Y-81215127D01*
X202393145Y-81350584D01*
X202367674Y-81425313D01*
X202317870Y-81567787D01*
X202271792Y-81695121D01*
X202231510Y-81802038D01*
X202199096Y-81883259D01*
X202176619Y-81933509D01*
X202166150Y-81947508D01*
X202169760Y-81919980D01*
X202174190Y-81903823D01*
X202193201Y-81842726D01*
X202223613Y-81749238D01*
X202262354Y-81632747D01*
X202306351Y-81502640D01*
X202324682Y-81448106D01*
X202370288Y-81306046D01*
X202410740Y-81171443D01*
X202442200Y-81057353D01*
X202460834Y-80976831D01*
X202489944Y-80818850D01*
X202387350Y-80601968D01*
X202335594Y-80486842D01*
X202282000Y-80345734D01*
X202240088Y-80200533D01*
X202205642Y-80036103D01*
X202174449Y-79837307D01*
X202153790Y-79711796D01*
X202119684Y-79570563D01*
X202080470Y-79472372D01*
X202037197Y-79420411D01*
X202032414Y-79416808D01*
X201999602Y-79381136D01*
X201958072Y-79326005D01*
X201949842Y-79314119D01*
X201922801Y-79272968D01*
X201923978Y-79266363D01*
X201952679Y-79289619D01*
X201990058Y-79318380D01*
X202019250Y-79332943D01*
X202026727Y-79318762D01*
X202034486Y-79267090D01*
X202038547Y-79190594D01*
X202041225Y-79048245D01*
X202074379Y-79229811D01*
X202076339Y-79240378D01*
X202095809Y-79331409D01*
X202115437Y-79402927D01*
X202131251Y-79440240D01*
X202138457Y-79454926D01*
X202158375Y-79512547D01*
X202185965Y-79603990D01*
X202218593Y-79720376D01*
X202253626Y-79852826D01*
X202316205Y-80077148D01*
X202389220Y-80290133D01*
X202469625Y-80472347D01*
X202561847Y-80633682D01*
X202670313Y-80784035D01*
X202733396Y-80861264D01*
X202794650Y-80926872D01*
X202837466Y-80953882D01*
X202864929Y-80940129D01*
X202880123Y-80883449D01*
X202886133Y-80781678D01*
X202886044Y-80632650D01*
X202885439Y-80578154D01*
X202884943Y-80470276D01*
X202886285Y-80406774D01*
X202889842Y-80383959D01*
X202895990Y-80398142D01*
X202905105Y-80445632D01*
X202916831Y-80499926D01*
X202950698Y-80612264D01*
X202991802Y-80715136D01*
X203055520Y-80849825D01*
X202968477Y-81038314D01*
X202952742Y-81073440D01*
X202893038Y-81227489D01*
X202843437Y-81388098D01*
X202807039Y-81542603D01*
X202786945Y-81678337D01*
X202786256Y-81782634D01*
X202792629Y-81828206D01*
X202814434Y-81926769D01*
X202840907Y-81995211D01*
X202868199Y-82030091D01*
X202892459Y-82027971D01*
X202909838Y-81985412D01*
X202916487Y-81898974D01*
X202927375Y-81785308D01*
X202965115Y-81694734D01*
X203013744Y-81622904D01*
X203026122Y-81895223D01*
X203034098Y-82023188D01*
X203048634Y-82136781D01*
X203070952Y-82215884D01*
X203103488Y-82268604D01*
X203148677Y-82303047D01*
X203187528Y-82318472D01*
X203233389Y-82310681D01*
X203263489Y-82260860D01*
X203280999Y-82165721D01*
X203288370Y-82117429D01*
X203314321Y-82020702D01*
X203348231Y-81944288D01*
X203354929Y-81933788D01*
X203394075Y-81884194D01*
X203426045Y-81859485D01*
X203442415Y-81863834D01*
X203434765Y-81901412D01*
X203433647Y-81904209D01*
X203403300Y-82011058D01*
X203386689Y-82132609D01*
X203385378Y-82248644D01*
X203400930Y-82338943D01*
X203402239Y-82342664D01*
X203432567Y-82407553D01*
X203463233Y-82443196D01*
X203486966Y-82444469D01*
X203496492Y-82406252D01*
X203496492Y-82406231D01*
X203508248Y-82354877D01*
X203535882Y-82341356D01*
X203567970Y-82371262D01*
X203585151Y-82395677D01*
X203611567Y-82400930D01*
X203660492Y-82377972D01*
X203690270Y-82357476D01*
X203728688Y-82304372D01*
X203755981Y-82217056D01*
X203766249Y-82176732D01*
X203805907Y-82070123D01*
X203854782Y-81989913D01*
X203906457Y-81947592D01*
X203910740Y-81945953D01*
X203933194Y-81939618D01*
X203938488Y-81950196D01*
X203925508Y-81987069D01*
X203893137Y-82059625D01*
X203865927Y-82134704D01*
X203847696Y-82222520D01*
X203843665Y-82300609D01*
X203854337Y-82356563D01*
X203880215Y-82377972D01*
X203902746Y-82367929D01*
X203917350Y-82324622D01*
X203918400Y-82295866D01*
X203929762Y-82286014D01*
X203964089Y-82313571D01*
X203970802Y-82319533D01*
X203998153Y-82337595D01*
X204030626Y-82340153D01*
X204081673Y-82325849D01*
X204164746Y-82293327D01*
X204293822Y-82231722D01*
X204488067Y-82096240D01*
X204651897Y-81922145D01*
X204783923Y-81710745D01*
X204803876Y-81665305D01*
X204835145Y-81548108D01*
X204852253Y-81395102D01*
X204854663Y-81358149D01*
X204862490Y-81270134D01*
X204872714Y-81219073D01*
X204888078Y-81195430D01*
X204911324Y-81189668D01*
X204936939Y-81180637D01*
X204995393Y-81139868D01*
X205073450Y-81072657D01*
X205164280Y-80986054D01*
X205261052Y-80887107D01*
X205356938Y-80782867D01*
X205445106Y-80680381D01*
X205518727Y-80586698D01*
X205570971Y-80508869D01*
X205600724Y-80455823D01*
X205725029Y-80174430D01*
X205804335Y-79873153D01*
X205838732Y-79551546D01*
X205828308Y-79209161D01*
X205821045Y-79125927D01*
X205814247Y-79032506D01*
X205811156Y-78967115D01*
X205812401Y-78940369D01*
X205814215Y-78939380D01*
X205827901Y-78960192D01*
G37*
G36*
X198622245Y-71689309D02*
G01*
X198563414Y-71755771D01*
X198542658Y-71782169D01*
X198493351Y-71866823D01*
X198469492Y-71946087D01*
X198473209Y-72009117D01*
X198506631Y-72045067D01*
X198524938Y-72043074D01*
X198583030Y-72022750D01*
X198671023Y-71984922D01*
X198780788Y-71933151D01*
X198904193Y-71870996D01*
X198988561Y-71827737D01*
X199104016Y-71770313D01*
X199200348Y-71724512D01*
X199269352Y-71694198D01*
X199302825Y-71683235D01*
X199314374Y-71681326D01*
X199331713Y-71654992D01*
X199332310Y-71590399D01*
X199330721Y-71559571D01*
X199337510Y-71511466D01*
X199362184Y-71497562D01*
X199388631Y-71513656D01*
X199397347Y-71571832D01*
X199403992Y-71632734D01*
X199438685Y-71671470D01*
X199510722Y-71683495D01*
X199560902Y-71691240D01*
X199642058Y-71712432D01*
X199733529Y-71742198D01*
X199897523Y-71801390D01*
X200043088Y-71855126D01*
X200151454Y-71896904D01*
X200227773Y-71928787D01*
X200277196Y-71952838D01*
X200304874Y-71971121D01*
X200326071Y-71988174D01*
X200355772Y-72000518D01*
X200371679Y-71980233D01*
X200376219Y-71921836D01*
X200371818Y-71819841D01*
X200367410Y-71727720D01*
X200369991Y-71662509D01*
X200382172Y-71621889D01*
X200405878Y-71593033D01*
X200435928Y-71568409D01*
X200444994Y-71576386D01*
X200436925Y-71625956D01*
X200432075Y-71683774D01*
X200435686Y-71785716D01*
X200447900Y-71905569D01*
X200466511Y-72026733D01*
X200489311Y-72132609D01*
X200514096Y-72206598D01*
X200551548Y-72264615D01*
X200618256Y-72332024D01*
X200692191Y-72381769D01*
X200757489Y-72401169D01*
X200770900Y-72400446D01*
X200852536Y-72373832D01*
X200934308Y-72317950D01*
X200997105Y-72245240D01*
X201000978Y-72237529D01*
X201100283Y-72237529D01*
X201100437Y-72264430D01*
X201126114Y-72271073D01*
X201188876Y-72262981D01*
X201248770Y-72258175D01*
X201326189Y-72270536D01*
X201421960Y-72307959D01*
X201457188Y-72326018D01*
X201568516Y-72401872D01*
X201630320Y-72456102D01*
X201682116Y-72501550D01*
X201782323Y-72610332D01*
X201853476Y-72713498D01*
X201860169Y-72725454D01*
X201890140Y-72768909D01*
X201897595Y-72779718D01*
X201928970Y-72807952D01*
X201957261Y-72812689D01*
X201972064Y-72788098D01*
X201955684Y-72727217D01*
X201908260Y-72631221D01*
X201898784Y-72614277D01*
X201770451Y-72404094D01*
X201640260Y-72224707D01*
X201511483Y-72079423D01*
X201387394Y-71971553D01*
X201271266Y-71904404D01*
X201166373Y-71881286D01*
X201150402Y-71882928D01*
X201130945Y-71899247D01*
X201121900Y-71942381D01*
X201119546Y-72023635D01*
X201118237Y-72082969D01*
X201112595Y-72166388D01*
X201104075Y-72222472D01*
X201100283Y-72237529D01*
X201000978Y-72237529D01*
X201020228Y-72199202D01*
X201045930Y-72073173D01*
X201029520Y-71930809D01*
X200971346Y-71778393D01*
X200949034Y-71734301D01*
X200915712Y-71665905D01*
X200901015Y-71628248D01*
X200901981Y-71612323D01*
X200915644Y-71609123D01*
X200916813Y-71609254D01*
X200941668Y-71631304D01*
X200974228Y-71679636D01*
X201012088Y-71726275D01*
X201095040Y-71766151D01*
X201197649Y-71800744D01*
X201322606Y-71868806D01*
X201447480Y-71959460D01*
X201557583Y-72063270D01*
X201609001Y-72124004D01*
X201685484Y-72222871D01*
X201768540Y-72337124D01*
X201847435Y-72452354D01*
X201901486Y-72533281D01*
X201994018Y-72665123D01*
X202071375Y-72763423D01*
X202094936Y-72788098D01*
X202139422Y-72834686D01*
X202204027Y-72885417D01*
X202271054Y-72922121D01*
X202288883Y-72930450D01*
X202332441Y-72955361D01*
X202334764Y-72966624D01*
X202300916Y-72964343D01*
X202235960Y-72948620D01*
X202144958Y-72919559D01*
X202134617Y-72915958D01*
X202056467Y-72890543D01*
X202005800Y-72881683D01*
X201996544Y-72883301D01*
X201965471Y-72888733D01*
X201918331Y-72911049D01*
X201847414Y-72969446D01*
X201779661Y-73076142D01*
X201750129Y-73133317D01*
X201722745Y-73168390D01*
X201706542Y-73160039D01*
X201699758Y-73148827D01*
X201657399Y-73110506D01*
X201593992Y-73071497D01*
X201564219Y-73057695D01*
X201488249Y-73028111D01*
X201450438Y-73015251D01*
X201652013Y-73015251D01*
X201676451Y-73017365D01*
X201720567Y-72991818D01*
X201775721Y-72941778D01*
X201797275Y-72918214D01*
X201825181Y-72883301D01*
X201825153Y-72874492D01*
X201764647Y-72903237D01*
X201687873Y-72948846D01*
X201654284Y-72986296D01*
X201652013Y-73015251D01*
X201450438Y-73015251D01*
X201396929Y-72997052D01*
X201302631Y-72968207D01*
X201217727Y-72945264D01*
X201154591Y-72931914D01*
X201125596Y-72931844D01*
X201123646Y-72942430D01*
X201145243Y-72986865D01*
X201197997Y-73058956D01*
X201278558Y-73154617D01*
X201383575Y-73269759D01*
X201509696Y-73400296D01*
X201568994Y-73460984D01*
X201638912Y-73535466D01*
X201684592Y-73588128D01*
X201702364Y-73614654D01*
X201688557Y-73610725D01*
X201621665Y-73567958D01*
X201527808Y-73513848D01*
X201445048Y-73472399D01*
X201383439Y-73448513D01*
X201353036Y-73447094D01*
X201347861Y-73455463D01*
X201356387Y-73495107D01*
X201396591Y-73547002D01*
X201459880Y-73601712D01*
X201537658Y-73649801D01*
X201643281Y-73711498D01*
X201799990Y-73845314D01*
X201919305Y-74011499D01*
X202001692Y-74210618D01*
X202004932Y-74222117D01*
X202025722Y-74345120D01*
X202032394Y-74492095D01*
X202025657Y-74644996D01*
X202006218Y-74785779D01*
X201974785Y-74896397D01*
X201959949Y-74930834D01*
X201933501Y-74982667D01*
X201922724Y-74989484D01*
X201929442Y-74953227D01*
X201955477Y-74875836D01*
X201976619Y-74798159D01*
X201992190Y-74672606D01*
X201997704Y-74505457D01*
X201997367Y-74409716D01*
X201993278Y-74313263D01*
X201982830Y-74240378D01*
X201963625Y-74176205D01*
X201933269Y-74105888D01*
X201901849Y-74044539D01*
X201847558Y-73954206D01*
X201797109Y-73885610D01*
X201768879Y-73855770D01*
X201687085Y-73785207D01*
X201597112Y-73723704D01*
X201513030Y-73680227D01*
X201448912Y-73663742D01*
X201442454Y-73663539D01*
X201405189Y-73650026D01*
X201370539Y-73608452D01*
X201329977Y-73529168D01*
X201302666Y-73468019D01*
X201277950Y-73408982D01*
X201268422Y-73380805D01*
X201257450Y-73343603D01*
X201226410Y-73272854D01*
X201180617Y-73179227D01*
X201125402Y-73072754D01*
X201066092Y-72963468D01*
X201008017Y-72861401D01*
X200956507Y-72776586D01*
X200916891Y-72719055D01*
X200888272Y-72684099D01*
X200823290Y-72610491D01*
X200748814Y-72531141D01*
X200694037Y-72475568D01*
X200884046Y-72475568D01*
X200895751Y-72510562D01*
X200932815Y-72572251D01*
X200945229Y-72591540D01*
X200986148Y-72648839D01*
X201012906Y-72676165D01*
X201019810Y-72667299D01*
X201017063Y-72654896D01*
X201005741Y-72605721D01*
X200988840Y-72533153D01*
X200987289Y-72526862D01*
X201076588Y-72526862D01*
X201088107Y-72579516D01*
X201117319Y-72648954D01*
X201127327Y-72667299D01*
X201158788Y-72724966D01*
X201207078Y-72797342D01*
X201256752Y-72855870D01*
X201302374Y-72890341D01*
X201317503Y-72896450D01*
X201388581Y-72917158D01*
X201471177Y-72933573D01*
X201474036Y-72933999D01*
X201548914Y-72939938D01*
X201602427Y-72925462D01*
X201660076Y-72883861D01*
X201676143Y-72869314D01*
X201720839Y-72814897D01*
X201738792Y-72768909D01*
X201737289Y-72742545D01*
X201723442Y-72734292D01*
X201683771Y-72758732D01*
X201610887Y-72789685D01*
X201502913Y-72789807D01*
X201379825Y-72749139D01*
X201338209Y-72727058D01*
X201260414Y-72675756D01*
X201190218Y-72618755D01*
X201139437Y-72566110D01*
X201119884Y-72527879D01*
X201118663Y-72519389D01*
X201094656Y-72500194D01*
X201088198Y-72501204D01*
X201076588Y-72526862D01*
X200987289Y-72526862D01*
X200975491Y-72479014D01*
X200959204Y-72434115D01*
X200940945Y-72423354D01*
X200913913Y-72438105D01*
X200895653Y-72452727D01*
X200884046Y-72475568D01*
X200694037Y-72475568D01*
X200673347Y-72454578D01*
X200639786Y-72422356D01*
X201300158Y-72422356D01*
X201331022Y-72466640D01*
X201366410Y-72490119D01*
X201401446Y-72496809D01*
X201435606Y-72471645D01*
X201446204Y-72456102D01*
X201445778Y-72410323D01*
X201415414Y-72369385D01*
X201365799Y-72351656D01*
X201350558Y-72352931D01*
X201308526Y-72378317D01*
X201300158Y-72422356D01*
X200639786Y-72422356D01*
X200605388Y-72389331D01*
X200553440Y-72343929D01*
X200526002Y-72326900D01*
X200519951Y-72323193D01*
X200492352Y-72290171D01*
X200454424Y-72234063D01*
X200426903Y-72193692D01*
X200348965Y-72107425D01*
X200245847Y-72028442D01*
X200109717Y-71951286D01*
X199932747Y-71870500D01*
X199883054Y-71849644D01*
X199775422Y-71806561D01*
X199692501Y-71779044D01*
X199619446Y-71763580D01*
X199541409Y-71756658D01*
X199443546Y-71754765D01*
X199226024Y-71753705D01*
X198904192Y-71919523D01*
X198737020Y-72006841D01*
X198516822Y-72126850D01*
X198334425Y-72233459D01*
X198205863Y-72316114D01*
X198184868Y-72329612D01*
X198063184Y-72418252D01*
X198035076Y-72441368D01*
X197930219Y-72540636D01*
X197918450Y-72553330D01*
X197812927Y-72667143D01*
X197692907Y-72809071D01*
X197579865Y-72954603D01*
X197483508Y-73091921D01*
X197413543Y-73209206D01*
X197406708Y-73222246D01*
X197357861Y-73306259D01*
X197317784Y-73359418D01*
X197291867Y-73374405D01*
X197258847Y-73373647D01*
X197204128Y-73391103D01*
X197177769Y-73401602D01*
X197182715Y-73389523D01*
X197225214Y-73349686D01*
X197235593Y-73340069D01*
X197297041Y-73268322D01*
X197342309Y-73193371D01*
X197346387Y-73184303D01*
X197380731Y-73115449D01*
X197411249Y-73064588D01*
X197414026Y-73060657D01*
X197430018Y-73018516D01*
X197408466Y-73003366D01*
X197356054Y-73020541D01*
X197318769Y-73036088D01*
X197318479Y-73022193D01*
X197327877Y-73011950D01*
X197373495Y-72979270D01*
X197439059Y-72942356D01*
X197461933Y-72928992D01*
X197524811Y-72882689D01*
X197598426Y-72820076D01*
X197672894Y-72750593D01*
X197738325Y-72683678D01*
X197784835Y-72628773D01*
X197802535Y-72595317D01*
X197799334Y-72590221D01*
X197764433Y-72590860D01*
X197699241Y-72608955D01*
X197613946Y-72641299D01*
X197518734Y-72684683D01*
X197467526Y-72709198D01*
X197413320Y-72732755D01*
X197389887Y-72739463D01*
X197389700Y-72739167D01*
X197390366Y-72711006D01*
X197396978Y-72647662D01*
X197407213Y-72569613D01*
X197456999Y-72569613D01*
X197462803Y-72628712D01*
X197483464Y-72646090D01*
X197524746Y-72627880D01*
X197540172Y-72606697D01*
X197546255Y-72553330D01*
X197539074Y-72461154D01*
X197536529Y-72439681D01*
X197527219Y-72369365D01*
X197526972Y-72368525D01*
X197616863Y-72368525D01*
X197616863Y-72452927D01*
X197619211Y-72497396D01*
X197636156Y-72531500D01*
X197678753Y-72543000D01*
X197743501Y-72534168D01*
X197831826Y-72498883D01*
X197921716Y-72445400D01*
X197995768Y-72382528D01*
X198020404Y-72353875D01*
X198039174Y-72316114D01*
X198017113Y-72306210D01*
X197955005Y-72325271D01*
X197924015Y-72335417D01*
X197841380Y-72352211D01*
X197749972Y-72361794D01*
X197616863Y-72368525D01*
X197526972Y-72368525D01*
X197518942Y-72341259D01*
X197507816Y-72349641D01*
X197489959Y-72388791D01*
X197488851Y-72391434D01*
X197466810Y-72470441D01*
X197457063Y-72555896D01*
X197456999Y-72569613D01*
X197407213Y-72569613D01*
X197408198Y-72562101D01*
X197420596Y-72452805D01*
X197420577Y-72374709D01*
X197405745Y-72338467D01*
X197375663Y-72341117D01*
X197366009Y-72341223D01*
X197385694Y-72314961D01*
X197429612Y-72267786D01*
X197491293Y-72205926D01*
X197564265Y-72135611D01*
X197628524Y-72075692D01*
X197876804Y-72075692D01*
X197881420Y-72090737D01*
X197910735Y-72126191D01*
X197929227Y-72134498D01*
X197973346Y-72127476D01*
X198015950Y-72100042D01*
X198041776Y-72063877D01*
X198035562Y-72030661D01*
X197999940Y-72019287D01*
X197946290Y-72026576D01*
X197897865Y-72047471D01*
X197876804Y-72075692D01*
X197628524Y-72075692D01*
X197642060Y-72063070D01*
X197668460Y-72039308D01*
X197754498Y-72039308D01*
X197773655Y-72040379D01*
X197827982Y-72027679D01*
X197902342Y-72002493D01*
X197947026Y-71986689D01*
X198048822Y-71964388D01*
X198145405Y-71967937D01*
X198181765Y-71973539D01*
X198258469Y-71988755D01*
X198298496Y-72007424D01*
X198311186Y-72036159D01*
X198307947Y-72063877D01*
X198305879Y-72081576D01*
X198302904Y-72098134D01*
X198304235Y-72141595D01*
X198330241Y-72153605D01*
X198351719Y-72151857D01*
X198376630Y-72135356D01*
X198387928Y-72092075D01*
X198390360Y-72010734D01*
X198390810Y-71990746D01*
X198411150Y-71891214D01*
X198466185Y-71782337D01*
X198497876Y-71726982D01*
X198521715Y-71673268D01*
X198523417Y-71647923D01*
X198512908Y-71644531D01*
X198458232Y-71647773D01*
X198375712Y-71666512D01*
X198277941Y-71696991D01*
X198177514Y-71735450D01*
X198087028Y-71778133D01*
X198040264Y-71804444D01*
X197951326Y-71860588D01*
X197869423Y-71919104D01*
X197803411Y-71973034D01*
X197762150Y-72015421D01*
X197754498Y-72039308D01*
X197668460Y-72039308D01*
X197718205Y-71994533D01*
X197786232Y-71936229D01*
X197839670Y-71894387D01*
X197895775Y-71855334D01*
X198070790Y-71747060D01*
X198243579Y-71658872D01*
X198403349Y-71595880D01*
X198539308Y-71563191D01*
X198589819Y-71555326D01*
X198690013Y-71526974D01*
X198759075Y-71483055D01*
X198823844Y-71423293D01*
X198783701Y-71502249D01*
X198781690Y-71506141D01*
X198741112Y-71569336D01*
X198699715Y-71613652D01*
X198674961Y-71635320D01*
X198662655Y-71647923D01*
X198622245Y-71689309D01*
G37*
G36*
X199913534Y-72400549D02*
G01*
X199860902Y-72480107D01*
X199768785Y-72539709D01*
X199746816Y-72550370D01*
X199672276Y-72600263D01*
X199632353Y-72636354D01*
X199603605Y-72662342D01*
X199505782Y-72740116D01*
X199362316Y-72804378D01*
X199321244Y-72818532D01*
X199251131Y-72846678D01*
X199208132Y-72877274D01*
X199178205Y-72922826D01*
X199147302Y-72995842D01*
X199127667Y-73050374D01*
X199096165Y-73159545D01*
X199076648Y-73256343D01*
X199071932Y-73295806D01*
X199071719Y-73361286D01*
X199091492Y-73414038D01*
X199138038Y-73478628D01*
X199149889Y-73493974D01*
X199196362Y-73558201D01*
X199205199Y-73570414D01*
X199271369Y-73667049D01*
X199336562Y-73766705D01*
X199432647Y-73909395D01*
X199543651Y-74048841D01*
X199640049Y-74144557D01*
X199660283Y-74164648D01*
X199794158Y-74269579D01*
X199964486Y-74381498D01*
X200134768Y-74469511D01*
X200297528Y-74523997D01*
X200463825Y-74548562D01*
X200644720Y-74546810D01*
X200828366Y-74526660D01*
X200982738Y-74491729D01*
X201104527Y-74440263D01*
X201134087Y-74418810D01*
X201293178Y-74418810D01*
X201305556Y-74431188D01*
X201317935Y-74418810D01*
X201305556Y-74406432D01*
X201293178Y-74418810D01*
X201134087Y-74418810D01*
X201201720Y-74369725D01*
X201237540Y-74337414D01*
X201284502Y-74298026D01*
X201307920Y-74282650D01*
X201314803Y-74284506D01*
X201355486Y-74302069D01*
X201416960Y-74332163D01*
X201440037Y-74343287D01*
X201511064Y-74370702D01*
X201563641Y-74381676D01*
X201594073Y-74390962D01*
X201626545Y-74418810D01*
X201633333Y-74424631D01*
X201657848Y-74466588D01*
X201654151Y-74499325D01*
X201648315Y-74502536D01*
X201639767Y-74483366D01*
X201635011Y-74461640D01*
X201618698Y-74466776D01*
X201598299Y-74500791D01*
X201581789Y-74553971D01*
X201578124Y-74567801D01*
X201544195Y-74640677D01*
X201511958Y-74692284D01*
X201484871Y-74735648D01*
X201407856Y-74842465D01*
X201320853Y-74950879D01*
X201231563Y-75050644D01*
X201147690Y-75131511D01*
X201071785Y-75191135D01*
X200957378Y-75268267D01*
X200849194Y-75329562D01*
X200817432Y-75345058D01*
X200758745Y-75371423D01*
X200704405Y-75389719D01*
X200643641Y-75401722D01*
X200565683Y-75409213D01*
X200459759Y-75413970D01*
X200315100Y-75417772D01*
X200201193Y-75419564D01*
X200018154Y-75417139D01*
X199865969Y-75406620D01*
X199732792Y-75387391D01*
X199497916Y-75344675D01*
X199248243Y-75302461D01*
X199045734Y-75272383D01*
X198889939Y-75254375D01*
X198780410Y-75248372D01*
X198673974Y-75256062D01*
X198576567Y-75285062D01*
X198491677Y-75340783D01*
X198413320Y-75428590D01*
X198335515Y-75553846D01*
X198252277Y-75721918D01*
X198227825Y-75773842D01*
X198184221Y-75860343D01*
X198148586Y-75923431D01*
X198126889Y-75952144D01*
X198108975Y-75965656D01*
X198098106Y-75996696D01*
X198129635Y-76030106D01*
X198205742Y-76067602D01*
X198328607Y-76110900D01*
X198385315Y-76128837D01*
X198484291Y-76159611D01*
X198562642Y-76183291D01*
X198607116Y-76195838D01*
X198624616Y-76200438D01*
X198633224Y-76207098D01*
X198594738Y-76210343D01*
X198594449Y-76210354D01*
X198518038Y-76204874D01*
X198414045Y-76187070D01*
X198301407Y-76161277D01*
X198199062Y-76131828D01*
X198125949Y-76103059D01*
X198092372Y-76086436D01*
X198055040Y-76077827D01*
X198021252Y-76095553D01*
X197972448Y-76144642D01*
X197907168Y-76220043D01*
X197828310Y-76327746D01*
X197763528Y-76434676D01*
X197719652Y-76529273D01*
X197703510Y-76599976D01*
X197694774Y-76659573D01*
X197660186Y-76706788D01*
X197625116Y-76722767D01*
X197536868Y-76727428D01*
X197449191Y-76684015D01*
X197391852Y-76648716D01*
X197340638Y-76632548D01*
X197314178Y-76628238D01*
X197330079Y-76616739D01*
X197346932Y-76615368D01*
X197402152Y-76629445D01*
X197471163Y-76660809D01*
X197521516Y-76687609D01*
X197565315Y-76704309D01*
X197595171Y-76698937D01*
X197627976Y-76672781D01*
X197660720Y-76627591D01*
X197678753Y-76561243D01*
X197678876Y-76556466D01*
X197700294Y-76480388D01*
X197757690Y-76373895D01*
X197849846Y-76238975D01*
X197975541Y-76077614D01*
X198001978Y-76043996D01*
X198083423Y-75929256D01*
X198166026Y-75799672D01*
X198235433Y-75677354D01*
X198247483Y-75654412D01*
X198336598Y-75498162D01*
X198420990Y-75378308D01*
X198508536Y-75284899D01*
X198569979Y-75236961D01*
X199268476Y-75236961D01*
X199268606Y-75237081D01*
X199297721Y-75247269D01*
X199365255Y-75264682D01*
X199461279Y-75286910D01*
X199575868Y-75311545D01*
X199677401Y-75330712D01*
X199864712Y-75357888D01*
X200056939Y-75376913D01*
X200243426Y-75387295D01*
X200413518Y-75388543D01*
X200556558Y-75380164D01*
X200661892Y-75361667D01*
X200771365Y-75323490D01*
X200971203Y-75216257D01*
X201166599Y-75061092D01*
X201227537Y-74999046D01*
X201297140Y-74915728D01*
X201358480Y-74830412D01*
X201405258Y-74752722D01*
X201431177Y-74692284D01*
X201429936Y-74658719D01*
X201417069Y-74656018D01*
X201416569Y-74656505D01*
X201391476Y-74680932D01*
X201381031Y-74698846D01*
X201332319Y-74765399D01*
X201290916Y-74821965D01*
X201227928Y-74889180D01*
X201170116Y-74950871D01*
X201168173Y-74952597D01*
X201031554Y-75073930D01*
X200888155Y-75179505D01*
X200752841Y-75255960D01*
X200739388Y-75261769D01*
X200638838Y-75289927D01*
X200506951Y-75304059D01*
X200339681Y-75304196D01*
X200132981Y-75290369D01*
X199882806Y-75262610D01*
X199789884Y-75251666D01*
X199654260Y-75238511D01*
X199527320Y-75229186D01*
X199417168Y-75224031D01*
X199331907Y-75223382D01*
X199279642Y-75227580D01*
X199268476Y-75236961D01*
X198569979Y-75236961D01*
X198607116Y-75207987D01*
X198663944Y-75178506D01*
X198782272Y-75140610D01*
X199315435Y-75140610D01*
X199333178Y-75158873D01*
X199358522Y-75164336D01*
X199426240Y-75173352D01*
X199527555Y-75184574D01*
X199654163Y-75197089D01*
X199797763Y-75209984D01*
X199915895Y-75220139D01*
X200063728Y-75232969D01*
X200195140Y-75244504D01*
X200299160Y-75253781D01*
X200364816Y-75259835D01*
X200394040Y-75261760D01*
X200514737Y-75255115D01*
X200639528Y-75229568D01*
X200755016Y-75189502D01*
X200847804Y-75139296D01*
X200904496Y-75083334D01*
X200916446Y-75069031D01*
X200959327Y-75050097D01*
X200989011Y-75036842D01*
X201024041Y-74994395D01*
X201038341Y-74966493D01*
X201039892Y-74952597D01*
X201011935Y-74973166D01*
X200983150Y-74990923D01*
X200954458Y-74991948D01*
X200942425Y-74987628D01*
X200907279Y-75002390D01*
X200891997Y-75010112D01*
X200855266Y-74999028D01*
X200801115Y-74950380D01*
X200779777Y-74929700D01*
X200731630Y-74894728D01*
X200700354Y-74888360D01*
X200687253Y-74891399D01*
X200674270Y-74867346D01*
X200669296Y-74832381D01*
X200647375Y-74817695D01*
X200637051Y-74825481D01*
X200613413Y-74843308D01*
X200573400Y-74906873D01*
X200544550Y-74964723D01*
X200515366Y-75017585D01*
X200484538Y-75056500D01*
X200445227Y-75083471D01*
X200390594Y-75100500D01*
X200313802Y-75109588D01*
X200208012Y-75112737D01*
X200066387Y-75111947D01*
X199882086Y-75109221D01*
X199779964Y-75107979D01*
X199603207Y-75107593D01*
X199471401Y-75110389D01*
X199381521Y-75116641D01*
X199330540Y-75126624D01*
X199315435Y-75140610D01*
X198782272Y-75140610D01*
X198782497Y-75140538D01*
X198937054Y-75108931D01*
X199119762Y-75084656D01*
X199322771Y-75068685D01*
X199538230Y-75061989D01*
X199758286Y-75065540D01*
X199847229Y-75068807D01*
X199997609Y-75071276D01*
X200106730Y-75066936D01*
X200179987Y-75054569D01*
X200222776Y-75032958D01*
X200240492Y-75000883D01*
X200238532Y-74957127D01*
X200236914Y-74943531D01*
X200264221Y-74943531D01*
X200270077Y-74960740D01*
X200278169Y-75000840D01*
X200285884Y-75021050D01*
X200317071Y-75060706D01*
X200344087Y-75083985D01*
X200374647Y-75099609D01*
X200405612Y-75083857D01*
X200451749Y-75035563D01*
X200499323Y-74967794D01*
X200537716Y-74893942D01*
X200560504Y-74825481D01*
X200560120Y-74803994D01*
X200674270Y-74803994D01*
X200674979Y-74809521D01*
X200699026Y-74827290D01*
X200710857Y-74822566D01*
X200723783Y-74788694D01*
X200720220Y-74771011D01*
X200699026Y-74765399D01*
X200692265Y-74770466D01*
X200674270Y-74803994D01*
X200560120Y-74803994D01*
X200559540Y-74771470D01*
X200526041Y-74754050D01*
X200460769Y-74773500D01*
X200364488Y-74830103D01*
X200333083Y-74852373D01*
X200275781Y-74905303D01*
X200264221Y-74943531D01*
X200236914Y-74943531D01*
X200234628Y-74924322D01*
X200244889Y-74888935D01*
X200280615Y-74851992D01*
X200350349Y-74801612D01*
X200408214Y-74760305D01*
X200449900Y-74726803D01*
X200624757Y-74726803D01*
X200629594Y-74756980D01*
X200649514Y-74777777D01*
X200660428Y-74774100D01*
X200674270Y-74742103D01*
X200672293Y-74726949D01*
X200649514Y-74691130D01*
X200634287Y-74692572D01*
X200624757Y-74726803D01*
X200449900Y-74726803D01*
X200457289Y-74720865D01*
X200476171Y-74699308D01*
X200464781Y-74688854D01*
X200417593Y-74666558D01*
X200396933Y-74659098D01*
X200765429Y-74659098D01*
X200766101Y-74666345D01*
X200782436Y-74737434D01*
X200784217Y-74742103D01*
X200801988Y-74788694D01*
X200811573Y-74813825D01*
X200820078Y-74830570D01*
X200854491Y-74881183D01*
X200883546Y-74901559D01*
X200907634Y-74890968D01*
X200908812Y-74889180D01*
X201119884Y-74889180D01*
X201132262Y-74901559D01*
X201144640Y-74889180D01*
X201132262Y-74876802D01*
X201119884Y-74889180D01*
X200908812Y-74889180D01*
X200939611Y-74842445D01*
X200962557Y-74766455D01*
X200962660Y-74765399D01*
X201020859Y-74765399D01*
X201033237Y-74777777D01*
X201045615Y-74765399D01*
X201033237Y-74753021D01*
X201020859Y-74765399D01*
X200962660Y-74765399D01*
X200967416Y-74716541D01*
X201223690Y-74716541D01*
X201234840Y-74716324D01*
X201254452Y-74686008D01*
X201256215Y-74681312D01*
X201261409Y-74656505D01*
X201240594Y-74672150D01*
X201237479Y-74676163D01*
X201226467Y-74690352D01*
X201223690Y-74716541D01*
X200967416Y-74716541D01*
X200971346Y-74676163D01*
X200971346Y-74576879D01*
X200866132Y-74584492D01*
X200841903Y-74586407D01*
X200788188Y-74595660D01*
X200767046Y-74616668D01*
X200765429Y-74659098D01*
X200396933Y-74659098D01*
X200346248Y-74640796D01*
X200270273Y-74611416D01*
X200155837Y-74558589D01*
X200023675Y-74491316D01*
X199886530Y-74416114D01*
X199757146Y-74339501D01*
X199756519Y-74339117D01*
X199701381Y-74320066D01*
X199627946Y-74312488D01*
X199549722Y-74315104D01*
X199480220Y-74326634D01*
X199432951Y-74345797D01*
X199421423Y-74371313D01*
X199428191Y-74390839D01*
X199425906Y-74401956D01*
X199404389Y-74395525D01*
X199355937Y-74368842D01*
X199272842Y-74319206D01*
X199166161Y-74259859D01*
X199038547Y-74209344D01*
X198917335Y-74192438D01*
X198786964Y-74207534D01*
X198631872Y-74253027D01*
X198560821Y-74273484D01*
X198438328Y-74300733D01*
X198281835Y-74329788D01*
X198099611Y-74359003D01*
X198014654Y-74372142D01*
X197888775Y-74395015D01*
X197795997Y-74419056D01*
X197789096Y-74421910D01*
X197725788Y-74448090D01*
X197713868Y-74455846D01*
X197667617Y-74485940D01*
X197610951Y-74536429D01*
X197513258Y-74659587D01*
X197429755Y-74825982D01*
X197382833Y-74939363D01*
X197308456Y-75108451D01*
X197239524Y-75246409D01*
X197169701Y-75363414D01*
X197092652Y-75469643D01*
X197002041Y-75575271D01*
X196891531Y-75690476D01*
X196849977Y-75732357D01*
X196763432Y-75820699D01*
X196705972Y-75882817D01*
X196673223Y-75924984D01*
X196660807Y-75953478D01*
X196664349Y-75974572D01*
X196679473Y-75994541D01*
X196683247Y-75998579D01*
X196736847Y-76045312D01*
X196803042Y-76091802D01*
X196838080Y-76118832D01*
X196902109Y-76185980D01*
X196959258Y-76264442D01*
X196974012Y-76287544D01*
X197046781Y-76374232D01*
X197128776Y-76424826D01*
X197197240Y-76463415D01*
X197249840Y-76534211D01*
X197259514Y-76561598D01*
X197263912Y-76593131D01*
X197244894Y-76593703D01*
X197221739Y-76573308D01*
X197198262Y-76523279D01*
X197176367Y-76482544D01*
X197111166Y-76449227D01*
X197095290Y-76444500D01*
X197022689Y-76396303D01*
X196939027Y-76301340D01*
X196889232Y-76240244D01*
X196805515Y-76150013D01*
X196726813Y-76077125D01*
X196663674Y-76019647D01*
X196622610Y-75959368D01*
X196623290Y-75906697D01*
X196663744Y-75854678D01*
X196702439Y-75809571D01*
X196706653Y-75760218D01*
X196663964Y-75706339D01*
X196607141Y-75642026D01*
X196533605Y-75529557D01*
X196459399Y-75389824D01*
X196389653Y-75234421D01*
X196329500Y-75074945D01*
X196284071Y-74922991D01*
X196258499Y-74790155D01*
X196255716Y-74764455D01*
X196254446Y-74732195D01*
X196261435Y-74739870D01*
X196278002Y-74790162D01*
X196305463Y-74885755D01*
X196369944Y-75078511D01*
X196488080Y-75331644D01*
X196632839Y-75555349D01*
X196646086Y-75572633D01*
X196712826Y-75654549D01*
X196763039Y-75698710D01*
X196806547Y-75707784D01*
X196853172Y-75684438D01*
X196912735Y-75631336D01*
X196952712Y-75591316D01*
X197016255Y-75522778D01*
X197061034Y-75468375D01*
X197078768Y-75443140D01*
X197093681Y-75408693D01*
X197083025Y-75374152D01*
X197044626Y-75319837D01*
X197039202Y-75312472D01*
X196994487Y-75245009D01*
X196947150Y-75164687D01*
X196904538Y-75085133D01*
X196874001Y-75019975D01*
X196862888Y-74982840D01*
X196865881Y-74981831D01*
X196884701Y-75007928D01*
X196914858Y-75062475D01*
X196926860Y-75085436D01*
X196984823Y-75186562D01*
X197040580Y-75269842D01*
X197087710Y-75326353D01*
X197119789Y-75347173D01*
X197124566Y-75345462D01*
X197151792Y-75314502D01*
X197189483Y-75254681D01*
X197230764Y-75179119D01*
X197268761Y-75100931D01*
X197296601Y-75033237D01*
X197307408Y-74989152D01*
X197306774Y-74982439D01*
X197290181Y-74933234D01*
X197258118Y-74870360D01*
X197217934Y-74792974D01*
X197161872Y-74647305D01*
X197133671Y-74536817D01*
X197168844Y-74536817D01*
X197172742Y-74565514D01*
X197192550Y-74626219D01*
X197224182Y-74706325D01*
X197228778Y-74717184D01*
X197271201Y-74813657D01*
X197301152Y-74868492D01*
X197323604Y-74885846D01*
X197343531Y-74869871D01*
X197365906Y-74824724D01*
X197369776Y-74815787D01*
X197406389Y-74731405D01*
X197443713Y-74645596D01*
X197450760Y-74630181D01*
X197491709Y-74557011D01*
X197532987Y-74502685D01*
X197552744Y-74481830D01*
X197565346Y-74455846D01*
X197542840Y-74440235D01*
X197501054Y-74438706D01*
X197448440Y-74479343D01*
X197395174Y-74568487D01*
X197374373Y-74608204D01*
X197338151Y-74646872D01*
X197296983Y-74640133D01*
X197240796Y-74589349D01*
X197232046Y-74580163D01*
X197191646Y-74544719D01*
X197169123Y-74536465D01*
X197168844Y-74536817D01*
X197133671Y-74536817D01*
X197123551Y-74497170D01*
X197109358Y-74364296D01*
X197109358Y-74363059D01*
X197112602Y-74304820D01*
X197195767Y-74304820D01*
X197219738Y-74418955D01*
X197223824Y-74432593D01*
X197258290Y-74516760D01*
X197294219Y-74552142D01*
X197330978Y-74538496D01*
X197367935Y-74475582D01*
X197381382Y-74421910D01*
X197377696Y-74339539D01*
X197352381Y-74262643D01*
X197310894Y-74205810D01*
X197258693Y-74183625D01*
X197233178Y-74188246D01*
X197200343Y-74227339D01*
X197195767Y-74304820D01*
X197112602Y-74304820D01*
X197114217Y-74275827D01*
X197132772Y-74217686D01*
X197171248Y-74168996D01*
X197205021Y-74132166D01*
X197230134Y-74090767D01*
X197218642Y-74075262D01*
X197170577Y-74089410D01*
X197169823Y-74089752D01*
X197115018Y-74105506D01*
X197078978Y-74088879D01*
X197064268Y-74066963D01*
X197089181Y-74059843D01*
X197127651Y-74042550D01*
X197168972Y-73997952D01*
X197169697Y-73996850D01*
X197212242Y-73948329D01*
X197249592Y-73944100D01*
X197285044Y-73985829D01*
X197321898Y-74075181D01*
X197332497Y-74104771D01*
X197389427Y-74219418D01*
X197460792Y-74293917D01*
X197550453Y-74329051D01*
X197662271Y-74325602D01*
X197697612Y-74315026D01*
X197966945Y-74315026D01*
X197995322Y-74329419D01*
X198043827Y-74318498D01*
X198117615Y-74274922D01*
X198124922Y-74269863D01*
X198183058Y-74220364D01*
X198216748Y-74174822D01*
X198217334Y-74144557D01*
X198198788Y-74150540D01*
X198148918Y-74176803D01*
X198079959Y-74217611D01*
X198020474Y-74257616D01*
X197977074Y-74294401D01*
X197966945Y-74315026D01*
X197697612Y-74315026D01*
X197800108Y-74284353D01*
X197967825Y-74206086D01*
X198074174Y-74148994D01*
X198245159Y-74048837D01*
X198392318Y-73948369D01*
X198530652Y-73836942D01*
X198675163Y-73703905D01*
X198733986Y-73647868D01*
X198792974Y-73593447D01*
X198916570Y-73593447D01*
X198917313Y-73596165D01*
X198945932Y-73609006D01*
X199003217Y-73614229D01*
X199046814Y-73608641D01*
X199086074Y-73586808D01*
X199092540Y-73558201D01*
X199058919Y-73533400D01*
X199036037Y-73531277D01*
X198984630Y-73543376D01*
X198937326Y-73567255D01*
X198916570Y-73593447D01*
X198792974Y-73593447D01*
X198818607Y-73569799D01*
X198890247Y-73506587D01*
X198937791Y-73468209D01*
X198950928Y-73458419D01*
X198988776Y-73418409D01*
X199010974Y-73362801D01*
X199025177Y-73274639D01*
X199032984Y-73218837D01*
X199055413Y-73098298D01*
X199081928Y-72987449D01*
X199122090Y-72843417D01*
X199031395Y-72755325D01*
X199002154Y-72724264D01*
X198952806Y-72657647D01*
X198943032Y-72636354D01*
X199411697Y-72636354D01*
X199424075Y-72648732D01*
X199436453Y-72636354D01*
X199424075Y-72623976D01*
X199411697Y-72636354D01*
X198943032Y-72636354D01*
X198927392Y-72602281D01*
X198924117Y-72586841D01*
X199040352Y-72586841D01*
X199041583Y-72612301D01*
X199052837Y-72618297D01*
X199084651Y-72585900D01*
X199088060Y-72581987D01*
X199103087Y-72555892D01*
X199078462Y-72549707D01*
X199060246Y-72554253D01*
X199040352Y-72586841D01*
X198924117Y-72586841D01*
X198910559Y-72522915D01*
X198891349Y-72449782D01*
X198871750Y-72408318D01*
X198846558Y-72388664D01*
X198810568Y-72380957D01*
X198809311Y-72380807D01*
X198758343Y-72363189D01*
X198750359Y-72339064D01*
X198955863Y-72339064D01*
X198973189Y-72375723D01*
X199014066Y-72399382D01*
X199060597Y-72390169D01*
X199098782Y-72352383D01*
X199114621Y-72290322D01*
X199123945Y-72243865D01*
X199153986Y-72182690D01*
X199164102Y-72168928D01*
X199196272Y-72142658D01*
X199228255Y-72155456D01*
X199232181Y-72158900D01*
X199259303Y-72211947D01*
X199251558Y-72291346D01*
X199208621Y-72401169D01*
X199191576Y-72438424D01*
X199163676Y-72508752D01*
X199150655Y-72555892D01*
X199150654Y-72555896D01*
X199150430Y-72586275D01*
X199164703Y-72594574D01*
X199197473Y-72560346D01*
X199250184Y-72482525D01*
X199323856Y-72365919D01*
X199344477Y-72470191D01*
X199354724Y-72510948D01*
X199379866Y-72563763D01*
X199404342Y-72576791D01*
X199420079Y-72549027D01*
X199419000Y-72479467D01*
X199416703Y-72447743D01*
X199431063Y-72348882D01*
X199471960Y-72261936D01*
X199531942Y-72205011D01*
X199557476Y-72194545D01*
X199599269Y-72200020D01*
X199614434Y-72240363D01*
X199598298Y-72308298D01*
X199582357Y-72352482D01*
X199576559Y-72422316D01*
X199609376Y-72462538D01*
X199681953Y-72475438D01*
X199700200Y-72475098D01*
X199778434Y-72458971D01*
X199820200Y-72413860D01*
X199832555Y-72333097D01*
X199826469Y-72265525D01*
X199784047Y-72163338D01*
X199700590Y-72087121D01*
X199575419Y-72036360D01*
X199407858Y-72010539D01*
X199329995Y-72006445D01*
X199257379Y-72010405D01*
X199197136Y-72028488D01*
X199128618Y-72064701D01*
X199091994Y-72088150D01*
X199005649Y-72167254D01*
X198958694Y-72253400D01*
X198955863Y-72339064D01*
X198750359Y-72339064D01*
X198748954Y-72334819D01*
X198777878Y-72305647D01*
X198841852Y-72285620D01*
X198858102Y-72280575D01*
X198888407Y-72250473D01*
X198907217Y-72216792D01*
X198957181Y-72155308D01*
X199023217Y-72087503D01*
X199091923Y-72026883D01*
X199149895Y-71986955D01*
X199192544Y-71970070D01*
X199302702Y-71951312D01*
X199432552Y-71951664D01*
X199565091Y-71970482D01*
X199683314Y-72007125D01*
X199755234Y-72044986D01*
X199847529Y-72123252D01*
X199905546Y-72214009D01*
X199927981Y-72309145D01*
X199924195Y-72333097D01*
X199913534Y-72400549D01*
G37*
G36*
X207335055Y-80625129D02*
G01*
X207286886Y-80960372D01*
X207279575Y-80997290D01*
X207251410Y-81139891D01*
X207222418Y-81287157D01*
X207197839Y-81412475D01*
X207195568Y-81423708D01*
X207161471Y-81555326D01*
X207113977Y-81698425D01*
X207062629Y-81823967D01*
X207053099Y-81844840D01*
X207005464Y-81963358D01*
X206965353Y-82084679D01*
X206940617Y-82185540D01*
X206936147Y-82210027D01*
X206877018Y-82439834D01*
X206788872Y-82676558D01*
X206679594Y-82901486D01*
X206557066Y-83095906D01*
X206547074Y-83109213D01*
X206485562Y-83184476D01*
X206401069Y-83281073D01*
X206303411Y-83387982D01*
X206202407Y-83494176D01*
X206161317Y-83536714D01*
X206076876Y-83626276D01*
X206009000Y-83701237D01*
X205963795Y-83754751D01*
X205947369Y-83779976D01*
X205960775Y-83801006D01*
X206004596Y-83843728D01*
X206043682Y-83875730D01*
X206068319Y-83895902D01*
X206074989Y-83901061D01*
X206187530Y-84018079D01*
X206264363Y-84165953D01*
X206307297Y-84348110D01*
X206310706Y-84383692D01*
X206306373Y-84485643D01*
X206283453Y-84572488D01*
X206245974Y-84632900D01*
X206197964Y-84655555D01*
X206159977Y-84664086D01*
X206106753Y-84697758D01*
X206106547Y-84697964D01*
X206072738Y-84718878D01*
X206014081Y-84734803D01*
X205922356Y-84747299D01*
X205789341Y-84757922D01*
X205612839Y-84768321D01*
X205396610Y-84776586D01*
X205216622Y-84776836D01*
X205065407Y-84768835D01*
X204935499Y-84752345D01*
X204819430Y-84727129D01*
X204783740Y-84717867D01*
X204701505Y-84699477D01*
X204623524Y-84688506D01*
X204536394Y-84684059D01*
X204426709Y-84685241D01*
X204281065Y-84691156D01*
X204172923Y-84696669D01*
X204040692Y-84705828D01*
X203946454Y-84717509D01*
X203883199Y-84733792D01*
X203843916Y-84756755D01*
X203821595Y-84788476D01*
X203809223Y-84831034D01*
X203794506Y-84881518D01*
X203742599Y-84975852D01*
X203670792Y-85050114D01*
X203591387Y-85089698D01*
X203547271Y-85096730D01*
X203460070Y-85106583D01*
X203348415Y-85116699D01*
X203225942Y-85125735D01*
X203178336Y-85128480D01*
X203036556Y-85133747D01*
X202873321Y-85136597D01*
X202697500Y-85137188D01*
X202517963Y-85135675D01*
X202343578Y-85132214D01*
X202183216Y-85126960D01*
X202045744Y-85120070D01*
X201940033Y-85111699D01*
X201874952Y-85102004D01*
X201841070Y-85094987D01*
X201743685Y-85082300D01*
X201644727Y-85077003D01*
X201505140Y-85060089D01*
X201395954Y-85008430D01*
X201317058Y-84920483D01*
X201268859Y-84841227D01*
X200594030Y-84838708D01*
X200463073Y-84837730D01*
X200249517Y-84834383D01*
X200034848Y-84829151D01*
X199831721Y-84822414D01*
X199652794Y-84814557D01*
X199510722Y-84805961D01*
X199313024Y-84789109D01*
X199045101Y-84760637D01*
X198766888Y-84725677D01*
X198490337Y-84685970D01*
X198227398Y-84643252D01*
X197990021Y-84599262D01*
X197790157Y-84555738D01*
X197696876Y-84533054D01*
X197586274Y-84505368D01*
X197479850Y-84477488D01*
X197367296Y-84446567D01*
X197238303Y-84409760D01*
X197082563Y-84364219D01*
X196889768Y-84307098D01*
X196809245Y-84285984D01*
X196742590Y-84274024D01*
X196708235Y-84274935D01*
X196700021Y-84282914D01*
X196671945Y-84327161D01*
X196640230Y-84392715D01*
X196604184Y-84467439D01*
X196546957Y-84568982D01*
X196483274Y-84669715D01*
X196422449Y-84755039D01*
X196373794Y-84810353D01*
X196357837Y-84822909D01*
X196284786Y-84857035D01*
X196177173Y-84880730D01*
X196031462Y-84894380D01*
X195844116Y-84898368D01*
X195611599Y-84893076D01*
X195516547Y-84888933D01*
X195370181Y-84880654D01*
X195238790Y-84871037D01*
X195133881Y-84860962D01*
X195066960Y-84851313D01*
X195031832Y-84844272D01*
X194931083Y-84825931D01*
X194844153Y-84812334D01*
X194825006Y-84809416D01*
X194759706Y-84794113D01*
X194721609Y-84776801D01*
X194691691Y-84762582D01*
X194634281Y-84754580D01*
X194551633Y-84736306D01*
X194480088Y-84675344D01*
X194473302Y-84660590D01*
X194740991Y-84660590D01*
X194753189Y-84680311D01*
X194773123Y-84670053D01*
X194797153Y-84625395D01*
X194807018Y-84561932D01*
X194805150Y-84546212D01*
X194790704Y-84541161D01*
X194768456Y-84569987D01*
X194746242Y-84624609D01*
X194740991Y-84660590D01*
X194473302Y-84660590D01*
X194434043Y-84575230D01*
X194424352Y-84523521D01*
X194509942Y-84523521D01*
X194509943Y-84523986D01*
X194521251Y-84571782D01*
X194548640Y-84575706D01*
X194582820Y-84534373D01*
X194594919Y-84497837D01*
X194575224Y-84460318D01*
X194546790Y-84445164D01*
X194519497Y-84462322D01*
X194509942Y-84523521D01*
X194424352Y-84523521D01*
X194421707Y-84509407D01*
X194427345Y-84360217D01*
X194473719Y-84209619D01*
X194556840Y-84068127D01*
X194672720Y-83946250D01*
X194742131Y-83888302D01*
X194816488Y-83822975D01*
X194864162Y-83772938D01*
X194892219Y-83728803D01*
X194907726Y-83681180D01*
X194917749Y-83620679D01*
X194918693Y-83613757D01*
X194924669Y-83554215D01*
X194921163Y-83505033D01*
X194904007Y-83453113D01*
X194869031Y-83385355D01*
X194812064Y-83288659D01*
X194786170Y-83245134D01*
X194660339Y-83017710D01*
X194562609Y-82805988D01*
X194489027Y-82597067D01*
X194435637Y-82378045D01*
X194398485Y-82136019D01*
X194373619Y-81858089D01*
X194372663Y-81844722D01*
X194359394Y-81722287D01*
X194339591Y-81600159D01*
X194317163Y-81502933D01*
X194304914Y-81463010D01*
X194275781Y-81391594D01*
X194239583Y-81346659D01*
X194185323Y-81312304D01*
X194163727Y-81300269D01*
X194060988Y-81221216D01*
X193961946Y-81114896D01*
X193880210Y-80997618D01*
X193829388Y-80885693D01*
X193804317Y-80762056D01*
X193794056Y-80601270D01*
X193895338Y-80601270D01*
X193902872Y-80746426D01*
X193926471Y-80862723D01*
X193957110Y-80940596D01*
X193996046Y-81014298D01*
X194034979Y-81069464D01*
X194068739Y-81101355D01*
X194092153Y-81105236D01*
X194100051Y-81076368D01*
X194087261Y-81010014D01*
X194083773Y-80997723D01*
X194067313Y-80929735D01*
X194068169Y-80900483D01*
X194086278Y-80903235D01*
X194088701Y-80905162D01*
X194107876Y-80941734D01*
X194124398Y-81002993D01*
X194124876Y-81005488D01*
X194170870Y-81118553D01*
X194255055Y-81207382D01*
X194368470Y-81262449D01*
X194420550Y-81274058D01*
X194490925Y-81282710D01*
X194554272Y-81284421D01*
X194600035Y-81279652D01*
X194617659Y-81268862D01*
X194596590Y-81252511D01*
X194569900Y-81240134D01*
X194446044Y-81153627D01*
X194359388Y-81037178D01*
X194358035Y-81034513D01*
X194325962Y-80959281D01*
X194315017Y-80909095D01*
X194322988Y-80889685D01*
X194347662Y-80906781D01*
X194386827Y-80966113D01*
X194394835Y-80980020D01*
X194476544Y-81081889D01*
X194575045Y-81150354D01*
X194681147Y-81182441D01*
X194785658Y-81175174D01*
X194879388Y-81125576D01*
X194916002Y-81091092D01*
X194950469Y-81039436D01*
X194945361Y-81004454D01*
X194899855Y-80991525D01*
X194897683Y-80991486D01*
X194837591Y-80975165D01*
X194761074Y-80935375D01*
X194680330Y-80881126D01*
X194607555Y-80821431D01*
X194554946Y-80765299D01*
X194534699Y-80721743D01*
X194546913Y-80696314D01*
X194576143Y-80703693D01*
X194607677Y-80741642D01*
X194621457Y-80761202D01*
X194684147Y-80811603D01*
X194770171Y-80854064D01*
X194860638Y-80880482D01*
X194936660Y-80882755D01*
X194948241Y-80880282D01*
X195038069Y-80843206D01*
X195088399Y-80778711D01*
X195104094Y-80680934D01*
X195097523Y-80603965D01*
X195074193Y-80489765D01*
X195039142Y-80371244D01*
X194997804Y-80266277D01*
X194955617Y-80192735D01*
X194922963Y-80147459D01*
X194907784Y-80114073D01*
X194923583Y-80114153D01*
X194969239Y-80151127D01*
X194999576Y-80177673D01*
X195032327Y-80193125D01*
X195053786Y-80175945D01*
X195063979Y-80165951D01*
X195081929Y-80182061D01*
X195102668Y-80243629D01*
X195125265Y-80314937D01*
X195151324Y-80353195D01*
X195184291Y-80348441D01*
X195231117Y-80303940D01*
X195303392Y-80213730D01*
X195413259Y-80041458D01*
X195508147Y-79849839D01*
X195582637Y-79652030D01*
X195631306Y-79461186D01*
X195648734Y-79290464D01*
X195650731Y-79241369D01*
X195658460Y-79215856D01*
X195669936Y-79232218D01*
X195682934Y-79286433D01*
X195695227Y-79374477D01*
X195710625Y-79516949D01*
X195846785Y-79585447D01*
X195893691Y-79609606D01*
X195939412Y-79636904D01*
X195946335Y-79650511D01*
X195918559Y-79654360D01*
X195851328Y-79646825D01*
X195774946Y-79627156D01*
X195767512Y-79624627D01*
X195713147Y-79610249D01*
X195685158Y-79610099D01*
X195681836Y-79616363D01*
X195665946Y-79660014D01*
X195641808Y-79734917D01*
X195613189Y-79829579D01*
X195611539Y-79835149D01*
X195567432Y-79966249D01*
X195511655Y-80109265D01*
X195455866Y-80234214D01*
X195359950Y-80429929D01*
X195392704Y-80568424D01*
X195397205Y-80587970D01*
X195418306Y-80687926D01*
X195441820Y-80809169D01*
X195463446Y-80929726D01*
X195467305Y-80952041D01*
X195493195Y-81092327D01*
X195523608Y-81245871D01*
X195552749Y-81383235D01*
X195560651Y-81419516D01*
X195580955Y-81523600D01*
X195590734Y-81592109D01*
X195590580Y-81622371D01*
X195581083Y-81611716D01*
X195562835Y-81557473D01*
X195536428Y-81456970D01*
X195497724Y-81303014D01*
X195441479Y-81097970D01*
X195388265Y-80926050D01*
X195339244Y-80790372D01*
X195295578Y-80694055D01*
X195258430Y-80640218D01*
X195228961Y-80631980D01*
X195220957Y-80645380D01*
X195207657Y-80697194D01*
X195197229Y-80771896D01*
X195194519Y-80796145D01*
X195172808Y-80886319D01*
X195134227Y-80939518D01*
X195129243Y-80943692D01*
X195085146Y-80997438D01*
X195047659Y-81067042D01*
X195044502Y-81074410D01*
X194998257Y-81149177D01*
X194934397Y-81218249D01*
X194866578Y-81268973D01*
X194808458Y-81288693D01*
X194806253Y-81288754D01*
X194755708Y-81305041D01*
X194697107Y-81341455D01*
X194683310Y-81351126D01*
X194607386Y-81386110D01*
X194522236Y-81406367D01*
X194480969Y-81411363D01*
X194437318Y-81422093D01*
X194427180Y-81442949D01*
X194440323Y-81483576D01*
X194440463Y-81483932D01*
X194452079Y-81533951D01*
X194464582Y-81621095D01*
X194476480Y-81733197D01*
X194486280Y-81858089D01*
X194499756Y-82024425D01*
X194536965Y-82293830D01*
X194594458Y-82536043D01*
X194676485Y-82764172D01*
X194787293Y-82991324D01*
X194931131Y-83230608D01*
X195083284Y-83465484D01*
X195052581Y-83602679D01*
X195040894Y-83661469D01*
X195032742Y-83723551D01*
X195034797Y-83752794D01*
X195062576Y-83754596D01*
X195114651Y-83740263D01*
X195117131Y-83739344D01*
X195190617Y-83722467D01*
X195272811Y-83716382D01*
X195289743Y-83716748D01*
X195324077Y-83719576D01*
X195323885Y-83727502D01*
X195284967Y-83743885D01*
X195203120Y-83772084D01*
X195055965Y-83829912D01*
X194876942Y-83927761D01*
X194731176Y-84042330D01*
X194624046Y-84169165D01*
X194560934Y-84303808D01*
X194553114Y-84337126D01*
X194558632Y-84386621D01*
X194598926Y-84434943D01*
X194601211Y-84437114D01*
X194641736Y-84485222D01*
X194647224Y-84497837D01*
X194658480Y-84523710D01*
X194661663Y-84548655D01*
X194678464Y-84553802D01*
X194706061Y-84518842D01*
X194740321Y-84447618D01*
X194753435Y-84418376D01*
X194795510Y-84344248D01*
X194836775Y-84292984D01*
X194846705Y-84284252D01*
X194871195Y-84265547D01*
X194875693Y-84272733D01*
X194859195Y-84311792D01*
X194820695Y-84388711D01*
X194773772Y-84480834D01*
X194838251Y-84531553D01*
X194838501Y-84531751D01*
X194866351Y-84561932D01*
X194886186Y-84583427D01*
X194910576Y-84636466D01*
X194928918Y-84676721D01*
X194976336Y-84704617D01*
X195059312Y-84720754D01*
X195184553Y-84727356D01*
X195226167Y-84727690D01*
X195289515Y-84723896D01*
X195319490Y-84711222D01*
X195327143Y-84686500D01*
X195335708Y-84642505D01*
X195345008Y-84617737D01*
X195412387Y-84617737D01*
X195415386Y-84663793D01*
X195424205Y-84681968D01*
X195455701Y-84703914D01*
X195488488Y-84679227D01*
X195492970Y-84660708D01*
X195478992Y-84623913D01*
X195449913Y-84597950D01*
X195421213Y-84600853D01*
X195412387Y-84617737D01*
X195345008Y-84617737D01*
X195364623Y-84565494D01*
X195405504Y-84480413D01*
X195449486Y-84405371D01*
X195487704Y-84358479D01*
X195495116Y-84352378D01*
X195518233Y-84336076D01*
X195516863Y-84349867D01*
X195491643Y-84400573D01*
X195470897Y-84443537D01*
X195453968Y-84505441D01*
X195470644Y-84549163D01*
X195523285Y-84588741D01*
X195526286Y-84590557D01*
X195577958Y-84636613D01*
X195590309Y-84660708D01*
X195603743Y-84686915D01*
X195604702Y-84693447D01*
X195610000Y-84713352D01*
X195623323Y-84727370D01*
X195651582Y-84736248D01*
X195701689Y-84740729D01*
X195780555Y-84741559D01*
X195895090Y-84739481D01*
X196052206Y-84735242D01*
X196117769Y-84732363D01*
X196206077Y-84720204D01*
X196272528Y-84692366D01*
X196327085Y-84641238D01*
X196379711Y-84559207D01*
X196440367Y-84438660D01*
X196460929Y-84395119D01*
X196524258Y-84250841D01*
X196562319Y-84142719D01*
X196576416Y-84066452D01*
X196567849Y-84017740D01*
X196556669Y-84001088D01*
X196504451Y-83945322D01*
X196424749Y-83874118D01*
X196327628Y-83795439D01*
X196223153Y-83717247D01*
X196121389Y-83647503D01*
X196032402Y-83594172D01*
X196001651Y-83576681D01*
X195966447Y-83551439D01*
X195967153Y-83541520D01*
X195998838Y-83548939D01*
X196069835Y-83578989D01*
X196164827Y-83627061D01*
X196274051Y-83687685D01*
X196387742Y-83755390D01*
X196496138Y-83824708D01*
X196589475Y-83890167D01*
X196625471Y-83916539D01*
X196740721Y-83993317D01*
X196839508Y-84047443D01*
X196914976Y-84075512D01*
X196960265Y-84074124D01*
X196960773Y-84073608D01*
X196948903Y-84050166D01*
X196908288Y-83999624D01*
X196844948Y-83929028D01*
X196764901Y-83845424D01*
X196716183Y-83794966D01*
X196486055Y-83526458D01*
X196277317Y-83228257D01*
X196085888Y-82894041D01*
X195907687Y-82517488D01*
X195890061Y-82476498D01*
X195843804Y-82366334D01*
X195807628Y-82276305D01*
X195784838Y-82214799D01*
X195778738Y-82190203D01*
X195779918Y-82190491D01*
X195796216Y-82217090D01*
X195827378Y-82279327D01*
X195869481Y-82369114D01*
X195918598Y-82478364D01*
X196019804Y-82697673D01*
X196180271Y-83004014D01*
X196348039Y-83273119D01*
X196527926Y-83512468D01*
X196724753Y-83729541D01*
X196738606Y-83743403D01*
X196939351Y-83923140D01*
X197154980Y-84075346D01*
X197396913Y-84207173D01*
X197676565Y-84325773D01*
X197697015Y-84333351D01*
X197893505Y-84394393D01*
X198132361Y-84451221D01*
X198407304Y-84503068D01*
X198712055Y-84549164D01*
X199040334Y-84588744D01*
X199385863Y-84621037D01*
X199742362Y-84645277D01*
X200103552Y-84660697D01*
X200463154Y-84666527D01*
X201106132Y-84667933D01*
X201109747Y-84432748D01*
X201111118Y-84369957D01*
X201117584Y-84265858D01*
X201132505Y-84179067D01*
X201160171Y-84088921D01*
X201204875Y-83974755D01*
X201233052Y-83907834D01*
X201293152Y-83771212D01*
X201359833Y-83625275D01*
X201423155Y-83492007D01*
X201436838Y-83463914D01*
X201513266Y-83306156D01*
X201602607Y-83120636D01*
X201699105Y-82919403D01*
X201796999Y-82714508D01*
X201890531Y-82517998D01*
X201973941Y-82341923D01*
X202041471Y-82198333D01*
X202069473Y-82139686D01*
X202109548Y-82060538D01*
X202139108Y-82008245D01*
X202153213Y-81991938D01*
X202153539Y-81992756D01*
X202144720Y-82023014D01*
X202117424Y-82090945D01*
X202074463Y-82190435D01*
X202018651Y-82315368D01*
X201952800Y-82459628D01*
X201879723Y-82617102D01*
X201802233Y-82781673D01*
X201723142Y-82947227D01*
X201645263Y-83107648D01*
X201571409Y-83256822D01*
X201543366Y-83313466D01*
X201469481Y-83468208D01*
X201397446Y-83625984D01*
X201334302Y-83771161D01*
X201287088Y-83888108D01*
X201251632Y-83984376D01*
X201218593Y-84086877D01*
X201198965Y-84174585D01*
X201189088Y-84265038D01*
X201185301Y-84375777D01*
X201185165Y-84385685D01*
X201187053Y-84506784D01*
X201195606Y-84590927D01*
X201210228Y-84631988D01*
X201234335Y-84647621D01*
X201286603Y-84643639D01*
X201340673Y-84600684D01*
X201387799Y-84524071D01*
X201420848Y-84458098D01*
X201530292Y-84311941D01*
X201675557Y-84199659D01*
X201749569Y-84159212D01*
X201802007Y-84138796D01*
X201815038Y-84147587D01*
X201787850Y-84184672D01*
X201719633Y-84249141D01*
X201698935Y-84267635D01*
X201569829Y-84409077D01*
X201487422Y-84556320D01*
X201449237Y-84713618D01*
X201443895Y-84774420D01*
X201445858Y-84828701D01*
X201463067Y-84862045D01*
X201500227Y-84890802D01*
X201505861Y-84894415D01*
X201573119Y-84920781D01*
X201620789Y-84901895D01*
X201650887Y-84837038D01*
X201655198Y-84822692D01*
X201657172Y-84818380D01*
X201719117Y-84818380D01*
X201719303Y-84857028D01*
X201730132Y-84875673D01*
X201749117Y-84856928D01*
X201757530Y-84829539D01*
X201747644Y-84805029D01*
X201723835Y-84810798D01*
X201719117Y-84818380D01*
X201657172Y-84818380D01*
X201687406Y-84752343D01*
X201732923Y-84680311D01*
X201769872Y-84632405D01*
X201832886Y-84558967D01*
X201883223Y-84510049D01*
X201916614Y-84487942D01*
X201928791Y-84494938D01*
X201915487Y-84533329D01*
X201872435Y-84605406D01*
X201840996Y-84654285D01*
X201820240Y-84698951D01*
X201822781Y-84734328D01*
X201845824Y-84778602D01*
X201869118Y-84829539D01*
X201874978Y-84842352D01*
X201887330Y-84898526D01*
X201888153Y-84910896D01*
X201899235Y-84931618D01*
X201930932Y-84945549D01*
X201992855Y-84955793D01*
X202094615Y-84965453D01*
X202208143Y-84972919D01*
X202302578Y-84971843D01*
X202363637Y-84958251D01*
X202399596Y-84930095D01*
X202418737Y-84885330D01*
X202419601Y-84882013D01*
X202442868Y-84819874D01*
X202479028Y-84747253D01*
X202519879Y-84678105D01*
X202557224Y-84626383D01*
X202582860Y-84606042D01*
X202584919Y-84606062D01*
X202600634Y-84610937D01*
X202600633Y-84630977D01*
X202582389Y-84675688D01*
X202543373Y-84754580D01*
X202511732Y-84824126D01*
X202486536Y-84903506D01*
X202483307Y-84957476D01*
X202503590Y-84977387D01*
X202515648Y-84973012D01*
X202539948Y-84940253D01*
X202550542Y-84923101D01*
X202589460Y-84903118D01*
X202607369Y-84907343D01*
X202638973Y-84940253D01*
X202649991Y-84954630D01*
X202685818Y-84968257D01*
X202753338Y-84975351D01*
X202861397Y-84977387D01*
X202867385Y-84977385D01*
X202978291Y-84975041D01*
X203050478Y-84964546D01*
X203094226Y-84940368D01*
X203119815Y-84896979D01*
X203137525Y-84828849D01*
X203159952Y-84753615D01*
X203192063Y-84681505D01*
X203226088Y-84627376D01*
X203254266Y-84606042D01*
X203268597Y-84610103D01*
X203271081Y-84629634D01*
X203259135Y-84674911D01*
X203231181Y-84756203D01*
X203216903Y-84800963D01*
X203203739Y-84861953D01*
X203205989Y-84893187D01*
X203207339Y-84894237D01*
X203243662Y-84904281D01*
X203314056Y-84914254D01*
X203404688Y-84922139D01*
X203488116Y-84925395D01*
X203575763Y-84917186D01*
X203631152Y-84888040D01*
X203663858Y-84831779D01*
X203683455Y-84742223D01*
X203691349Y-84654643D01*
X203678204Y-84559854D01*
X203632691Y-84474680D01*
X203548854Y-84383235D01*
X203462968Y-84308628D01*
X203329984Y-84224405D01*
X203174660Y-84164489D01*
X203088013Y-84138484D01*
X203187038Y-84151666D01*
X203234336Y-84160234D01*
X203372022Y-84204564D01*
X203512887Y-84272778D01*
X203639426Y-84355538D01*
X203734132Y-84443504D01*
X203740590Y-84451313D01*
X203772840Y-84491297D01*
X203799508Y-84520005D01*
X203828425Y-84538303D01*
X203867423Y-84547057D01*
X203924332Y-84547132D01*
X204006985Y-84539395D01*
X204123212Y-84524711D01*
X204280845Y-84503946D01*
X204354548Y-84495025D01*
X204438034Y-84489472D01*
X204510909Y-84494212D01*
X204592392Y-84510957D01*
X204701703Y-84541419D01*
X204711682Y-84544316D01*
X204829397Y-84574525D01*
X204943046Y-84594260D01*
X205070452Y-84605899D01*
X205229436Y-84611820D01*
X205538890Y-84618420D01*
X205530840Y-84544445D01*
X205518176Y-84485487D01*
X205495992Y-84438182D01*
X205482701Y-84414390D01*
X205497853Y-84377235D01*
X205506441Y-84369855D01*
X205540862Y-84366681D01*
X205575557Y-84408600D01*
X205612540Y-84497728D01*
X205637048Y-84556223D01*
X205671019Y-84589281D01*
X205727625Y-84601834D01*
X205749626Y-84603554D01*
X205842569Y-84602421D01*
X205930156Y-84590334D01*
X205997692Y-84570078D01*
X206030481Y-84544439D01*
X206031921Y-84533752D01*
X206018349Y-84484344D01*
X205984385Y-84422549D01*
X205969297Y-84398688D01*
X205945744Y-84348196D01*
X205946359Y-84321968D01*
X205987435Y-84318325D01*
X206043578Y-84343421D01*
X206092583Y-84389880D01*
X206118899Y-84416239D01*
X206150578Y-84412735D01*
X206155132Y-84406750D01*
X206155952Y-84360755D01*
X206124123Y-84294084D01*
X206063834Y-84216227D01*
X206049195Y-84198942D01*
X206027542Y-84157108D01*
X206043236Y-84141816D01*
X206093230Y-84158995D01*
X206098007Y-84161497D01*
X206132989Y-84173050D01*
X206136916Y-84159228D01*
X206114797Y-84127439D01*
X206071645Y-84085092D01*
X206012471Y-84039596D01*
X206001716Y-84032448D01*
X205917437Y-83986536D01*
X205836732Y-83957364D01*
X205772200Y-83948418D01*
X205736439Y-83963188D01*
X205732026Y-83969036D01*
X205695314Y-83987134D01*
X205683640Y-83981559D01*
X205698580Y-83951476D01*
X205710867Y-83935421D01*
X205707336Y-83927786D01*
X205666590Y-83944882D01*
X205626988Y-83969343D01*
X205615019Y-83990144D01*
X205602758Y-84005020D01*
X205557204Y-84019055D01*
X205535558Y-84023951D01*
X205466172Y-84042035D01*
X205364907Y-84069926D01*
X205241645Y-84104882D01*
X205106269Y-84144161D01*
X205030473Y-84166220D01*
X204888872Y-84205913D01*
X204789500Y-84230971D01*
X204729042Y-84242073D01*
X204704185Y-84239899D01*
X204711616Y-84225130D01*
X204717013Y-84221719D01*
X204757722Y-84199553D01*
X204831137Y-84161018D01*
X204929179Y-84110333D01*
X205043763Y-84051717D01*
X205227265Y-83957310D01*
X205380281Y-83875730D01*
X205749319Y-83875730D01*
X205761697Y-83888108D01*
X205774075Y-83875730D01*
X205761697Y-83863352D01*
X205749319Y-83875730D01*
X205380281Y-83875730D01*
X205388050Y-83871588D01*
X205521818Y-83795709D01*
X205637787Y-83723952D01*
X205745171Y-83650599D01*
X205853188Y-83569928D01*
X205971054Y-83476220D01*
X206189184Y-83277111D01*
X206397300Y-83033288D01*
X206563134Y-82773090D01*
X206566149Y-82767426D01*
X206610150Y-82676264D01*
X206652630Y-82574765D01*
X206689768Y-82474001D01*
X206717744Y-82385040D01*
X206732738Y-82318953D01*
X206730931Y-82286810D01*
X206724632Y-82289355D01*
X206690507Y-82317517D01*
X206634283Y-82370142D01*
X206564048Y-82439817D01*
X206515227Y-82488914D01*
X206426266Y-82574575D01*
X206368425Y-82623953D01*
X206342139Y-82636976D01*
X206347848Y-82613574D01*
X206385986Y-82553675D01*
X206456991Y-82457209D01*
X206462117Y-82450482D01*
X206632747Y-82214795D01*
X206778025Y-81990383D01*
X206894957Y-81782561D01*
X206980547Y-81596638D01*
X207031800Y-81437927D01*
X207041200Y-81392498D01*
X207048140Y-81317443D01*
X207035241Y-81285540D01*
X207003615Y-81297966D01*
X206954369Y-81355896D01*
X206911831Y-81411883D01*
X206891957Y-81429354D01*
X206895553Y-81409181D01*
X206922108Y-81354091D01*
X206971108Y-81266813D01*
X207036894Y-81140958D01*
X207131184Y-80887564D01*
X207189778Y-80612950D01*
X207209863Y-80328167D01*
X207208488Y-80254585D01*
X207200118Y-80119596D01*
X207185397Y-79982869D01*
X207165763Y-79850778D01*
X207142658Y-79729695D01*
X207117521Y-79625992D01*
X207091794Y-79546041D01*
X207066916Y-79496215D01*
X207044329Y-79482886D01*
X207025471Y-79512426D01*
X207025012Y-79513905D01*
X207012427Y-79554876D01*
X206990258Y-79627355D01*
X206962995Y-79716666D01*
X206939366Y-79786249D01*
X206892792Y-79904209D01*
X206835776Y-80034726D01*
X206773920Y-80166031D01*
X206712828Y-80286354D01*
X206658102Y-80383926D01*
X206615344Y-80446978D01*
X206604834Y-80455759D01*
X206609252Y-80434405D01*
X206633217Y-80379963D01*
X206674343Y-80298440D01*
X206696278Y-80255675D01*
X206821088Y-79956547D01*
X206905354Y-79637573D01*
X206949874Y-79294847D01*
X206955448Y-78924463D01*
X206948553Y-78793276D01*
X206934339Y-78640527D01*
X206915223Y-78509728D01*
X206892501Y-78407769D01*
X206867469Y-78341540D01*
X206841421Y-78317933D01*
X206822061Y-78331237D01*
X206794543Y-78373635D01*
X206781207Y-78393538D01*
X206772635Y-78381964D01*
X206767974Y-78332399D01*
X206766004Y-78239093D01*
X206757952Y-78071192D01*
X206715972Y-77807858D01*
X206635955Y-77548656D01*
X206515316Y-77285933D01*
X206351467Y-77012036D01*
X206325359Y-76973074D01*
X206255454Y-76877249D01*
X206204486Y-76824406D01*
X206170185Y-76813470D01*
X206150277Y-76843364D01*
X206142491Y-76913011D01*
X206139786Y-76981500D01*
X206132198Y-77066434D01*
X206121620Y-77102015D01*
X206108646Y-77088246D01*
X206093867Y-77025131D01*
X206077876Y-76912671D01*
X206054711Y-76748534D01*
X205980710Y-76404761D01*
X205876941Y-76095226D01*
X205876848Y-76094997D01*
X205823648Y-75972937D01*
X205769421Y-75863389D01*
X205718946Y-75774748D01*
X205677003Y-75715407D01*
X205648370Y-75693761D01*
X205636373Y-75701327D01*
X205607166Y-75742909D01*
X205574522Y-75808669D01*
X205555638Y-75850570D01*
X205530179Y-75899064D01*
X205516533Y-75913883D01*
X205515632Y-75910348D01*
X205518022Y-75871088D01*
X205527591Y-75798962D01*
X205542800Y-75706139D01*
X205557973Y-75595530D01*
X205565588Y-75477260D01*
X205562398Y-75384307D01*
X205528355Y-75187743D01*
X205453021Y-74911049D01*
X205349220Y-74635530D01*
X205223047Y-74379242D01*
X205199163Y-74338779D01*
X205136429Y-74243299D01*
X205063287Y-74142139D01*
X204987240Y-74044719D01*
X204915794Y-73960461D01*
X204856453Y-73898788D01*
X204816723Y-73869121D01*
X204809015Y-73866650D01*
X204768173Y-73877607D01*
X204743311Y-73934912D01*
X204734688Y-74038033D01*
X204732594Y-74083312D01*
X204722309Y-74184655D01*
X204705568Y-74308747D01*
X204684752Y-74439869D01*
X204662242Y-74562304D01*
X204640419Y-74660334D01*
X204638150Y-74664745D01*
X204633273Y-74642106D01*
X204629081Y-74578551D01*
X204625803Y-74480075D01*
X204623668Y-74352673D01*
X204622905Y-74202342D01*
X204622905Y-73676120D01*
X204539610Y-73440935D01*
X204517249Y-73379912D01*
X204475925Y-73276298D01*
X204438038Y-73191669D01*
X204409639Y-73140037D01*
X204407535Y-73137058D01*
X204375985Y-73087406D01*
X204362964Y-73057323D01*
X204349210Y-73028805D01*
X204312719Y-72974060D01*
X204262008Y-72904373D01*
X204205599Y-72830846D01*
X204152011Y-72764580D01*
X204109766Y-72716679D01*
X204087384Y-72698245D01*
X204063945Y-72711468D01*
X204015305Y-72751451D01*
X203953984Y-72808847D01*
X203831015Y-72908334D01*
X203713658Y-72959184D01*
X203603199Y-72961155D01*
X203500493Y-72914425D01*
X203406395Y-72819177D01*
X203321761Y-72675589D01*
X203295418Y-72622977D01*
X203264960Y-72570159D01*
X203247178Y-72549707D01*
X203244748Y-72567091D01*
X203252961Y-72620414D01*
X203270772Y-72697144D01*
X203279986Y-72733757D01*
X203294859Y-72813324D01*
X203293668Y-72873340D01*
X203276932Y-72933772D01*
X203274333Y-72941004D01*
X203257910Y-72998886D01*
X203265284Y-73035021D01*
X203300105Y-73071033D01*
X203322201Y-73090962D01*
X203341568Y-73115035D01*
X203320320Y-73112042D01*
X203257948Y-73082120D01*
X203192713Y-73056693D01*
X203126704Y-73044986D01*
X203066371Y-73044833D01*
X203132894Y-72975399D01*
X203142364Y-72965140D01*
X203181398Y-72906026D01*
X203197181Y-72836000D01*
X203190666Y-72743660D01*
X203162806Y-72617604D01*
X203162015Y-72614602D01*
X203125137Y-72504154D01*
X203068352Y-72367527D01*
X202998613Y-72219507D01*
X202996096Y-72214701D01*
X203085607Y-72214701D01*
X203100507Y-72254394D01*
X203135663Y-72314522D01*
X203141448Y-72322119D01*
X203163056Y-72344985D01*
X203171831Y-72331183D01*
X203173872Y-72274293D01*
X203169891Y-72188512D01*
X203159058Y-72106544D01*
X203143457Y-72028537D01*
X203108216Y-72096465D01*
X203087495Y-72156888D01*
X203085607Y-72214701D01*
X202996096Y-72214701D01*
X202922873Y-72074878D01*
X202848085Y-71948424D01*
X202805390Y-71877358D01*
X202784778Y-71831418D01*
X202792903Y-71824573D01*
X202827912Y-71857617D01*
X202887954Y-71931344D01*
X202935050Y-71988253D01*
X202983359Y-72036168D01*
X203014439Y-72054580D01*
X203020182Y-72054136D01*
X203052212Y-72027032D01*
X203068285Y-71965679D01*
X203069065Y-71880931D01*
X203055217Y-71783641D01*
X203027405Y-71684660D01*
X202986294Y-71594841D01*
X202965884Y-71559800D01*
X203065154Y-71559800D01*
X203081266Y-71628567D01*
X203091883Y-71653964D01*
X203119525Y-71698179D01*
X203141161Y-71705816D01*
X203149903Y-71672468D01*
X203142491Y-71619632D01*
X203122381Y-71565225D01*
X203097270Y-71528781D01*
X203074919Y-71525510D01*
X203065154Y-71559800D01*
X202965884Y-71559800D01*
X202927599Y-71494070D01*
X203004554Y-71415358D01*
X203039127Y-71381857D01*
X203093905Y-71344345D01*
X203138203Y-71345063D01*
X203183201Y-71381919D01*
X203200135Y-71407710D01*
X203218609Y-71477348D01*
X203224575Y-71586159D01*
X203225543Y-71638381D01*
X203227002Y-71672468D01*
X203230447Y-71752952D01*
X203238529Y-71885757D01*
X203248706Y-72017446D01*
X203258405Y-72112043D01*
X203284783Y-72274293D01*
X203293802Y-72329771D01*
X203343392Y-72512559D01*
X203405678Y-72658025D01*
X203479165Y-72763785D01*
X203562357Y-72827456D01*
X203653758Y-72846656D01*
X203751872Y-72819002D01*
X203838859Y-72759285D01*
X203918335Y-72674631D01*
X203967030Y-72586332D01*
X203981630Y-72548586D01*
X204009270Y-72518834D01*
X204054794Y-72519137D01*
X204064555Y-72520472D01*
X204139050Y-72505654D01*
X204221193Y-72456378D01*
X204301534Y-72382638D01*
X204370622Y-72294433D01*
X204419005Y-72201759D01*
X204437233Y-72114612D01*
X204433075Y-72082800D01*
X204391354Y-71996997D01*
X204306980Y-71898206D01*
X204182641Y-71789278D01*
X204021026Y-71673067D01*
X203946909Y-71621849D01*
X203830881Y-71534787D01*
X203724881Y-71447856D01*
X203645030Y-71373881D01*
X203604014Y-71332714D01*
X203480224Y-71225956D01*
X203363378Y-71159166D01*
X203242026Y-71128948D01*
X203104716Y-71131902D01*
X202939998Y-71164631D01*
X202906458Y-71173017D01*
X202800145Y-71195936D01*
X202735060Y-71202284D01*
X202707041Y-71192560D01*
X202681076Y-71171738D01*
X202621353Y-71138074D01*
X202542532Y-71100679D01*
X202475132Y-71070868D01*
X202364951Y-71021264D01*
X202270166Y-70977677D01*
X202193468Y-70942717D01*
X201991294Y-70860577D01*
X201784378Y-70792676D01*
X201557799Y-70734473D01*
X201296633Y-70681427D01*
X201069574Y-70650774D01*
X200842076Y-70648495D01*
X200641129Y-70680603D01*
X200607996Y-70689121D01*
X200518674Y-70709891D01*
X200471734Y-70715646D01*
X200463439Y-70706425D01*
X200490055Y-70682270D01*
X200500470Y-70674279D01*
X200523167Y-70644453D01*
X200505916Y-70614190D01*
X200485652Y-70603700D01*
X200441065Y-70595054D01*
X200367832Y-70588934D01*
X200260742Y-70585060D01*
X200114583Y-70583151D01*
X199924143Y-70582928D01*
X199374562Y-70584278D01*
X198981998Y-70688691D01*
X198896555Y-70711569D01*
X198747623Y-70752726D01*
X198639280Y-70785223D01*
X198566379Y-70811005D01*
X198523773Y-70832018D01*
X198506315Y-70850207D01*
X198508858Y-70867518D01*
X198514713Y-70884092D01*
X198497834Y-70888482D01*
X198450153Y-70873477D01*
X198367437Y-70837664D01*
X198245448Y-70779629D01*
X198198166Y-70757328D01*
X198087681Y-70710811D01*
X197995273Y-70679618D01*
X197933480Y-70668225D01*
X197927127Y-70668357D01*
X197838447Y-70686812D01*
X197726908Y-70732322D01*
X197604997Y-70798965D01*
X197485200Y-70880819D01*
X197446163Y-70909604D01*
X197389471Y-70945261D01*
X197327717Y-70973500D01*
X197249959Y-70998221D01*
X197145254Y-71023319D01*
X197002659Y-71052695D01*
X196971727Y-71059090D01*
X196813457Y-71103128D01*
X196700475Y-71158770D01*
X196629767Y-71228815D01*
X196598318Y-71316057D01*
X196603112Y-71423293D01*
X196606896Y-71441880D01*
X196631659Y-71527233D01*
X196664227Y-71604906D01*
X196698167Y-71661404D01*
X196727047Y-71683235D01*
X196742913Y-71694503D01*
X196749716Y-71739461D01*
X196745199Y-71825584D01*
X196743029Y-71851530D01*
X196741419Y-71930828D01*
X196753679Y-71984216D01*
X196783180Y-72029824D01*
X196819570Y-72068928D01*
X196852514Y-72076923D01*
X196902284Y-72054379D01*
X196932730Y-72030757D01*
X196967376Y-71986276D01*
X197008098Y-71915324D01*
X197058673Y-71811276D01*
X197100915Y-71716689D01*
X197214116Y-71716689D01*
X197226388Y-71716959D01*
X197258833Y-71676126D01*
X197295848Y-71619796D01*
X197319312Y-71579777D01*
X197322383Y-71562911D01*
X197309274Y-71559453D01*
X197306405Y-71559872D01*
X197277460Y-71584683D01*
X197244328Y-71636023D01*
X197223774Y-71680173D01*
X197214116Y-71716689D01*
X197100915Y-71716689D01*
X197122880Y-71667505D01*
X197180503Y-71539512D01*
X197285604Y-71330382D01*
X197363602Y-71201948D01*
X197505459Y-71201948D01*
X197505700Y-71205408D01*
X197520031Y-71210860D01*
X197544958Y-71184283D01*
X197550981Y-71170448D01*
X197534040Y-71173366D01*
X197523043Y-71181008D01*
X197505459Y-71201948D01*
X197363602Y-71201948D01*
X197384872Y-71166924D01*
X197479660Y-71047029D01*
X197513762Y-71017845D01*
X197777779Y-71017845D01*
X197792021Y-71036731D01*
X197833119Y-71032135D01*
X197886793Y-71002330D01*
X197906614Y-70986617D01*
X197919140Y-70966036D01*
X197892667Y-70950835D01*
X197845043Y-70951967D01*
X197798558Y-70978822D01*
X197777779Y-71017845D01*
X197513762Y-71017845D01*
X197571321Y-70968587D01*
X197610908Y-70945842D01*
X197716193Y-70906760D01*
X197817434Y-70895231D01*
X197898215Y-70913998D01*
X197908191Y-70919984D01*
X197938357Y-70962697D01*
X197937772Y-70966036D01*
X197927599Y-71024094D01*
X197875175Y-71106039D01*
X197816647Y-71170448D01*
X197780343Y-71210400D01*
X197731421Y-71260447D01*
X197582972Y-71425967D01*
X197473384Y-71562911D01*
X197440909Y-71603492D01*
X197311396Y-71784087D01*
X197200596Y-71958817D01*
X197114673Y-72118747D01*
X197059791Y-72254942D01*
X197034965Y-72319484D01*
X196977337Y-72429627D01*
X196908562Y-72530828D01*
X196853023Y-72603815D01*
X196698558Y-72836648D01*
X196557394Y-73092587D01*
X196434330Y-73360497D01*
X196334164Y-73629244D01*
X196261694Y-73887693D01*
X196221719Y-74124708D01*
X196215759Y-74183185D01*
X196207393Y-74251768D01*
X196200342Y-74278660D01*
X196192739Y-74268754D01*
X196182716Y-74226948D01*
X196178549Y-74209586D01*
X196157545Y-74155972D01*
X196134916Y-74134641D01*
X196125426Y-74137125D01*
X196083813Y-74174172D01*
X196025420Y-74253682D01*
X195951931Y-74373185D01*
X195865031Y-74530214D01*
X195860271Y-74539189D01*
X195780278Y-74701132D01*
X195718546Y-74854102D01*
X195668127Y-75017571D01*
X195622070Y-75211013D01*
X195606630Y-75281946D01*
X195591680Y-75344327D01*
X195583134Y-75364809D01*
X195578925Y-75347271D01*
X195576984Y-75295597D01*
X195575577Y-75261977D01*
X195568716Y-75198709D01*
X195558832Y-75166497D01*
X195544113Y-75158987D01*
X195506038Y-75172279D01*
X195451166Y-75222084D01*
X195377167Y-75310705D01*
X195281712Y-75440447D01*
X195276966Y-75447157D01*
X195163827Y-75613252D01*
X195066243Y-75771233D01*
X194976620Y-75934939D01*
X194887363Y-76118209D01*
X194790878Y-76334883D01*
X194783357Y-76352235D01*
X194729073Y-76472836D01*
X194676830Y-76581736D01*
X194632244Y-76667581D01*
X194600929Y-76719013D01*
X194545047Y-76799532D01*
X194428103Y-77008382D01*
X194315384Y-77266078D01*
X194207033Y-77572275D01*
X194103190Y-77926630D01*
X194028475Y-78256057D01*
X193968377Y-78694523D01*
X193947455Y-79156876D01*
X193965423Y-79646674D01*
X193970649Y-79718286D01*
X193979949Y-79857603D01*
X193984679Y-79960523D01*
X193984653Y-80036150D01*
X193979680Y-80093586D01*
X193969572Y-80141935D01*
X193954139Y-80190300D01*
X193925544Y-80295261D01*
X193903138Y-80444976D01*
X193895338Y-80601270D01*
X193794056Y-80601270D01*
X193793581Y-80593819D01*
X193802619Y-80419529D01*
X193831365Y-80260317D01*
X193834604Y-80247943D01*
X193847701Y-80188807D01*
X193855832Y-80127071D01*
X193859166Y-80053385D01*
X193857873Y-79958402D01*
X193852121Y-79832774D01*
X193842079Y-79667153D01*
X193829798Y-79399087D01*
X193834278Y-78960519D01*
X193872473Y-78536808D01*
X193945988Y-78113032D01*
X194056427Y-77674268D01*
X194061962Y-77655068D01*
X194161118Y-77342671D01*
X194264081Y-77076328D01*
X194370367Y-76857174D01*
X194479490Y-76686342D01*
X194486305Y-76676700D01*
X194523853Y-76613403D01*
X194573830Y-76518563D01*
X194630531Y-76403315D01*
X194688250Y-76278796D01*
X194696060Y-76261459D01*
X194758108Y-76126916D01*
X194821386Y-75994496D01*
X194878897Y-75878623D01*
X194923641Y-75793721D01*
X194950130Y-75747014D01*
X195007054Y-75650106D01*
X195069307Y-75547426D01*
X195130812Y-75448671D01*
X195185494Y-75363535D01*
X195227274Y-75301714D01*
X195250076Y-75272904D01*
X195272209Y-75246759D01*
X195316322Y-75182640D01*
X195375499Y-75089953D01*
X195444946Y-74976664D01*
X195519868Y-74850733D01*
X195595468Y-74720126D01*
X195666951Y-74592806D01*
X195729522Y-74476735D01*
X195746215Y-74445122D01*
X195813464Y-74320884D01*
X195883758Y-74194842D01*
X195944342Y-74089959D01*
X196002501Y-73983937D01*
X196066781Y-73852116D01*
X196118373Y-73731580D01*
X196125014Y-73714506D01*
X196224547Y-73485958D01*
X196352843Y-73231346D01*
X196504876Y-72959685D01*
X196675621Y-72679988D01*
X196860052Y-72401270D01*
X196898591Y-72344608D01*
X196954030Y-72256657D01*
X196979842Y-72200018D01*
X196976575Y-72169519D01*
X196944780Y-72159985D01*
X196885004Y-72166245D01*
X196842910Y-72171849D01*
X196781559Y-72167117D01*
X196733932Y-72137534D01*
X196695450Y-72096408D01*
X196636180Y-71992896D01*
X196614231Y-71883432D01*
X196611181Y-71850044D01*
X196593212Y-71769308D01*
X196564485Y-71682644D01*
X196535098Y-71605182D01*
X196496283Y-71481484D01*
X196480673Y-71384344D01*
X196487092Y-71303072D01*
X196514364Y-71226980D01*
X196527217Y-71202704D01*
X196579010Y-71127404D01*
X196633247Y-71072485D01*
X196650687Y-71060702D01*
X196738742Y-71015724D01*
X196856050Y-70969599D01*
X196987275Y-70927398D01*
X197117078Y-70894195D01*
X197230124Y-70875063D01*
X197253657Y-70872411D01*
X197343473Y-70854948D01*
X197416236Y-70821549D01*
X197496854Y-70761620D01*
X197646215Y-70653835D01*
X197789251Y-70587076D01*
X197925467Y-70565250D01*
X198060041Y-70587555D01*
X198198148Y-70653192D01*
X198334796Y-70737185D01*
X198486830Y-70705589D01*
X198552752Y-70690798D01*
X198664685Y-70662156D01*
X198759149Y-70634161D01*
X198770841Y-70630428D01*
X198848914Y-70608350D01*
X198959478Y-70579892D01*
X199089519Y-70548323D01*
X199226024Y-70516911D01*
X199391305Y-70483798D01*
X199595249Y-70454635D01*
X199806682Y-70438480D01*
X200035773Y-70434936D01*
X200292696Y-70443612D01*
X200587623Y-70464111D01*
X200858065Y-70489957D01*
X201172060Y-70531767D01*
X201460448Y-70586443D01*
X201736215Y-70657429D01*
X202012347Y-70748172D01*
X202301827Y-70862115D01*
X202617642Y-71002705D01*
X202815693Y-71094841D01*
X203030733Y-71051777D01*
X203141178Y-71032486D01*
X203278080Y-71022502D01*
X203394671Y-71037958D01*
X203503099Y-71082653D01*
X203615512Y-71160390D01*
X203744055Y-71274968D01*
X203753922Y-71284294D01*
X203859567Y-71377021D01*
X203980505Y-71473795D01*
X204092474Y-71555107D01*
X204143008Y-71589924D01*
X204297793Y-71706853D01*
X204424611Y-71819246D01*
X204517787Y-71921729D01*
X204571644Y-72008925D01*
X204593169Y-72100658D01*
X204576686Y-72220309D01*
X204512542Y-72348564D01*
X204400385Y-72486412D01*
X204382660Y-72505154D01*
X204322213Y-72571564D01*
X204279884Y-72622037D01*
X204263939Y-72646855D01*
X204274669Y-72670078D01*
X204307336Y-72712144D01*
X204340125Y-72750862D01*
X204387794Y-72813794D01*
X204414585Y-72851712D01*
X204464302Y-72921150D01*
X204528932Y-73010911D01*
X204601204Y-73110870D01*
X204651219Y-73180021D01*
X204722357Y-73279866D01*
X204772532Y-73354459D01*
X204807072Y-73413294D01*
X204831304Y-73465865D01*
X204850555Y-73521667D01*
X204870153Y-73590195D01*
X204877254Y-73614151D01*
X204931913Y-73734321D01*
X205021700Y-73850136D01*
X205137929Y-73985650D01*
X205299341Y-74206195D01*
X205437407Y-74433973D01*
X205462129Y-74481688D01*
X205535883Y-74644527D01*
X205607230Y-74829011D01*
X205670635Y-75018978D01*
X205720560Y-75198269D01*
X205751471Y-75350723D01*
X205770726Y-75458379D01*
X205807660Y-75583043D01*
X205861922Y-75693761D01*
X205872647Y-75712217D01*
X205978755Y-75921495D01*
X206069556Y-76147728D01*
X206134705Y-76365443D01*
X206160341Y-76459812D01*
X206193738Y-76541476D01*
X206242526Y-76619433D01*
X206316732Y-76712820D01*
X206482955Y-76934486D01*
X206656034Y-77229336D01*
X206793167Y-77542145D01*
X206887894Y-77859941D01*
X206888447Y-77862382D01*
X206919672Y-77982158D01*
X206958305Y-78106206D01*
X206996116Y-78208052D01*
X207068603Y-78404791D01*
X207119477Y-78625146D01*
X207135673Y-78846646D01*
X207135894Y-78874917D01*
X207144224Y-79001705D01*
X207167477Y-79127117D01*
X207209574Y-79273825D01*
X207214018Y-79287854D01*
X207290151Y-79595805D01*
X207336095Y-79929939D01*
X207351261Y-80277349D01*
X207348893Y-80328167D01*
X207335055Y-80625129D01*
G37*
%TD*%
%LPC*%
%LPD*%
M02*
