%TF.GenerationSoftware,KiCad,Pcbnew,9.0.7+dfsg-1*%
%TF.CreationDate,2026-03-29T07:57:48-07:00*%
%TF.ProjectId,ffc_adapter,6666635f-6164-4617-9074-65722e6b6963,rev?*%
%TF.SameCoordinates,Original*%
%TF.FileFunction,Soldermask,Top*%
%TF.FilePolarity,Negative*%
%FSLAX46Y46*%
G04 Gerber Fmt 4.6, Leading zero omitted, Abs format (unit mm)*
G04 Created by KiCad (PCBNEW 9.0.7+dfsg-1) date 2026-03-29 07:57:48*
%MOMM*%
%LPD*%
G01*
G04 APERTURE LIST*
G04 Aperture macros list*
%AMRoundRect*
0 Rectangle with rounded corners*
0 $1 Rounding radius*
0 $2 $3 $4 $5 $6 $7 $8 $9 X,Y pos of 4 corners*
0 Add a 4 corners polygon primitive as box body*
4,1,4,$2,$3,$4,$5,$6,$7,$8,$9,$2,$3,0*
0 Add four circle primitives for the rounded corners*
1,1,$1+$1,$2,$3*
1,1,$1+$1,$4,$5*
1,1,$1+$1,$6,$7*
1,1,$1+$1,$8,$9*
0 Add four rect primitives between the rounded corners*
20,1,$1+$1,$2,$3,$4,$5,0*
20,1,$1+$1,$4,$5,$6,$7,0*
20,1,$1+$1,$6,$7,$8,$9,0*
20,1,$1+$1,$8,$9,$2,$3,0*%
G04 Aperture macros list end*
%ADD10RoundRect,0.250000X-0.250000X-0.475000X0.250000X-0.475000X0.250000X0.475000X-0.250000X0.475000X0*%
%ADD11RoundRect,0.100000X-0.637500X-0.100000X0.637500X-0.100000X0.637500X0.100000X-0.637500X0.100000X0*%
%ADD12RoundRect,0.218750X0.256250X-0.218750X0.256250X0.218750X-0.256250X0.218750X-0.256250X-0.218750X0*%
%ADD13RoundRect,0.218750X0.218750X0.256250X-0.218750X0.256250X-0.218750X-0.256250X0.218750X-0.256250X0*%
%ADD14RoundRect,0.250000X0.475000X-0.250000X0.475000X0.250000X-0.475000X0.250000X-0.475000X-0.250000X0*%
%ADD15RoundRect,0.375000X-0.625000X-0.375000X0.625000X-0.375000X0.625000X0.375000X-0.625000X0.375000X0*%
%ADD16RoundRect,0.500000X-0.500000X-1.400000X0.500000X-1.400000X0.500000X1.400000X-0.500000X1.400000X0*%
%ADD17RoundRect,0.218750X-0.218750X-0.256250X0.218750X-0.256250X0.218750X0.256250X-0.218750X0.256250X0*%
%ADD18RoundRect,0.375000X0.625000X0.375000X-0.625000X0.375000X-0.625000X-0.375000X0.625000X-0.375000X0*%
%ADD19RoundRect,0.500000X0.500000X1.400000X-0.500000X1.400000X-0.500000X-1.400000X0.500000X-1.400000X0*%
%ADD20RoundRect,0.250000X0.450000X-0.350000X0.450000X0.350000X-0.450000X0.350000X-0.450000X-0.350000X0*%
%ADD21RoundRect,0.250000X-0.350000X-0.450000X0.350000X-0.450000X0.350000X0.450000X-0.350000X0.450000X0*%
%ADD22RoundRect,0.250000X0.250000X0.475000X-0.250000X0.475000X-0.250000X-0.475000X0.250000X-0.475000X0*%
%ADD23RoundRect,0.250000X-0.475000X0.250000X-0.475000X-0.250000X0.475000X-0.250000X0.475000X0.250000X0*%
%ADD24RoundRect,0.250000X0.350000X0.450000X-0.350000X0.450000X-0.350000X-0.450000X0.350000X-0.450000X0*%
%ADD25R,1.300000X0.300000*%
%ADD26R,2.200000X1.800000*%
G04 APERTURE END LIST*
D10*
%TO.C,C4*%
X181300000Y-75400000D03*
X183200000Y-75400000D03*
%TD*%
D11*
%TO.C,U1*%
X187337500Y-67350000D03*
X187337500Y-68000000D03*
X187337500Y-68650000D03*
X187337500Y-69300000D03*
X187337500Y-69950000D03*
X187337500Y-70600000D03*
X187337500Y-71250000D03*
X187337500Y-71900000D03*
X187337500Y-72550000D03*
X187337500Y-73200000D03*
X193062500Y-73200000D03*
X193062500Y-72550000D03*
X193062500Y-71900000D03*
X193062500Y-71250000D03*
X193062500Y-70600000D03*
X193062500Y-69950000D03*
X193062500Y-69300000D03*
X193062500Y-68650000D03*
X193062500Y-68000000D03*
X193062500Y-67350000D03*
%TD*%
D12*
%TO.C,D3*%
X177600000Y-84000000D03*
X177600000Y-82425000D03*
%TD*%
D13*
%TO.C,D4*%
X198187500Y-74800000D03*
X196612500Y-74800000D03*
%TD*%
D14*
%TO.C,C5*%
X200600000Y-81500000D03*
X200600000Y-79600000D03*
%TD*%
D13*
%TO.C,D1*%
X175200000Y-83400000D03*
X173625000Y-83400000D03*
%TD*%
D15*
%TO.C,U3*%
X182450000Y-79500000D03*
X182450000Y-81800000D03*
D16*
X188750000Y-81800000D03*
D15*
X182450000Y-84100000D03*
%TD*%
D17*
%TO.C,D2*%
X204412500Y-80400000D03*
X205987500Y-80400000D03*
%TD*%
D10*
%TO.C,C6*%
X185050000Y-75400000D03*
X186950000Y-75400000D03*
%TD*%
D18*
%TO.C,U2*%
X197900000Y-84100000D03*
X197900000Y-81800000D03*
D19*
X191600000Y-81800000D03*
D18*
X197900000Y-79500000D03*
%TD*%
D20*
%TO.C,R3*%
X179800000Y-84200000D03*
X179800000Y-82200000D03*
%TD*%
D21*
%TO.C,R4*%
X194612500Y-76800000D03*
X196612500Y-76800000D03*
%TD*%
%TO.C,R2*%
X202800000Y-78000000D03*
X204800000Y-78000000D03*
%TD*%
D22*
%TO.C,C2*%
X192750000Y-75800000D03*
X190850000Y-75800000D03*
%TD*%
D23*
%TO.C,C3*%
X200600000Y-83050000D03*
X200600000Y-84950000D03*
%TD*%
D24*
%TO.C,R1*%
X175400000Y-80800000D03*
X173400000Y-80800000D03*
%TD*%
D25*
%TO.C,J14*%
X178850000Y-68900000D03*
X178850000Y-69400000D03*
X178850000Y-69900000D03*
X178850000Y-70400000D03*
X178850000Y-70900000D03*
X178850000Y-71400000D03*
X178850000Y-71900000D03*
X178850000Y-72400000D03*
X178850000Y-72900000D03*
X178850000Y-73400000D03*
D26*
X175600000Y-67000000D03*
X175600000Y-75300000D03*
%TD*%
D22*
%TO.C,C1*%
X198950000Y-67000000D03*
X197050000Y-67000000D03*
%TD*%
D25*
%TO.C,J1*%
X201200000Y-73400000D03*
X201200000Y-72900000D03*
X201200000Y-72400000D03*
X201200000Y-71900000D03*
X201200000Y-71400000D03*
X201200000Y-70900000D03*
X201200000Y-70400000D03*
X201200000Y-69900000D03*
X201200000Y-69400000D03*
X201200000Y-68900000D03*
D26*
X204450000Y-75300000D03*
X204450000Y-67000000D03*
%TD*%
M02*
