%TF.GenerationSoftware,KiCad,Pcbnew,9.0.7+dfsg-1*%
%TF.CreationDate,2026-03-29T07:57:48-07:00*%
%TF.ProjectId,ffc_adapter,6666635f-6164-4617-9074-65722e6b6963,rev?*%
%TF.SameCoordinates,Original*%
%TF.FileFunction,Copper,L2,Bot*%
%TF.FilePolarity,Positive*%
%FSLAX46Y46*%
G04 Gerber Fmt 4.6, Leading zero omitted, Abs format (unit mm)*
G04 Created by KiCad (PCBNEW 9.0.7+dfsg-1) date 2026-03-29 07:57:48*
%MOMM*%
%LPD*%
G01*
G04 APERTURE LIST*
%TA.AperFunction,ViaPad*%
%ADD10C,0.600000*%
%TD*%
%TA.AperFunction,Conductor*%
%ADD11C,0.500000*%
%TD*%
G04 APERTURE END LIST*
D10*
%TO.N,5V_A_IN*%
X202600000Y-69600000D03*
%TO.N,5V_B_IN*%
X177200000Y-72800000D03*
%TO.N,GND*%
X190862500Y-72800000D03*
X200900000Y-68100000D03*
X192600000Y-77200000D03*
X175600000Y-85000000D03*
X184800000Y-77000000D03*
X202200000Y-83200000D03*
X202200000Y-81600000D03*
X179100000Y-74200000D03*
X200000000Y-67600000D03*
X205000000Y-81600000D03*
X184850000Y-82400000D03*
X195600000Y-81200000D03*
X189400000Y-79000000D03*
X198400000Y-76200000D03*
X191600000Y-84800000D03*
X180600000Y-77200000D03*
X177000000Y-85000000D03*
%TO.N,3V3_OUT*%
X186950000Y-79650000D03*
X189000000Y-68737500D03*
%TD*%
D11*
%TO.N,3V3_OUT*%
X186950000Y-79650000D02*
X189000000Y-77600000D01*
X189000000Y-77600000D02*
X189000000Y-68737500D01*
%TD*%
%TA.AperFunction,Conductor*%
%TO.N,GND*%
G36*
X206887348Y-66100465D02*
G01*
X206893695Y-66101644D01*
X206897406Y-66100877D01*
X206931815Y-66108729D01*
X206974560Y-66125168D01*
X206990114Y-66132422D01*
X207096448Y-66191297D01*
X207110850Y-66200629D01*
X207208030Y-66273617D01*
X207221003Y-66284847D01*
X207300356Y-66363773D01*
X207302707Y-66366175D01*
X207309543Y-66373356D01*
X207318388Y-66382648D01*
X207321888Y-66386484D01*
X207333030Y-66399217D01*
X207336086Y-66402847D01*
X207402661Y-66485075D01*
X207413879Y-66501456D01*
X207468387Y-66596589D01*
X207476847Y-66614553D01*
X207491556Y-66653631D01*
X207499505Y-66697313D01*
X207499500Y-84887395D01*
X207491236Y-84931906D01*
X207474831Y-84974562D01*
X207467577Y-84990116D01*
X207408702Y-85096449D01*
X207399369Y-85110852D01*
X207326384Y-85208027D01*
X207315151Y-85221004D01*
X207236224Y-85300356D01*
X207233803Y-85302725D01*
X207217352Y-85318385D01*
X207213510Y-85321892D01*
X207200761Y-85333047D01*
X207197137Y-85336098D01*
X207114930Y-85402658D01*
X207098547Y-85413877D01*
X207003410Y-85468387D01*
X206985446Y-85476847D01*
X206946483Y-85491513D01*
X206902759Y-85499462D01*
X172896937Y-85487764D01*
X172852470Y-85479500D01*
X172818433Y-85466410D01*
X172802878Y-85459155D01*
X172696558Y-85400287D01*
X172682154Y-85390954D01*
X172584977Y-85317966D01*
X172572001Y-85306735D01*
X172492475Y-85227636D01*
X172490117Y-85225225D01*
X172474605Y-85208927D01*
X172471118Y-85205106D01*
X172459947Y-85192339D01*
X172456898Y-85188717D01*
X172390343Y-85106511D01*
X172379126Y-85090130D01*
X172324620Y-84994999D01*
X172316163Y-84977043D01*
X172308446Y-84956542D01*
X172300500Y-84912866D01*
X172300501Y-80419735D01*
X172300501Y-79571153D01*
X186149500Y-79571153D01*
X186149500Y-79728846D01*
X186180261Y-79883489D01*
X186180264Y-79883501D01*
X186240602Y-80029172D01*
X186240609Y-80029185D01*
X186328210Y-80160288D01*
X186328213Y-80160292D01*
X186439707Y-80271786D01*
X186439711Y-80271789D01*
X186570814Y-80359390D01*
X186570827Y-80359397D01*
X186716498Y-80419735D01*
X186716503Y-80419737D01*
X186871153Y-80450499D01*
X186871156Y-80450500D01*
X186871158Y-80450500D01*
X187028844Y-80450500D01*
X187028845Y-80450499D01*
X187183497Y-80419737D01*
X187329179Y-80359394D01*
X187460289Y-80271789D01*
X187571789Y-80160289D01*
X187659394Y-80029179D01*
X187669191Y-80005524D01*
X187696069Y-79965297D01*
X189582952Y-78078416D01*
X189632186Y-78004729D01*
X189665084Y-77955495D01*
X189721658Y-77818913D01*
X189750500Y-77673918D01*
X189750500Y-69521153D01*
X201799500Y-69521153D01*
X201799500Y-69678846D01*
X201830261Y-69833489D01*
X201830264Y-69833501D01*
X201890602Y-69979172D01*
X201890609Y-69979185D01*
X201978210Y-70110288D01*
X201978213Y-70110292D01*
X202089707Y-70221786D01*
X202089711Y-70221789D01*
X202220814Y-70309390D01*
X202220827Y-70309397D01*
X202366498Y-70369735D01*
X202366503Y-70369737D01*
X202521153Y-70400499D01*
X202521156Y-70400500D01*
X202521158Y-70400500D01*
X202678844Y-70400500D01*
X202678845Y-70400499D01*
X202833497Y-70369737D01*
X202979179Y-70309394D01*
X203110289Y-70221789D01*
X203221789Y-70110289D01*
X203309394Y-69979179D01*
X203369737Y-69833497D01*
X203400500Y-69678842D01*
X203400500Y-69521158D01*
X203400500Y-69521155D01*
X203400499Y-69521153D01*
X203369738Y-69366510D01*
X203369737Y-69366503D01*
X203369735Y-69366498D01*
X203309397Y-69220827D01*
X203309390Y-69220814D01*
X203221789Y-69089711D01*
X203221786Y-69089707D01*
X203110292Y-68978213D01*
X203110288Y-68978210D01*
X202979185Y-68890609D01*
X202979172Y-68890602D01*
X202833501Y-68830264D01*
X202833489Y-68830261D01*
X202678845Y-68799500D01*
X202678842Y-68799500D01*
X202521158Y-68799500D01*
X202521155Y-68799500D01*
X202366510Y-68830261D01*
X202366498Y-68830264D01*
X202220827Y-68890602D01*
X202220814Y-68890609D01*
X202089711Y-68978210D01*
X202089707Y-68978213D01*
X201978213Y-69089707D01*
X201978210Y-69089711D01*
X201890609Y-69220814D01*
X201890602Y-69220827D01*
X201830264Y-69366498D01*
X201830261Y-69366510D01*
X201799500Y-69521153D01*
X189750500Y-69521153D01*
X189750500Y-69042104D01*
X189759939Y-68994651D01*
X189769737Y-68970997D01*
X189800500Y-68816342D01*
X189800500Y-68658658D01*
X189800500Y-68658655D01*
X189800499Y-68658653D01*
X189769738Y-68504010D01*
X189769737Y-68504003D01*
X189769735Y-68503998D01*
X189709397Y-68358327D01*
X189709390Y-68358314D01*
X189621789Y-68227211D01*
X189621786Y-68227207D01*
X189510292Y-68115713D01*
X189510288Y-68115710D01*
X189379185Y-68028109D01*
X189379172Y-68028102D01*
X189233501Y-67967764D01*
X189233489Y-67967761D01*
X189078845Y-67937000D01*
X189078842Y-67937000D01*
X188921158Y-67937000D01*
X188921155Y-67937000D01*
X188766510Y-67967761D01*
X188766498Y-67967764D01*
X188620827Y-68028102D01*
X188620814Y-68028109D01*
X188489711Y-68115710D01*
X188489707Y-68115713D01*
X188378213Y-68227207D01*
X188378210Y-68227211D01*
X188290609Y-68358314D01*
X188290602Y-68358327D01*
X188230264Y-68503998D01*
X188230261Y-68504010D01*
X188199500Y-68658653D01*
X188199500Y-68816346D01*
X188230261Y-68970989D01*
X188230263Y-68970997D01*
X188240061Y-68994651D01*
X188249500Y-69042104D01*
X188249500Y-77237769D01*
X188229815Y-77304808D01*
X188213181Y-77325450D01*
X186634703Y-78903927D01*
X186594480Y-78930805D01*
X186570819Y-78940606D01*
X186570818Y-78940607D01*
X186439715Y-79028207D01*
X186439707Y-79028213D01*
X186328213Y-79139707D01*
X186328210Y-79139711D01*
X186240609Y-79270814D01*
X186240602Y-79270827D01*
X186180264Y-79416498D01*
X186180261Y-79416510D01*
X186149500Y-79571153D01*
X172300501Y-79571153D01*
X172300503Y-72721153D01*
X176399500Y-72721153D01*
X176399500Y-72878846D01*
X176430261Y-73033489D01*
X176430264Y-73033501D01*
X176490602Y-73179172D01*
X176490609Y-73179185D01*
X176578210Y-73310288D01*
X176578213Y-73310292D01*
X176689707Y-73421786D01*
X176689711Y-73421789D01*
X176820814Y-73509390D01*
X176820827Y-73509397D01*
X176966498Y-73569735D01*
X176966503Y-73569737D01*
X177121153Y-73600499D01*
X177121156Y-73600500D01*
X177121158Y-73600500D01*
X177278844Y-73600500D01*
X177278845Y-73600499D01*
X177433497Y-73569737D01*
X177579179Y-73509394D01*
X177710289Y-73421789D01*
X177821789Y-73310289D01*
X177909394Y-73179179D01*
X177969737Y-73033497D01*
X178000500Y-72878842D01*
X178000500Y-72721158D01*
X178000500Y-72721155D01*
X178000499Y-72721153D01*
X177969738Y-72566510D01*
X177969737Y-72566503D01*
X177969735Y-72566498D01*
X177909397Y-72420827D01*
X177909390Y-72420814D01*
X177821789Y-72289711D01*
X177821786Y-72289707D01*
X177710292Y-72178213D01*
X177710288Y-72178210D01*
X177579185Y-72090609D01*
X177579172Y-72090602D01*
X177433501Y-72030264D01*
X177433489Y-72030261D01*
X177278845Y-71999500D01*
X177278842Y-71999500D01*
X177121158Y-71999500D01*
X177121155Y-71999500D01*
X176966510Y-72030261D01*
X176966498Y-72030264D01*
X176820827Y-72090602D01*
X176820814Y-72090609D01*
X176689711Y-72178210D01*
X176689707Y-72178213D01*
X176578213Y-72289707D01*
X176578210Y-72289711D01*
X176490609Y-72420814D01*
X176490602Y-72420827D01*
X176430264Y-72566498D01*
X176430261Y-72566510D01*
X176399500Y-72721153D01*
X172300503Y-72721153D01*
X172300505Y-66700827D01*
X172301689Y-66694454D01*
X172300918Y-66690726D01*
X172308769Y-66656323D01*
X172325175Y-66613670D01*
X172332416Y-66598148D01*
X172391303Y-66491803D01*
X172400622Y-66477420D01*
X172473629Y-66380223D01*
X172484846Y-66367265D01*
X172564602Y-66287081D01*
X172567011Y-66284726D01*
X172573256Y-66278782D01*
X172582649Y-66269841D01*
X172586451Y-66266371D01*
X172599260Y-66255164D01*
X172602830Y-66252159D01*
X172685065Y-66185584D01*
X172701442Y-66174370D01*
X172796585Y-66119860D01*
X172814542Y-66111403D01*
X172821646Y-66108729D01*
X172853557Y-66096717D01*
X172897276Y-66088768D01*
X206887348Y-66100465D01*
G37*
%TD.AperFunction*%
%TD*%
M02*
