%TF.GenerationSoftware,KiCad,Pcbnew,9.0.7+dfsg-1*%
%TF.CreationDate,2026-03-29T07:57:48-07:00*%
%TF.ProjectId,ffc_adapter,6666635f-6164-4617-9074-65722e6b6963,rev?*%
%TF.SameCoordinates,Original*%
%TF.FileFunction,Copper,L1,Top*%
%TF.FilePolarity,Positive*%
%FSLAX46Y46*%
G04 Gerber Fmt 4.6, Leading zero omitted, Abs format (unit mm)*
G04 Created by KiCad (PCBNEW 9.0.7+dfsg-1) date 2026-03-29 07:57:48*
%MOMM*%
%LPD*%
G01*
G04 APERTURE LIST*
G04 Aperture macros list*
%AMRoundRect*
0 Rectangle with rounded corners*
0 $1 Rounding radius*
0 $2 $3 $4 $5 $6 $7 $8 $9 X,Y pos of 4 corners*
0 Add a 4 corners polygon primitive as box body*
4,1,4,$2,$3,$4,$5,$6,$7,$8,$9,$2,$3,0*
0 Add four circle primitives for the rounded corners*
1,1,$1+$1,$2,$3*
1,1,$1+$1,$4,$5*
1,1,$1+$1,$6,$7*
1,1,$1+$1,$8,$9*
0 Add four rect primitives between the rounded corners*
20,1,$1+$1,$2,$3,$4,$5,0*
20,1,$1+$1,$4,$5,$6,$7,0*
20,1,$1+$1,$6,$7,$8,$9,0*
20,1,$1+$1,$8,$9,$2,$3,0*%
G04 Aperture macros list end*
%TA.AperFunction,SMDPad,CuDef*%
%ADD10RoundRect,0.250000X-0.250000X-0.475000X0.250000X-0.475000X0.250000X0.475000X-0.250000X0.475000X0*%
%TD*%
%TA.AperFunction,SMDPad,CuDef*%
%ADD11RoundRect,0.100000X-0.637500X-0.100000X0.637500X-0.100000X0.637500X0.100000X-0.637500X0.100000X0*%
%TD*%
%TA.AperFunction,SMDPad,CuDef*%
%ADD12RoundRect,0.218750X0.256250X-0.218750X0.256250X0.218750X-0.256250X0.218750X-0.256250X-0.218750X0*%
%TD*%
%TA.AperFunction,SMDPad,CuDef*%
%ADD13RoundRect,0.218750X0.218750X0.256250X-0.218750X0.256250X-0.218750X-0.256250X0.218750X-0.256250X0*%
%TD*%
%TA.AperFunction,SMDPad,CuDef*%
%ADD14RoundRect,0.250000X0.475000X-0.250000X0.475000X0.250000X-0.475000X0.250000X-0.475000X-0.250000X0*%
%TD*%
%TA.AperFunction,SMDPad,CuDef*%
%ADD15RoundRect,0.375000X-0.625000X-0.375000X0.625000X-0.375000X0.625000X0.375000X-0.625000X0.375000X0*%
%TD*%
%TA.AperFunction,SMDPad,CuDef*%
%ADD16RoundRect,0.500000X-0.500000X-1.400000X0.500000X-1.400000X0.500000X1.400000X-0.500000X1.400000X0*%
%TD*%
%TA.AperFunction,SMDPad,CuDef*%
%ADD17RoundRect,0.218750X-0.218750X-0.256250X0.218750X-0.256250X0.218750X0.256250X-0.218750X0.256250X0*%
%TD*%
%TA.AperFunction,SMDPad,CuDef*%
%ADD18RoundRect,0.375000X0.625000X0.375000X-0.625000X0.375000X-0.625000X-0.375000X0.625000X-0.375000X0*%
%TD*%
%TA.AperFunction,SMDPad,CuDef*%
%ADD19RoundRect,0.500000X0.500000X1.400000X-0.500000X1.400000X-0.500000X-1.400000X0.500000X-1.400000X0*%
%TD*%
%TA.AperFunction,SMDPad,CuDef*%
%ADD20RoundRect,0.250000X0.450000X-0.350000X0.450000X0.350000X-0.450000X0.350000X-0.450000X-0.350000X0*%
%TD*%
%TA.AperFunction,SMDPad,CuDef*%
%ADD21RoundRect,0.250000X-0.350000X-0.450000X0.350000X-0.450000X0.350000X0.450000X-0.350000X0.450000X0*%
%TD*%
%TA.AperFunction,SMDPad,CuDef*%
%ADD22RoundRect,0.250000X0.250000X0.475000X-0.250000X0.475000X-0.250000X-0.475000X0.250000X-0.475000X0*%
%TD*%
%TA.AperFunction,SMDPad,CuDef*%
%ADD23RoundRect,0.250000X-0.475000X0.250000X-0.475000X-0.250000X0.475000X-0.250000X0.475000X0.250000X0*%
%TD*%
%TA.AperFunction,SMDPad,CuDef*%
%ADD24RoundRect,0.250000X0.350000X0.450000X-0.350000X0.450000X-0.350000X-0.450000X0.350000X-0.450000X0*%
%TD*%
%TA.AperFunction,SMDPad,CuDef*%
%ADD25R,1.300000X0.300000*%
%TD*%
%TA.AperFunction,SMDPad,CuDef*%
%ADD26R,2.200000X1.800000*%
%TD*%
%TA.AperFunction,ViaPad*%
%ADD27C,0.600000*%
%TD*%
%TA.AperFunction,Conductor*%
%ADD28C,0.500000*%
%TD*%
%TA.AperFunction,Conductor*%
%ADD29C,0.200000*%
%TD*%
G04 APERTURE END LIST*
D10*
%TO.P,C4,1*%
%TO.N,GND*%
X181300000Y-75400000D03*
%TO.P,C4,2*%
%TO.N,5V_B_IN*%
X183200000Y-75400000D03*
%TD*%
D11*
%TO.P,U1,1,A1*%
%TO.N,Net-(J14-Pin_1)*%
X187337500Y-67350000D03*
%TO.P,U1,2,VCCA*%
%TO.N,3V3_OUT*%
X187337500Y-68000000D03*
%TO.P,U1,3,A2*%
%TO.N,Net-(J14-Pin_2)*%
X187337500Y-68650000D03*
%TO.P,U1,4,A3*%
%TO.N,Net-(J14-Pin_3)*%
X187337500Y-69300000D03*
%TO.P,U1,5,A4*%
%TO.N,Net-(J14-Pin_4)*%
X187337500Y-69950000D03*
%TO.P,U1,6,A5*%
%TO.N,Net-(J14-Pin_5)*%
X187337500Y-70600000D03*
%TO.P,U1,7,A6*%
%TO.N,Net-(J14-Pin_6)*%
X187337500Y-71250000D03*
%TO.P,U1,8,A7*%
%TO.N,Net-(J14-Pin_7)*%
X187337500Y-71900000D03*
%TO.P,U1,9,A8*%
%TO.N,Net-(J14-Pin_8)*%
X187337500Y-72550000D03*
%TO.P,U1,10,OE*%
%TO.N,1V5_OUT*%
X187337500Y-73200000D03*
%TO.P,U1,11,GND*%
%TO.N,GND*%
X193062500Y-73200000D03*
%TO.P,U1,12,B8*%
%TO.N,Net-(J1-Pin_1)*%
X193062500Y-72550000D03*
%TO.P,U1,13,B7*%
%TO.N,Net-(J1-Pin_2)*%
X193062500Y-71900000D03*
%TO.P,U1,14,B6*%
%TO.N,Net-(J1-Pin_3)*%
X193062500Y-71250000D03*
%TO.P,U1,15,B5*%
%TO.N,Net-(J1-Pin_4)*%
X193062500Y-70600000D03*
%TO.P,U1,16,B4*%
%TO.N,Net-(J1-Pin_5)*%
X193062500Y-69950000D03*
%TO.P,U1,17,B3*%
%TO.N,Net-(J1-Pin_6)*%
X193062500Y-69300000D03*
%TO.P,U1,18,B2*%
%TO.N,Net-(J1-Pin_7)*%
X193062500Y-68650000D03*
%TO.P,U1,19,VCCB*%
%TO.N,1V5_OUT*%
X193062500Y-68000000D03*
%TO.P,U1,20,B1*%
%TO.N,Net-(J1-Pin_8)*%
X193062500Y-67350000D03*
%TD*%
D12*
%TO.P,D3,1,K*%
%TO.N,GND*%
X177600000Y-84000000D03*
%TO.P,D3,2,A*%
%TO.N,Net-(D3-A)*%
X177600000Y-82425000D03*
%TD*%
D13*
%TO.P,D4,1,K*%
%TO.N,GND*%
X198187500Y-74800000D03*
%TO.P,D4,2,A*%
%TO.N,Net-(D4-A)*%
X196612500Y-74800000D03*
%TD*%
D14*
%TO.P,C5,1*%
%TO.N,GND*%
X200600000Y-81500000D03*
%TO.P,C5,2*%
%TO.N,1V5_OUT*%
X200600000Y-79600000D03*
%TD*%
D13*
%TO.P,D1,1,K*%
%TO.N,GND*%
X175200000Y-83400000D03*
%TO.P,D1,2,A*%
%TO.N,Net-(D1-A)*%
X173625000Y-83400000D03*
%TD*%
D15*
%TO.P,U3,1,IN*%
%TO.N,5V_B_IN*%
X182450000Y-79500000D03*
%TO.P,U3,2,GND*%
%TO.N,GND*%
X182450000Y-81800000D03*
D16*
X188750000Y-81800000D03*
D15*
%TO.P,U3,3,OUT*%
%TO.N,3V3_OUT*%
X182450000Y-84100000D03*
%TD*%
D17*
%TO.P,D2,1,K*%
%TO.N,GND*%
X204412500Y-80400000D03*
%TO.P,D2,2,A*%
%TO.N,Net-(D2-A)*%
X205987500Y-80400000D03*
%TD*%
D10*
%TO.P,C6,1*%
%TO.N,GND*%
X185050000Y-75400000D03*
%TO.P,C6,2*%
%TO.N,3V3_OUT*%
X186950000Y-75400000D03*
%TD*%
D18*
%TO.P,U2,1,IN*%
%TO.N,5V_A_IN*%
X197900000Y-84100000D03*
%TO.P,U2,2,GND*%
%TO.N,GND*%
X197900000Y-81800000D03*
D19*
X191600000Y-81800000D03*
D18*
%TO.P,U2,3,OUT*%
%TO.N,1V5_OUT*%
X197900000Y-79500000D03*
%TD*%
D20*
%TO.P,R3,1*%
%TO.N,3V3_OUT*%
X179800000Y-84200000D03*
%TO.P,R3,2*%
%TO.N,Net-(D3-A)*%
X179800000Y-82200000D03*
%TD*%
D21*
%TO.P,R4,1*%
%TO.N,1V5_OUT*%
X194612500Y-76800000D03*
%TO.P,R4,2*%
%TO.N,Net-(D4-A)*%
X196612500Y-76800000D03*
%TD*%
%TO.P,R2,1*%
%TO.N,5V_A_IN*%
X202800000Y-78000000D03*
%TO.P,R2,2*%
%TO.N,Net-(D2-A)*%
X204800000Y-78000000D03*
%TD*%
D22*
%TO.P,C2,1*%
%TO.N,GND*%
X192750000Y-75800000D03*
%TO.P,C2,2*%
%TO.N,1V5_OUT*%
X190850000Y-75800000D03*
%TD*%
D23*
%TO.P,C3,1*%
%TO.N,GND*%
X200600000Y-83050000D03*
%TO.P,C3,2*%
%TO.N,5V_A_IN*%
X200600000Y-84950000D03*
%TD*%
D24*
%TO.P,R1,1*%
%TO.N,5V_B_IN*%
X175400000Y-80800000D03*
%TO.P,R1,2*%
%TO.N,Net-(D1-A)*%
X173400000Y-80800000D03*
%TD*%
D25*
%TO.P,J14,1,Pin_1*%
%TO.N,Net-(J14-Pin_1)*%
X178850000Y-68900000D03*
%TO.P,J14,2,Pin_2*%
%TO.N,Net-(J14-Pin_2)*%
X178850000Y-69400000D03*
%TO.P,J14,3,Pin_3*%
%TO.N,Net-(J14-Pin_3)*%
X178850000Y-69900000D03*
%TO.P,J14,4,Pin_4*%
%TO.N,Net-(J14-Pin_4)*%
X178850000Y-70400000D03*
%TO.P,J14,5,Pin_5*%
%TO.N,Net-(J14-Pin_5)*%
X178850000Y-70900000D03*
%TO.P,J14,6,Pin_6*%
%TO.N,Net-(J14-Pin_6)*%
X178850000Y-71400000D03*
%TO.P,J14,7,Pin_7*%
%TO.N,Net-(J14-Pin_7)*%
X178850000Y-71900000D03*
%TO.P,J14,8,Pin_8*%
%TO.N,Net-(J14-Pin_8)*%
X178850000Y-72400000D03*
%TO.P,J14,9,Pin_9*%
%TO.N,5V_B_IN*%
X178850000Y-72900000D03*
%TO.P,J14,10,Pin_10*%
%TO.N,GND*%
X178850000Y-73400000D03*
D26*
%TO.P,J14,MP*%
%TO.N,N/C*%
X175600000Y-67000000D03*
X175600000Y-75300000D03*
%TD*%
D22*
%TO.P,C1,1*%
%TO.N,GND*%
X198950000Y-67000000D03*
%TO.P,C1,2*%
%TO.N,3V3_OUT*%
X197050000Y-67000000D03*
%TD*%
D25*
%TO.P,J1,1,Pin_1*%
%TO.N,Net-(J1-Pin_1)*%
X201200000Y-73400000D03*
%TO.P,J1,2,Pin_2*%
%TO.N,Net-(J1-Pin_2)*%
X201200000Y-72900000D03*
%TO.P,J1,3,Pin_3*%
%TO.N,Net-(J1-Pin_3)*%
X201200000Y-72400000D03*
%TO.P,J1,4,Pin_4*%
%TO.N,Net-(J1-Pin_4)*%
X201200000Y-71900000D03*
%TO.P,J1,5,Pin_5*%
%TO.N,Net-(J1-Pin_5)*%
X201200000Y-71400000D03*
%TO.P,J1,6,Pin_6*%
%TO.N,Net-(J1-Pin_6)*%
X201200000Y-70900000D03*
%TO.P,J1,7,Pin_7*%
%TO.N,Net-(J1-Pin_7)*%
X201200000Y-70400000D03*
%TO.P,J1,8,Pin_8*%
%TO.N,Net-(J1-Pin_8)*%
X201200000Y-69900000D03*
%TO.P,J1,9,Pin_9*%
%TO.N,5V_A_IN*%
X201200000Y-69400000D03*
%TO.P,J1,10,Pin_10*%
%TO.N,GND*%
X201200000Y-68900000D03*
D26*
%TO.P,J1,MP*%
%TO.N,N/C*%
X204450000Y-75300000D03*
X204450000Y-67000000D03*
%TD*%
D27*
%TO.N,5V_A_IN*%
X202600000Y-69600000D03*
%TO.N,5V_B_IN*%
X177200000Y-72800000D03*
%TO.N,GND*%
X190862500Y-72800000D03*
X200900000Y-68100000D03*
X192600000Y-77200000D03*
X175600000Y-85000000D03*
X184800000Y-77000000D03*
X202200000Y-83200000D03*
X202200000Y-81600000D03*
X179100000Y-74200000D03*
X200000000Y-67600000D03*
X205000000Y-81600000D03*
X184850000Y-82400000D03*
X195600000Y-81200000D03*
X189400000Y-79000000D03*
X198400000Y-76200000D03*
X191600000Y-84800000D03*
X180600000Y-77200000D03*
X177000000Y-85000000D03*
%TO.N,3V3_OUT*%
X186950000Y-79650000D03*
X189000000Y-68737500D03*
%TD*%
D28*
%TO.N,3V3_OUT*%
X186950000Y-79650000D02*
X186200000Y-80400000D01*
X186200000Y-80400000D02*
X186200000Y-83000000D01*
X185100000Y-84100000D02*
X182450000Y-84100000D01*
X186200000Y-83000000D02*
X185100000Y-84100000D01*
X186950000Y-79650000D02*
X186950000Y-75400000D01*
%TO.N,5V_A_IN*%
X202600000Y-69600000D02*
X202600000Y-77800000D01*
X202600000Y-77800000D02*
X202800000Y-78000000D01*
%TO.N,GND*%
X189400000Y-79000000D02*
X188800000Y-79600000D01*
X188800000Y-79600000D02*
X188800000Y-81750000D01*
X188800000Y-81750000D02*
X188750000Y-81800000D01*
%TO.N,5V_A_IN*%
X200600000Y-84950000D02*
X202450000Y-84950000D01*
X202450000Y-84950000D02*
X203200000Y-84200000D01*
X203200000Y-84200000D02*
X203200000Y-78400000D01*
X203200000Y-78400000D02*
X202800000Y-78000000D01*
D29*
%TO.N,Net-(D2-A)*%
X206200000Y-80187500D02*
X206200000Y-78800000D01*
X205987500Y-80400000D02*
X206200000Y-80187500D01*
X206200000Y-78800000D02*
X205400000Y-78000000D01*
X205400000Y-78000000D02*
X204800000Y-78000000D01*
D28*
%TO.N,GND*%
X205000000Y-81600000D02*
X204400000Y-81000000D01*
X204400000Y-81000000D02*
X204400000Y-80412500D01*
X204400000Y-80412500D02*
X204412500Y-80400000D01*
X190862500Y-72800000D02*
X191262500Y-73200000D01*
X191262500Y-73200000D02*
X193062500Y-73200000D01*
D29*
%TO.N,Net-(J1-Pin_5)*%
X196000000Y-71400000D02*
X201200000Y-71400000D01*
X194550000Y-69950000D02*
X196000000Y-71400000D01*
X193062500Y-69950000D02*
X194550000Y-69950000D01*
%TO.N,Net-(J1-Pin_8)*%
X196700000Y-69900000D02*
X201200000Y-69900000D01*
X194150000Y-67350000D02*
X196700000Y-69900000D01*
X193062500Y-67350000D02*
X194150000Y-67350000D01*
%TO.N,Net-(J1-Pin_4)*%
X201200000Y-71900000D02*
X195700000Y-71900000D01*
X195700000Y-71900000D02*
X194400000Y-70600000D01*
X194400000Y-70600000D02*
X193062500Y-70600000D01*
%TO.N,Net-(J1-Pin_3)*%
X194250000Y-71250000D02*
X195400000Y-72400000D01*
X195400000Y-72400000D02*
X201200000Y-72400000D01*
X193062500Y-71250000D02*
X194250000Y-71250000D01*
%TO.N,Net-(J1-Pin_6)*%
X194700000Y-69300000D02*
X196300000Y-70900000D01*
X193062500Y-69300000D02*
X194700000Y-69300000D01*
X196300000Y-70900000D02*
X201200000Y-70900000D01*
%TO.N,Net-(J1-Pin_7)*%
X194750000Y-68650000D02*
X196500000Y-70400000D01*
X193062500Y-68650000D02*
X194750000Y-68650000D01*
X196500000Y-70400000D02*
X201200000Y-70400000D01*
D28*
%TO.N,GND*%
X191600000Y-81800000D02*
X191600000Y-84800000D01*
X200600000Y-81500000D02*
X202100000Y-81500000D01*
X179100000Y-74200000D02*
X179100000Y-73750000D01*
X179100000Y-73750000D02*
X178850000Y-73500000D01*
X175200000Y-83400000D02*
X175200000Y-84600000D01*
X198187500Y-74800000D02*
X198187500Y-75987500D01*
X185050000Y-75400000D02*
X185050000Y-76750000D01*
X177600000Y-84000000D02*
X177600000Y-84400000D01*
X198187500Y-75987500D02*
X198400000Y-76200000D01*
D29*
X201200000Y-68400000D02*
X201200000Y-68900000D01*
D28*
X181300000Y-76500000D02*
X180600000Y-77200000D01*
X197900000Y-81800000D02*
X196200000Y-81800000D01*
X184250000Y-81800000D02*
X184850000Y-82400000D01*
X202100000Y-81500000D02*
X202200000Y-81600000D01*
X200600000Y-83050000D02*
X202050000Y-83050000D01*
X185050000Y-76750000D02*
X184800000Y-77000000D01*
X182550000Y-81800000D02*
X184250000Y-81800000D01*
D29*
X201200000Y-68400000D02*
X200900000Y-68100000D01*
D28*
X196200000Y-81800000D02*
X195600000Y-81200000D01*
X202050000Y-83050000D02*
X202200000Y-83200000D01*
X192750000Y-75800000D02*
X192750000Y-77050000D01*
X177600000Y-84400000D02*
X177000000Y-85000000D01*
X200000000Y-67600000D02*
X199400000Y-67000000D01*
X192750000Y-77050000D02*
X192600000Y-77200000D01*
X175200000Y-84600000D02*
X175600000Y-85000000D01*
X181300000Y-75400000D02*
X181300000Y-76500000D01*
D29*
%TO.N,Net-(J14-Pin_5)*%
X183500000Y-70600000D02*
X187337500Y-70600000D01*
X178850000Y-70900000D02*
X183200000Y-70900000D01*
X183200000Y-70900000D02*
X183500000Y-70600000D01*
%TO.N,Net-(J14-Pin_4)*%
X183250000Y-69950000D02*
X182800000Y-70400000D01*
X182800000Y-70400000D02*
X178850000Y-70400000D01*
X187337500Y-69950000D02*
X183250000Y-69950000D01*
%TO.N,Net-(J14-Pin_8)*%
X187337500Y-72550000D02*
X183350000Y-72550000D01*
X183200000Y-72400000D02*
X178850000Y-72400000D01*
X183350000Y-72550000D02*
X183200000Y-72400000D01*
D28*
%TO.N,5V_B_IN*%
X175400000Y-80800000D02*
X177200000Y-79000000D01*
X177200000Y-79000000D02*
X177200000Y-77200000D01*
X183200000Y-78750000D02*
X182450000Y-79500000D01*
X183200000Y-75400000D02*
X183200000Y-78750000D01*
X177200000Y-72800000D02*
X177200000Y-77200000D01*
X179500000Y-79500000D02*
X182450000Y-79500000D01*
X177200000Y-77200000D02*
X179500000Y-79500000D01*
D29*
%TO.N,Net-(J14-Pin_3)*%
X182500000Y-69900000D02*
X178850000Y-69900000D01*
X187337500Y-69300000D02*
X183100000Y-69300000D01*
X183100000Y-69300000D02*
X182500000Y-69900000D01*
%TO.N,Net-(J14-Pin_6)*%
X187337500Y-71250000D02*
X183550000Y-71250000D01*
X178850000Y-71400000D02*
X183400000Y-71400000D01*
X183400000Y-71400000D02*
X183550000Y-71250000D01*
%TO.N,Net-(J14-Pin_7)*%
X178850000Y-71900000D02*
X187337500Y-71900000D01*
D28*
%TO.N,3V3_OUT*%
X189000000Y-68662500D02*
X188337500Y-68000000D01*
X194400000Y-66400000D02*
X195000000Y-67000000D01*
X190000000Y-66400000D02*
X194400000Y-66400000D01*
X182450000Y-84100000D02*
X179900000Y-84100000D01*
X195000000Y-67000000D02*
X197050000Y-67000000D01*
X188337500Y-68000000D02*
X187337500Y-68000000D01*
X189000000Y-68737500D02*
X189000000Y-68662500D01*
X188400000Y-68000000D02*
X190000000Y-66400000D01*
X188337500Y-68000000D02*
X188400000Y-68000000D01*
X179900000Y-84100000D02*
X179800000Y-84200000D01*
%TO.N,1V5_OUT*%
X200600000Y-79600000D02*
X198000000Y-79600000D01*
X194612500Y-78212500D02*
X195200000Y-78800000D01*
X190850000Y-74450000D02*
X190850000Y-75800000D01*
X189075000Y-73200000D02*
X189600000Y-73200000D01*
X191800000Y-78800000D02*
X190800000Y-77800000D01*
X189600000Y-73200000D02*
X190850000Y-74450000D01*
X190400000Y-71875000D02*
X189075000Y-73200000D01*
X190400000Y-68475000D02*
X190400000Y-71875000D01*
X190800000Y-77800000D02*
X190800000Y-75850000D01*
X193062500Y-68000000D02*
X190875000Y-68000000D01*
X198000000Y-79600000D02*
X197900000Y-79500000D01*
X190800000Y-75850000D02*
X190850000Y-75800000D01*
X190875000Y-68000000D02*
X190400000Y-68475000D01*
X189075000Y-73200000D02*
X187337500Y-73200000D01*
X195200000Y-78800000D02*
X191800000Y-78800000D01*
X194612500Y-76800000D02*
X194612500Y-78212500D01*
D29*
%TO.N,Net-(J1-Pin_2)*%
X194100000Y-71900000D02*
X195100000Y-72900000D01*
X193062500Y-71900000D02*
X194100000Y-71900000D01*
X195100000Y-72900000D02*
X201200000Y-72900000D01*
%TO.N,Net-(J1-Pin_1)*%
X193062500Y-72550000D02*
X193950000Y-72550000D01*
X193950000Y-72550000D02*
X194800000Y-73400000D01*
X194800000Y-73400000D02*
X201200000Y-73400000D01*
%TO.N,Net-(D1-A)*%
X173400000Y-83175000D02*
X173625000Y-83400000D01*
X173400000Y-80800000D02*
X173400000Y-83175000D01*
%TO.N,Net-(D3-A)*%
X177600000Y-82425000D02*
X179575000Y-82425000D01*
X179575000Y-82425000D02*
X179800000Y-82200000D01*
%TO.N,Net-(D4-A)*%
X196612500Y-74800000D02*
X196612500Y-76800000D01*
%TO.N,Net-(J14-Pin_2)*%
X187337500Y-68650000D02*
X182950000Y-68650000D01*
X182200000Y-69400000D02*
X178850000Y-69400000D01*
X182950000Y-68650000D02*
X182200000Y-69400000D01*
%TO.N,Net-(J14-Pin_1)*%
X187337500Y-67350000D02*
X183250000Y-67350000D01*
X181700000Y-68900000D02*
X178850000Y-68900000D01*
X183250000Y-67350000D02*
X181700000Y-68900000D01*
%TD*%
%TA.AperFunction,Conductor*%
%TO.N,5V_A_IN*%
G36*
X199185648Y-83014352D02*
G01*
X199200000Y-83049000D01*
X199200000Y-84000000D01*
X201551000Y-84000000D01*
X201585648Y-84014352D01*
X201600000Y-84049000D01*
X201600000Y-85448621D01*
X201585648Y-85483269D01*
X201551000Y-85497621D01*
X201550983Y-85497621D01*
X196248983Y-85495797D01*
X196214340Y-85481433D01*
X196200000Y-85446797D01*
X196200000Y-83049000D01*
X196214352Y-83014352D01*
X196249000Y-83000000D01*
X199151000Y-83000000D01*
X199185648Y-83014352D01*
G37*
%TD.AperFunction*%
%TD*%
%TA.AperFunction,Conductor*%
%TO.N,5V_A_IN*%
G36*
X200217184Y-69218907D02*
G01*
X200228997Y-69228996D01*
X200250001Y-69250000D01*
X200520311Y-69250000D01*
X200523836Y-69251145D01*
X200525389Y-69250977D01*
X200525389Y-69250500D01*
X200529791Y-69250500D01*
X200530012Y-69250476D01*
X200530248Y-69250499D01*
X200530252Y-69250500D01*
X200530256Y-69250500D01*
X201869744Y-69250500D01*
X201869748Y-69250500D01*
X201869751Y-69250499D01*
X201869988Y-69250476D01*
X201870097Y-69250500D01*
X201874611Y-69250500D01*
X201874611Y-69250804D01*
X201879689Y-69250000D01*
X202149998Y-69250000D01*
X202171002Y-69228996D01*
X202225519Y-69201219D01*
X202241006Y-69200000D01*
X203301000Y-69200000D01*
X203359191Y-69218907D01*
X203395155Y-69268407D01*
X203400000Y-69299000D01*
X203400000Y-69901000D01*
X203381093Y-69959191D01*
X203331593Y-69995155D01*
X203301000Y-70000000D01*
X202299000Y-70000000D01*
X202240809Y-69981093D01*
X202204845Y-69931593D01*
X202200000Y-69901000D01*
X202200000Y-69600001D01*
X202200000Y-69600000D01*
X202199999Y-69600000D01*
X202149999Y-69550000D01*
X201879689Y-69550000D01*
X201869988Y-69549524D01*
X201869751Y-69549500D01*
X201869748Y-69549500D01*
X200530252Y-69549500D01*
X200530248Y-69549500D01*
X200530012Y-69549524D01*
X200520311Y-69550000D01*
X200250002Y-69550000D01*
X200229498Y-69570504D01*
X200174981Y-69598281D01*
X200159494Y-69599500D01*
X199899000Y-69599500D01*
X199840809Y-69580593D01*
X199804845Y-69531093D01*
X199800000Y-69500500D01*
X199800000Y-69299000D01*
X199818907Y-69240809D01*
X199868407Y-69204845D01*
X199899000Y-69200000D01*
X200158993Y-69200000D01*
X200217184Y-69218907D01*
G37*
%TD.AperFunction*%
%TD*%
%TA.AperFunction,Conductor*%
%TO.N,1V5_OUT*%
G36*
X199385648Y-78014352D02*
G01*
X199400000Y-78049000D01*
X199400000Y-80551000D01*
X199385648Y-80585648D01*
X199351000Y-80600000D01*
X196449000Y-80600000D01*
X196414352Y-80585648D01*
X196400000Y-80551000D01*
X196400000Y-79600000D01*
X194049000Y-79600000D01*
X194014352Y-79585648D01*
X194000000Y-79551000D01*
X194000000Y-78049000D01*
X194014352Y-78014352D01*
X194049000Y-78000000D01*
X199351000Y-78000000D01*
X199385648Y-78014352D01*
G37*
%TD.AperFunction*%
%TD*%
%TA.AperFunction,Conductor*%
%TO.N,5V_B_IN*%
G36*
X177899091Y-72316146D02*
G01*
X177935055Y-72365646D01*
X177939900Y-72396239D01*
X177939900Y-72575465D01*
X177931465Y-72615452D01*
X177902910Y-72680124D01*
X177902909Y-72680127D01*
X177900000Y-72705202D01*
X177900000Y-72749999D01*
X177900001Y-72750000D01*
X178170311Y-72750000D01*
X178173836Y-72751145D01*
X178175389Y-72750977D01*
X178175389Y-72750500D01*
X178179791Y-72750500D01*
X178180012Y-72750476D01*
X178180248Y-72750499D01*
X178180252Y-72750500D01*
X178180256Y-72750500D01*
X179519744Y-72750500D01*
X179519748Y-72750500D01*
X179519751Y-72750499D01*
X179519988Y-72750476D01*
X179520097Y-72750500D01*
X179524611Y-72750500D01*
X179524611Y-72750804D01*
X179529689Y-72750000D01*
X179799998Y-72750000D01*
X179820502Y-72729496D01*
X179875019Y-72701719D01*
X179890506Y-72700500D01*
X180040900Y-72700500D01*
X180099091Y-72719407D01*
X180135055Y-72768907D01*
X180139900Y-72799500D01*
X180139900Y-72998239D01*
X180120993Y-73056430D01*
X180071493Y-73092394D01*
X180040900Y-73097239D01*
X179888246Y-73097239D01*
X179830055Y-73078332D01*
X179818242Y-73068243D01*
X179799999Y-73050000D01*
X179529689Y-73050000D01*
X179519988Y-73049524D01*
X179519751Y-73049500D01*
X179519748Y-73049500D01*
X178180252Y-73049500D01*
X178180248Y-73049500D01*
X178180012Y-73049524D01*
X178170311Y-73050000D01*
X177900002Y-73050000D01*
X177881759Y-73068243D01*
X177827242Y-73096020D01*
X177811755Y-73097239D01*
X176838900Y-73097239D01*
X176780709Y-73078332D01*
X176744745Y-73028832D01*
X176739900Y-72998239D01*
X176739900Y-72396239D01*
X176758807Y-72338048D01*
X176808307Y-72302084D01*
X176838900Y-72297239D01*
X177840900Y-72297239D01*
X177899091Y-72316146D01*
G37*
%TD.AperFunction*%
%TD*%
M02*
