%TF.GenerationSoftware,KiCad,Pcbnew,9.0.7+dfsg-1*%
%TF.CreationDate,2026-04-03T11:08:26-07:00*%
%TF.ProjectId,ffc_adapter,6666635f-6164-4617-9074-65722e6b6963,rev?*%
%TF.SameCoordinates,Original*%
%TF.FileFunction,Legend,Top*%
%TF.FilePolarity,Positive*%
%FSLAX46Y46*%
G04 Gerber Fmt 4.6, Leading zero omitted, Abs format (unit mm)*
G04 Created by KiCad (PCBNEW 9.0.7+dfsg-1) date 2026-04-03 11:08:26*
%MOMM*%
%LPD*%
G01*
G04 APERTURE LIST*
G04 Aperture macros list*
%AMRoundRect*
0 Rectangle with rounded corners*
0 $1 Rounding radius*
0 $2 $3 $4 $5 $6 $7 $8 $9 X,Y pos of 4 corners*
0 Add a 4 corners polygon primitive as box body*
4,1,4,$2,$3,$4,$5,$6,$7,$8,$9,$2,$3,0*
0 Add four circle primitives for the rounded corners*
1,1,$1+$1,$2,$3*
1,1,$1+$1,$4,$5*
1,1,$1+$1,$6,$7*
1,1,$1+$1,$8,$9*
0 Add four rect primitives between the rounded corners*
20,1,$1+$1,$2,$3,$4,$5,0*
20,1,$1+$1,$4,$5,$6,$7,0*
20,1,$1+$1,$6,$7,$8,$9,0*
20,1,$1+$1,$8,$9,$2,$3,0*%
G04 Aperture macros list end*
%ADD10C,0.100000*%
%ADD11C,0.150000*%
%ADD12C,0.120000*%
%ADD13RoundRect,0.250000X0.250000X0.475000X-0.250000X0.475000X-0.250000X-0.475000X0.250000X-0.475000X0*%
%ADD14C,1.000000*%
%ADD15RoundRect,0.250000X-0.250000X-0.475000X0.250000X-0.475000X0.250000X0.475000X-0.250000X0.475000X0*%
%ADD16RoundRect,0.100000X-0.637500X-0.100000X0.637500X-0.100000X0.637500X0.100000X-0.637500X0.100000X0*%
%ADD17RoundRect,0.218750X0.256250X-0.218750X0.256250X0.218750X-0.256250X0.218750X-0.256250X-0.218750X0*%
%ADD18RoundRect,0.218750X0.218750X0.256250X-0.218750X0.256250X-0.218750X-0.256250X0.218750X-0.256250X0*%
%ADD19RoundRect,0.250000X0.475000X-0.250000X0.475000X0.250000X-0.475000X0.250000X-0.475000X-0.250000X0*%
%ADD20RoundRect,0.375000X-0.625000X-0.375000X0.625000X-0.375000X0.625000X0.375000X-0.625000X0.375000X0*%
%ADD21RoundRect,0.500000X-0.500000X-1.400000X0.500000X-1.400000X0.500000X1.400000X-0.500000X1.400000X0*%
%ADD22RoundRect,0.218750X-0.218750X-0.256250X0.218750X-0.256250X0.218750X0.256250X-0.218750X0.256250X0*%
%ADD23RoundRect,0.375000X0.625000X0.375000X-0.625000X0.375000X-0.625000X-0.375000X0.625000X-0.375000X0*%
%ADD24RoundRect,0.500000X0.500000X1.400000X-0.500000X1.400000X-0.500000X-1.400000X0.500000X-1.400000X0*%
%ADD25RoundRect,0.250000X0.450000X-0.350000X0.450000X0.350000X-0.450000X0.350000X-0.450000X-0.350000X0*%
%ADD26RoundRect,0.250000X-0.350000X-0.450000X0.350000X-0.450000X0.350000X0.450000X-0.350000X0.450000X0*%
%ADD27RoundRect,0.250000X-0.475000X0.250000X-0.475000X-0.250000X0.475000X-0.250000X0.475000X0.250000X0*%
%ADD28RoundRect,0.250000X0.350000X0.450000X-0.350000X0.450000X-0.350000X-0.450000X0.350000X-0.450000X0*%
%ADD29R,1.300000X0.300000*%
%ADD30R,2.200000X1.800000*%
G04 APERTURE END LIST*
D10*
X182208646Y-70872419D02*
X182827693Y-70872419D01*
X182827693Y-70872419D02*
X182494360Y-71253371D01*
X182494360Y-71253371D02*
X182637217Y-71253371D01*
X182637217Y-71253371D02*
X182732455Y-71300990D01*
X182732455Y-71300990D02*
X182780074Y-71348609D01*
X182780074Y-71348609D02*
X182827693Y-71443847D01*
X182827693Y-71443847D02*
X182827693Y-71681942D01*
X182827693Y-71681942D02*
X182780074Y-71777180D01*
X182780074Y-71777180D02*
X182732455Y-71824800D01*
X182732455Y-71824800D02*
X182637217Y-71872419D01*
X182637217Y-71872419D02*
X182351503Y-71872419D01*
X182351503Y-71872419D02*
X182256265Y-71824800D01*
X182256265Y-71824800D02*
X182208646Y-71777180D01*
X183161027Y-71205752D02*
X183399122Y-71872419D01*
X183399122Y-71872419D02*
X183637217Y-71205752D01*
X183922932Y-70872419D02*
X184541979Y-70872419D01*
X184541979Y-70872419D02*
X184208646Y-71253371D01*
X184208646Y-71253371D02*
X184351503Y-71253371D01*
X184351503Y-71253371D02*
X184446741Y-71300990D01*
X184446741Y-71300990D02*
X184494360Y-71348609D01*
X184494360Y-71348609D02*
X184541979Y-71443847D01*
X184541979Y-71443847D02*
X184541979Y-71681942D01*
X184541979Y-71681942D02*
X184494360Y-71777180D01*
X184494360Y-71777180D02*
X184446741Y-71824800D01*
X184446741Y-71824800D02*
X184351503Y-71872419D01*
X184351503Y-71872419D02*
X184065789Y-71872419D01*
X184065789Y-71872419D02*
X183970551Y-71824800D01*
X183970551Y-71824800D02*
X183922932Y-71777180D01*
X196627693Y-71872419D02*
X196056265Y-71872419D01*
X196341979Y-71872419D02*
X196341979Y-70872419D01*
X196341979Y-70872419D02*
X196246741Y-71015276D01*
X196246741Y-71015276D02*
X196151503Y-71110514D01*
X196151503Y-71110514D02*
X196056265Y-71158133D01*
X196961027Y-71205752D02*
X197199122Y-71872419D01*
X197199122Y-71872419D02*
X197437217Y-71205752D01*
X198294360Y-70872419D02*
X197818170Y-70872419D01*
X197818170Y-70872419D02*
X197770551Y-71348609D01*
X197770551Y-71348609D02*
X197818170Y-71300990D01*
X197818170Y-71300990D02*
X197913408Y-71253371D01*
X197913408Y-71253371D02*
X198151503Y-71253371D01*
X198151503Y-71253371D02*
X198246741Y-71300990D01*
X198246741Y-71300990D02*
X198294360Y-71348609D01*
X198294360Y-71348609D02*
X198341979Y-71443847D01*
X198341979Y-71443847D02*
X198341979Y-71681942D01*
X198341979Y-71681942D02*
X198294360Y-71777180D01*
X198294360Y-71777180D02*
X198246741Y-71824800D01*
X198246741Y-71824800D02*
X198151503Y-71872419D01*
X198151503Y-71872419D02*
X197913408Y-71872419D01*
X197913408Y-71872419D02*
X197818170Y-71824800D01*
X197818170Y-71824800D02*
X197770551Y-71777180D01*
D11*
X191083333Y-77859580D02*
X191035714Y-77907200D01*
X191035714Y-77907200D02*
X190892857Y-77954819D01*
X190892857Y-77954819D02*
X190797619Y-77954819D01*
X190797619Y-77954819D02*
X190654762Y-77907200D01*
X190654762Y-77907200D02*
X190559524Y-77811961D01*
X190559524Y-77811961D02*
X190511905Y-77716723D01*
X190511905Y-77716723D02*
X190464286Y-77526247D01*
X190464286Y-77526247D02*
X190464286Y-77383390D01*
X190464286Y-77383390D02*
X190511905Y-77192914D01*
X190511905Y-77192914D02*
X190559524Y-77097676D01*
X190559524Y-77097676D02*
X190654762Y-77002438D01*
X190654762Y-77002438D02*
X190797619Y-76954819D01*
X190797619Y-76954819D02*
X190892857Y-76954819D01*
X190892857Y-76954819D02*
X191035714Y-77002438D01*
X191035714Y-77002438D02*
X191083333Y-77050057D01*
X191464286Y-77050057D02*
X191511905Y-77002438D01*
X191511905Y-77002438D02*
X191607143Y-76954819D01*
X191607143Y-76954819D02*
X191845238Y-76954819D01*
X191845238Y-76954819D02*
X191940476Y-77002438D01*
X191940476Y-77002438D02*
X191988095Y-77050057D01*
X191988095Y-77050057D02*
X192035714Y-77145295D01*
X192035714Y-77145295D02*
X192035714Y-77240533D01*
X192035714Y-77240533D02*
X191988095Y-77383390D01*
X191988095Y-77383390D02*
X191416667Y-77954819D01*
X191416667Y-77954819D02*
X192035714Y-77954819D01*
X173333333Y-76506819D02*
X172857143Y-76506819D01*
X172857143Y-76506819D02*
X172809524Y-76983009D01*
X172809524Y-76983009D02*
X172857143Y-76935390D01*
X172857143Y-76935390D02*
X172952381Y-76887771D01*
X172952381Y-76887771D02*
X173190476Y-76887771D01*
X173190476Y-76887771D02*
X173285714Y-76935390D01*
X173285714Y-76935390D02*
X173333333Y-76983009D01*
X173333333Y-76983009D02*
X173380952Y-77078247D01*
X173380952Y-77078247D02*
X173380952Y-77316342D01*
X173380952Y-77316342D02*
X173333333Y-77411580D01*
X173333333Y-77411580D02*
X173285714Y-77459200D01*
X173285714Y-77459200D02*
X173190476Y-77506819D01*
X173190476Y-77506819D02*
X172952381Y-77506819D01*
X172952381Y-77506819D02*
X172857143Y-77459200D01*
X172857143Y-77459200D02*
X172809524Y-77411580D01*
X173666667Y-76506819D02*
X174000000Y-77506819D01*
X174000000Y-77506819D02*
X174333333Y-76506819D01*
X174619048Y-76602057D02*
X174666667Y-76554438D01*
X174666667Y-76554438D02*
X174761905Y-76506819D01*
X174761905Y-76506819D02*
X175000000Y-76506819D01*
X175000000Y-76506819D02*
X175095238Y-76554438D01*
X175095238Y-76554438D02*
X175142857Y-76602057D01*
X175142857Y-76602057D02*
X175190476Y-76697295D01*
X175190476Y-76697295D02*
X175190476Y-76792533D01*
X175190476Y-76792533D02*
X175142857Y-76935390D01*
X175142857Y-76935390D02*
X174571429Y-77506819D01*
X174571429Y-77506819D02*
X175190476Y-77506819D01*
X177761905Y-76006819D02*
X178380952Y-76006819D01*
X178380952Y-76006819D02*
X178047619Y-76387771D01*
X178047619Y-76387771D02*
X178190476Y-76387771D01*
X178190476Y-76387771D02*
X178285714Y-76435390D01*
X178285714Y-76435390D02*
X178333333Y-76483009D01*
X178333333Y-76483009D02*
X178380952Y-76578247D01*
X178380952Y-76578247D02*
X178380952Y-76816342D01*
X178380952Y-76816342D02*
X178333333Y-76911580D01*
X178333333Y-76911580D02*
X178285714Y-76959200D01*
X178285714Y-76959200D02*
X178190476Y-77006819D01*
X178190476Y-77006819D02*
X177904762Y-77006819D01*
X177904762Y-77006819D02*
X177809524Y-76959200D01*
X177809524Y-76959200D02*
X177761905Y-76911580D01*
X178666667Y-76006819D02*
X179000000Y-77006819D01*
X179000000Y-77006819D02*
X179333333Y-76006819D01*
X179571429Y-76006819D02*
X180190476Y-76006819D01*
X180190476Y-76006819D02*
X179857143Y-76387771D01*
X179857143Y-76387771D02*
X180000000Y-76387771D01*
X180000000Y-76387771D02*
X180095238Y-76435390D01*
X180095238Y-76435390D02*
X180142857Y-76483009D01*
X180142857Y-76483009D02*
X180190476Y-76578247D01*
X180190476Y-76578247D02*
X180190476Y-76816342D01*
X180190476Y-76816342D02*
X180142857Y-76911580D01*
X180142857Y-76911580D02*
X180095238Y-76959200D01*
X180095238Y-76959200D02*
X180000000Y-77006819D01*
X180000000Y-77006819D02*
X179714286Y-77006819D01*
X179714286Y-77006819D02*
X179619048Y-76959200D01*
X179619048Y-76959200D02*
X179571429Y-76911580D01*
X204780952Y-83206819D02*
X204209524Y-83206819D01*
X204495238Y-83206819D02*
X204495238Y-82206819D01*
X204495238Y-82206819D02*
X204400000Y-82349676D01*
X204400000Y-82349676D02*
X204304762Y-82444914D01*
X204304762Y-82444914D02*
X204209524Y-82492533D01*
X205066667Y-82206819D02*
X205400000Y-83206819D01*
X205400000Y-83206819D02*
X205733333Y-82206819D01*
X206542857Y-82206819D02*
X206066667Y-82206819D01*
X206066667Y-82206819D02*
X206019048Y-82683009D01*
X206019048Y-82683009D02*
X206066667Y-82635390D01*
X206066667Y-82635390D02*
X206161905Y-82587771D01*
X206161905Y-82587771D02*
X206400000Y-82587771D01*
X206400000Y-82587771D02*
X206495238Y-82635390D01*
X206495238Y-82635390D02*
X206542857Y-82683009D01*
X206542857Y-82683009D02*
X206590476Y-82778247D01*
X206590476Y-82778247D02*
X206590476Y-83016342D01*
X206590476Y-83016342D02*
X206542857Y-83111580D01*
X206542857Y-83111580D02*
X206495238Y-83159200D01*
X206495238Y-83159200D02*
X206400000Y-83206819D01*
X206400000Y-83206819D02*
X206161905Y-83206819D01*
X206161905Y-83206819D02*
X206066667Y-83159200D01*
X206066667Y-83159200D02*
X206019048Y-83111580D01*
X199933333Y-75806819D02*
X199457143Y-75806819D01*
X199457143Y-75806819D02*
X199409524Y-76283009D01*
X199409524Y-76283009D02*
X199457143Y-76235390D01*
X199457143Y-76235390D02*
X199552381Y-76187771D01*
X199552381Y-76187771D02*
X199790476Y-76187771D01*
X199790476Y-76187771D02*
X199885714Y-76235390D01*
X199885714Y-76235390D02*
X199933333Y-76283009D01*
X199933333Y-76283009D02*
X199980952Y-76378247D01*
X199980952Y-76378247D02*
X199980952Y-76616342D01*
X199980952Y-76616342D02*
X199933333Y-76711580D01*
X199933333Y-76711580D02*
X199885714Y-76759200D01*
X199885714Y-76759200D02*
X199790476Y-76806819D01*
X199790476Y-76806819D02*
X199552381Y-76806819D01*
X199552381Y-76806819D02*
X199457143Y-76759200D01*
X199457143Y-76759200D02*
X199409524Y-76711580D01*
X200266667Y-75806819D02*
X200600000Y-76806819D01*
X200600000Y-76806819D02*
X200933333Y-75806819D01*
X201790476Y-76806819D02*
X201219048Y-76806819D01*
X201504762Y-76806819D02*
X201504762Y-75806819D01*
X201504762Y-75806819D02*
X201409524Y-75949676D01*
X201409524Y-75949676D02*
X201314286Y-76044914D01*
X201314286Y-76044914D02*
X201219048Y-76092533D01*
X182083333Y-74079580D02*
X182035714Y-74127200D01*
X182035714Y-74127200D02*
X181892857Y-74174819D01*
X181892857Y-74174819D02*
X181797619Y-74174819D01*
X181797619Y-74174819D02*
X181654762Y-74127200D01*
X181654762Y-74127200D02*
X181559524Y-74031961D01*
X181559524Y-74031961D02*
X181511905Y-73936723D01*
X181511905Y-73936723D02*
X181464286Y-73746247D01*
X181464286Y-73746247D02*
X181464286Y-73603390D01*
X181464286Y-73603390D02*
X181511905Y-73412914D01*
X181511905Y-73412914D02*
X181559524Y-73317676D01*
X181559524Y-73317676D02*
X181654762Y-73222438D01*
X181654762Y-73222438D02*
X181797619Y-73174819D01*
X181797619Y-73174819D02*
X181892857Y-73174819D01*
X181892857Y-73174819D02*
X182035714Y-73222438D01*
X182035714Y-73222438D02*
X182083333Y-73270057D01*
X182940476Y-73508152D02*
X182940476Y-74174819D01*
X182702381Y-73127200D02*
X182464286Y-73841485D01*
X182464286Y-73841485D02*
X183083333Y-73841485D01*
X188738095Y-73954819D02*
X188738095Y-74764342D01*
X188738095Y-74764342D02*
X188785714Y-74859580D01*
X188785714Y-74859580D02*
X188833333Y-74907200D01*
X188833333Y-74907200D02*
X188928571Y-74954819D01*
X188928571Y-74954819D02*
X189119047Y-74954819D01*
X189119047Y-74954819D02*
X189214285Y-74907200D01*
X189214285Y-74907200D02*
X189261904Y-74859580D01*
X189261904Y-74859580D02*
X189309523Y-74764342D01*
X189309523Y-74764342D02*
X189309523Y-73954819D01*
X190309523Y-74954819D02*
X189738095Y-74954819D01*
X190023809Y-74954819D02*
X190023809Y-73954819D01*
X190023809Y-73954819D02*
X189928571Y-74097676D01*
X189928571Y-74097676D02*
X189833333Y-74192914D01*
X189833333Y-74192914D02*
X189738095Y-74240533D01*
X178054819Y-81538094D02*
X177054819Y-81538094D01*
X177054819Y-81538094D02*
X177054819Y-81299999D01*
X177054819Y-81299999D02*
X177102438Y-81157142D01*
X177102438Y-81157142D02*
X177197676Y-81061904D01*
X177197676Y-81061904D02*
X177292914Y-81014285D01*
X177292914Y-81014285D02*
X177483390Y-80966666D01*
X177483390Y-80966666D02*
X177626247Y-80966666D01*
X177626247Y-80966666D02*
X177816723Y-81014285D01*
X177816723Y-81014285D02*
X177911961Y-81061904D01*
X177911961Y-81061904D02*
X178007200Y-81157142D01*
X178007200Y-81157142D02*
X178054819Y-81299999D01*
X178054819Y-81299999D02*
X178054819Y-81538094D01*
X177054819Y-80633332D02*
X177054819Y-80014285D01*
X177054819Y-80014285D02*
X177435771Y-80347618D01*
X177435771Y-80347618D02*
X177435771Y-80204761D01*
X177435771Y-80204761D02*
X177483390Y-80109523D01*
X177483390Y-80109523D02*
X177531009Y-80061904D01*
X177531009Y-80061904D02*
X177626247Y-80014285D01*
X177626247Y-80014285D02*
X177864342Y-80014285D01*
X177864342Y-80014285D02*
X177959580Y-80061904D01*
X177959580Y-80061904D02*
X178007200Y-80109523D01*
X178007200Y-80109523D02*
X178054819Y-80204761D01*
X178054819Y-80204761D02*
X178054819Y-80490475D01*
X178054819Y-80490475D02*
X178007200Y-80585713D01*
X178007200Y-80585713D02*
X177959580Y-80633332D01*
X196661905Y-76684819D02*
X196661905Y-75684819D01*
X196661905Y-75684819D02*
X196900000Y-75684819D01*
X196900000Y-75684819D02*
X197042857Y-75732438D01*
X197042857Y-75732438D02*
X197138095Y-75827676D01*
X197138095Y-75827676D02*
X197185714Y-75922914D01*
X197185714Y-75922914D02*
X197233333Y-76113390D01*
X197233333Y-76113390D02*
X197233333Y-76256247D01*
X197233333Y-76256247D02*
X197185714Y-76446723D01*
X197185714Y-76446723D02*
X197138095Y-76541961D01*
X197138095Y-76541961D02*
X197042857Y-76637200D01*
X197042857Y-76637200D02*
X196900000Y-76684819D01*
X196900000Y-76684819D02*
X196661905Y-76684819D01*
X198090476Y-76018152D02*
X198090476Y-76684819D01*
X197852381Y-75637200D02*
X197614286Y-76351485D01*
X197614286Y-76351485D02*
X198233333Y-76351485D01*
X202609580Y-80916666D02*
X202657200Y-80964285D01*
X202657200Y-80964285D02*
X202704819Y-81107142D01*
X202704819Y-81107142D02*
X202704819Y-81202380D01*
X202704819Y-81202380D02*
X202657200Y-81345237D01*
X202657200Y-81345237D02*
X202561961Y-81440475D01*
X202561961Y-81440475D02*
X202466723Y-81488094D01*
X202466723Y-81488094D02*
X202276247Y-81535713D01*
X202276247Y-81535713D02*
X202133390Y-81535713D01*
X202133390Y-81535713D02*
X201942914Y-81488094D01*
X201942914Y-81488094D02*
X201847676Y-81440475D01*
X201847676Y-81440475D02*
X201752438Y-81345237D01*
X201752438Y-81345237D02*
X201704819Y-81202380D01*
X201704819Y-81202380D02*
X201704819Y-81107142D01*
X201704819Y-81107142D02*
X201752438Y-80964285D01*
X201752438Y-80964285D02*
X201800057Y-80916666D01*
X201704819Y-80011904D02*
X201704819Y-80488094D01*
X201704819Y-80488094D02*
X202181009Y-80535713D01*
X202181009Y-80535713D02*
X202133390Y-80488094D01*
X202133390Y-80488094D02*
X202085771Y-80392856D01*
X202085771Y-80392856D02*
X202085771Y-80154761D01*
X202085771Y-80154761D02*
X202133390Y-80059523D01*
X202133390Y-80059523D02*
X202181009Y-80011904D01*
X202181009Y-80011904D02*
X202276247Y-79964285D01*
X202276247Y-79964285D02*
X202514342Y-79964285D01*
X202514342Y-79964285D02*
X202609580Y-80011904D01*
X202609580Y-80011904D02*
X202657200Y-80059523D01*
X202657200Y-80059523D02*
X202704819Y-80154761D01*
X202704819Y-80154761D02*
X202704819Y-80392856D01*
X202704819Y-80392856D02*
X202657200Y-80488094D01*
X202657200Y-80488094D02*
X202609580Y-80535713D01*
X173674405Y-85284819D02*
X173674405Y-84284819D01*
X173674405Y-84284819D02*
X173912500Y-84284819D01*
X173912500Y-84284819D02*
X174055357Y-84332438D01*
X174055357Y-84332438D02*
X174150595Y-84427676D01*
X174150595Y-84427676D02*
X174198214Y-84522914D01*
X174198214Y-84522914D02*
X174245833Y-84713390D01*
X174245833Y-84713390D02*
X174245833Y-84856247D01*
X174245833Y-84856247D02*
X174198214Y-85046723D01*
X174198214Y-85046723D02*
X174150595Y-85141961D01*
X174150595Y-85141961D02*
X174055357Y-85237200D01*
X174055357Y-85237200D02*
X173912500Y-85284819D01*
X173912500Y-85284819D02*
X173674405Y-85284819D01*
X175198214Y-85284819D02*
X174626786Y-85284819D01*
X174912500Y-85284819D02*
X174912500Y-84284819D01*
X174912500Y-84284819D02*
X174817262Y-84427676D01*
X174817262Y-84427676D02*
X174722024Y-84522914D01*
X174722024Y-84522914D02*
X174626786Y-84570533D01*
X184838095Y-76754819D02*
X184838095Y-77564342D01*
X184838095Y-77564342D02*
X184885714Y-77659580D01*
X184885714Y-77659580D02*
X184933333Y-77707200D01*
X184933333Y-77707200D02*
X185028571Y-77754819D01*
X185028571Y-77754819D02*
X185219047Y-77754819D01*
X185219047Y-77754819D02*
X185314285Y-77707200D01*
X185314285Y-77707200D02*
X185361904Y-77659580D01*
X185361904Y-77659580D02*
X185409523Y-77564342D01*
X185409523Y-77564342D02*
X185409523Y-76754819D01*
X185790476Y-76754819D02*
X186409523Y-76754819D01*
X186409523Y-76754819D02*
X186076190Y-77135771D01*
X186076190Y-77135771D02*
X186219047Y-77135771D01*
X186219047Y-77135771D02*
X186314285Y-77183390D01*
X186314285Y-77183390D02*
X186361904Y-77231009D01*
X186361904Y-77231009D02*
X186409523Y-77326247D01*
X186409523Y-77326247D02*
X186409523Y-77564342D01*
X186409523Y-77564342D02*
X186361904Y-77659580D01*
X186361904Y-77659580D02*
X186314285Y-77707200D01*
X186314285Y-77707200D02*
X186219047Y-77754819D01*
X186219047Y-77754819D02*
X185933333Y-77754819D01*
X185933333Y-77754819D02*
X185838095Y-77707200D01*
X185838095Y-77707200D02*
X185790476Y-77659580D01*
X204461905Y-79424819D02*
X204461905Y-78424819D01*
X204461905Y-78424819D02*
X204700000Y-78424819D01*
X204700000Y-78424819D02*
X204842857Y-78472438D01*
X204842857Y-78472438D02*
X204938095Y-78567676D01*
X204938095Y-78567676D02*
X204985714Y-78662914D01*
X204985714Y-78662914D02*
X205033333Y-78853390D01*
X205033333Y-78853390D02*
X205033333Y-78996247D01*
X205033333Y-78996247D02*
X204985714Y-79186723D01*
X204985714Y-79186723D02*
X204938095Y-79281961D01*
X204938095Y-79281961D02*
X204842857Y-79377200D01*
X204842857Y-79377200D02*
X204700000Y-79424819D01*
X204700000Y-79424819D02*
X204461905Y-79424819D01*
X205414286Y-78520057D02*
X205461905Y-78472438D01*
X205461905Y-78472438D02*
X205557143Y-78424819D01*
X205557143Y-78424819D02*
X205795238Y-78424819D01*
X205795238Y-78424819D02*
X205890476Y-78472438D01*
X205890476Y-78472438D02*
X205938095Y-78520057D01*
X205938095Y-78520057D02*
X205985714Y-78615295D01*
X205985714Y-78615295D02*
X205985714Y-78710533D01*
X205985714Y-78710533D02*
X205938095Y-78853390D01*
X205938095Y-78853390D02*
X205366667Y-79424819D01*
X205366667Y-79424819D02*
X205985714Y-79424819D01*
X185833333Y-74079580D02*
X185785714Y-74127200D01*
X185785714Y-74127200D02*
X185642857Y-74174819D01*
X185642857Y-74174819D02*
X185547619Y-74174819D01*
X185547619Y-74174819D02*
X185404762Y-74127200D01*
X185404762Y-74127200D02*
X185309524Y-74031961D01*
X185309524Y-74031961D02*
X185261905Y-73936723D01*
X185261905Y-73936723D02*
X185214286Y-73746247D01*
X185214286Y-73746247D02*
X185214286Y-73603390D01*
X185214286Y-73603390D02*
X185261905Y-73412914D01*
X185261905Y-73412914D02*
X185309524Y-73317676D01*
X185309524Y-73317676D02*
X185404762Y-73222438D01*
X185404762Y-73222438D02*
X185547619Y-73174819D01*
X185547619Y-73174819D02*
X185642857Y-73174819D01*
X185642857Y-73174819D02*
X185785714Y-73222438D01*
X185785714Y-73222438D02*
X185833333Y-73270057D01*
X186690476Y-73174819D02*
X186500000Y-73174819D01*
X186500000Y-73174819D02*
X186404762Y-73222438D01*
X186404762Y-73222438D02*
X186357143Y-73270057D01*
X186357143Y-73270057D02*
X186261905Y-73412914D01*
X186261905Y-73412914D02*
X186214286Y-73603390D01*
X186214286Y-73603390D02*
X186214286Y-73984342D01*
X186214286Y-73984342D02*
X186261905Y-74079580D01*
X186261905Y-74079580D02*
X186309524Y-74127200D01*
X186309524Y-74127200D02*
X186404762Y-74174819D01*
X186404762Y-74174819D02*
X186595238Y-74174819D01*
X186595238Y-74174819D02*
X186690476Y-74127200D01*
X186690476Y-74127200D02*
X186738095Y-74079580D01*
X186738095Y-74079580D02*
X186785714Y-73984342D01*
X186785714Y-73984342D02*
X186785714Y-73746247D01*
X186785714Y-73746247D02*
X186738095Y-73651009D01*
X186738095Y-73651009D02*
X186690476Y-73603390D01*
X186690476Y-73603390D02*
X186595238Y-73555771D01*
X186595238Y-73555771D02*
X186404762Y-73555771D01*
X186404762Y-73555771D02*
X186309524Y-73603390D01*
X186309524Y-73603390D02*
X186261905Y-73651009D01*
X186261905Y-73651009D02*
X186214286Y-73746247D01*
X194438095Y-76854819D02*
X194438095Y-77664342D01*
X194438095Y-77664342D02*
X194485714Y-77759580D01*
X194485714Y-77759580D02*
X194533333Y-77807200D01*
X194533333Y-77807200D02*
X194628571Y-77854819D01*
X194628571Y-77854819D02*
X194819047Y-77854819D01*
X194819047Y-77854819D02*
X194914285Y-77807200D01*
X194914285Y-77807200D02*
X194961904Y-77759580D01*
X194961904Y-77759580D02*
X195009523Y-77664342D01*
X195009523Y-77664342D02*
X195009523Y-76854819D01*
X195438095Y-76950057D02*
X195485714Y-76902438D01*
X195485714Y-76902438D02*
X195580952Y-76854819D01*
X195580952Y-76854819D02*
X195819047Y-76854819D01*
X195819047Y-76854819D02*
X195914285Y-76902438D01*
X195914285Y-76902438D02*
X195961904Y-76950057D01*
X195961904Y-76950057D02*
X196009523Y-77045295D01*
X196009523Y-77045295D02*
X196009523Y-77140533D01*
X196009523Y-77140533D02*
X195961904Y-77283390D01*
X195961904Y-77283390D02*
X195390476Y-77854819D01*
X195390476Y-77854819D02*
X196009523Y-77854819D01*
X180254819Y-80566666D02*
X179778628Y-80899999D01*
X180254819Y-81138094D02*
X179254819Y-81138094D01*
X179254819Y-81138094D02*
X179254819Y-80757142D01*
X179254819Y-80757142D02*
X179302438Y-80661904D01*
X179302438Y-80661904D02*
X179350057Y-80614285D01*
X179350057Y-80614285D02*
X179445295Y-80566666D01*
X179445295Y-80566666D02*
X179588152Y-80566666D01*
X179588152Y-80566666D02*
X179683390Y-80614285D01*
X179683390Y-80614285D02*
X179731009Y-80661904D01*
X179731009Y-80661904D02*
X179778628Y-80757142D01*
X179778628Y-80757142D02*
X179778628Y-81138094D01*
X179254819Y-80233332D02*
X179254819Y-79614285D01*
X179254819Y-79614285D02*
X179635771Y-79947618D01*
X179635771Y-79947618D02*
X179635771Y-79804761D01*
X179635771Y-79804761D02*
X179683390Y-79709523D01*
X179683390Y-79709523D02*
X179731009Y-79661904D01*
X179731009Y-79661904D02*
X179826247Y-79614285D01*
X179826247Y-79614285D02*
X180064342Y-79614285D01*
X180064342Y-79614285D02*
X180159580Y-79661904D01*
X180159580Y-79661904D02*
X180207200Y-79709523D01*
X180207200Y-79709523D02*
X180254819Y-79804761D01*
X180254819Y-79804761D02*
X180254819Y-80090475D01*
X180254819Y-80090475D02*
X180207200Y-80185713D01*
X180207200Y-80185713D02*
X180159580Y-80233332D01*
X195445833Y-75604819D02*
X195112500Y-75128628D01*
X194874405Y-75604819D02*
X194874405Y-74604819D01*
X194874405Y-74604819D02*
X195255357Y-74604819D01*
X195255357Y-74604819D02*
X195350595Y-74652438D01*
X195350595Y-74652438D02*
X195398214Y-74700057D01*
X195398214Y-74700057D02*
X195445833Y-74795295D01*
X195445833Y-74795295D02*
X195445833Y-74938152D01*
X195445833Y-74938152D02*
X195398214Y-75033390D01*
X195398214Y-75033390D02*
X195350595Y-75081009D01*
X195350595Y-75081009D02*
X195255357Y-75128628D01*
X195255357Y-75128628D02*
X194874405Y-75128628D01*
X196302976Y-74938152D02*
X196302976Y-75604819D01*
X196064881Y-74557200D02*
X195826786Y-75271485D01*
X195826786Y-75271485D02*
X196445833Y-75271485D01*
X203633333Y-76804819D02*
X203300000Y-76328628D01*
X203061905Y-76804819D02*
X203061905Y-75804819D01*
X203061905Y-75804819D02*
X203442857Y-75804819D01*
X203442857Y-75804819D02*
X203538095Y-75852438D01*
X203538095Y-75852438D02*
X203585714Y-75900057D01*
X203585714Y-75900057D02*
X203633333Y-75995295D01*
X203633333Y-75995295D02*
X203633333Y-76138152D01*
X203633333Y-76138152D02*
X203585714Y-76233390D01*
X203585714Y-76233390D02*
X203538095Y-76281009D01*
X203538095Y-76281009D02*
X203442857Y-76328628D01*
X203442857Y-76328628D02*
X203061905Y-76328628D01*
X204014286Y-75900057D02*
X204061905Y-75852438D01*
X204061905Y-75852438D02*
X204157143Y-75804819D01*
X204157143Y-75804819D02*
X204395238Y-75804819D01*
X204395238Y-75804819D02*
X204490476Y-75852438D01*
X204490476Y-75852438D02*
X204538095Y-75900057D01*
X204538095Y-75900057D02*
X204585714Y-75995295D01*
X204585714Y-75995295D02*
X204585714Y-76090533D01*
X204585714Y-76090533D02*
X204538095Y-76233390D01*
X204538095Y-76233390D02*
X203966667Y-76804819D01*
X203966667Y-76804819D02*
X204585714Y-76804819D01*
X202639580Y-84166666D02*
X202687200Y-84214285D01*
X202687200Y-84214285D02*
X202734819Y-84357142D01*
X202734819Y-84357142D02*
X202734819Y-84452380D01*
X202734819Y-84452380D02*
X202687200Y-84595237D01*
X202687200Y-84595237D02*
X202591961Y-84690475D01*
X202591961Y-84690475D02*
X202496723Y-84738094D01*
X202496723Y-84738094D02*
X202306247Y-84785713D01*
X202306247Y-84785713D02*
X202163390Y-84785713D01*
X202163390Y-84785713D02*
X201972914Y-84738094D01*
X201972914Y-84738094D02*
X201877676Y-84690475D01*
X201877676Y-84690475D02*
X201782438Y-84595237D01*
X201782438Y-84595237D02*
X201734819Y-84452380D01*
X201734819Y-84452380D02*
X201734819Y-84357142D01*
X201734819Y-84357142D02*
X201782438Y-84214285D01*
X201782438Y-84214285D02*
X201830057Y-84166666D01*
X201734819Y-83833332D02*
X201734819Y-83214285D01*
X201734819Y-83214285D02*
X202115771Y-83547618D01*
X202115771Y-83547618D02*
X202115771Y-83404761D01*
X202115771Y-83404761D02*
X202163390Y-83309523D01*
X202163390Y-83309523D02*
X202211009Y-83261904D01*
X202211009Y-83261904D02*
X202306247Y-83214285D01*
X202306247Y-83214285D02*
X202544342Y-83214285D01*
X202544342Y-83214285D02*
X202639580Y-83261904D01*
X202639580Y-83261904D02*
X202687200Y-83309523D01*
X202687200Y-83309523D02*
X202734819Y-83404761D01*
X202734819Y-83404761D02*
X202734819Y-83690475D01*
X202734819Y-83690475D02*
X202687200Y-83785713D01*
X202687200Y-83785713D02*
X202639580Y-83833332D01*
X174233333Y-82904819D02*
X173900000Y-82428628D01*
X173661905Y-82904819D02*
X173661905Y-81904819D01*
X173661905Y-81904819D02*
X174042857Y-81904819D01*
X174042857Y-81904819D02*
X174138095Y-81952438D01*
X174138095Y-81952438D02*
X174185714Y-82000057D01*
X174185714Y-82000057D02*
X174233333Y-82095295D01*
X174233333Y-82095295D02*
X174233333Y-82238152D01*
X174233333Y-82238152D02*
X174185714Y-82333390D01*
X174185714Y-82333390D02*
X174138095Y-82381009D01*
X174138095Y-82381009D02*
X174042857Y-82428628D01*
X174042857Y-82428628D02*
X173661905Y-82428628D01*
X175185714Y-82904819D02*
X174614286Y-82904819D01*
X174900000Y-82904819D02*
X174900000Y-81904819D01*
X174900000Y-81904819D02*
X174804762Y-82047676D01*
X174804762Y-82047676D02*
X174709524Y-82142914D01*
X174709524Y-82142914D02*
X174614286Y-82190533D01*
X174854819Y-72009523D02*
X175569104Y-72009523D01*
X175569104Y-72009523D02*
X175711961Y-72057142D01*
X175711961Y-72057142D02*
X175807200Y-72152380D01*
X175807200Y-72152380D02*
X175854819Y-72295237D01*
X175854819Y-72295237D02*
X175854819Y-72390475D01*
X175854819Y-71009523D02*
X175854819Y-71580951D01*
X175854819Y-71295237D02*
X174854819Y-71295237D01*
X174854819Y-71295237D02*
X174997676Y-71390475D01*
X174997676Y-71390475D02*
X175092914Y-71485713D01*
X175092914Y-71485713D02*
X175140533Y-71580951D01*
X175188152Y-70152380D02*
X175854819Y-70152380D01*
X174807200Y-70390475D02*
X175521485Y-70628570D01*
X175521485Y-70628570D02*
X175521485Y-70009523D01*
X197833333Y-69039580D02*
X197785714Y-69087200D01*
X197785714Y-69087200D02*
X197642857Y-69134819D01*
X197642857Y-69134819D02*
X197547619Y-69134819D01*
X197547619Y-69134819D02*
X197404762Y-69087200D01*
X197404762Y-69087200D02*
X197309524Y-68991961D01*
X197309524Y-68991961D02*
X197261905Y-68896723D01*
X197261905Y-68896723D02*
X197214286Y-68706247D01*
X197214286Y-68706247D02*
X197214286Y-68563390D01*
X197214286Y-68563390D02*
X197261905Y-68372914D01*
X197261905Y-68372914D02*
X197309524Y-68277676D01*
X197309524Y-68277676D02*
X197404762Y-68182438D01*
X197404762Y-68182438D02*
X197547619Y-68134819D01*
X197547619Y-68134819D02*
X197642857Y-68134819D01*
X197642857Y-68134819D02*
X197785714Y-68182438D01*
X197785714Y-68182438D02*
X197833333Y-68230057D01*
X198785714Y-69134819D02*
X198214286Y-69134819D01*
X198500000Y-69134819D02*
X198500000Y-68134819D01*
X198500000Y-68134819D02*
X198404762Y-68277676D01*
X198404762Y-68277676D02*
X198309524Y-68372914D01*
X198309524Y-68372914D02*
X198214286Y-68420533D01*
D12*
%TO.C,C2*%
X192061252Y-76535000D02*
X191538748Y-76535000D01*
X192061252Y-75065000D02*
X191538748Y-75065000D01*
%TO.C,5V2*%
X174700000Y-78500000D02*
G75*
G02*
X173300000Y-78500000I-700000J0D01*
G01*
X173300000Y-78500000D02*
G75*
G02*
X174700000Y-78500000I700000J0D01*
G01*
%TO.C,3V3*%
X179700000Y-78000000D02*
G75*
G02*
X178300000Y-78000000I-700000J0D01*
G01*
X178300000Y-78000000D02*
G75*
G02*
X179700000Y-78000000I700000J0D01*
G01*
%TO.C,1V5*%
X206100000Y-84200000D02*
G75*
G02*
X204700000Y-84200000I-700000J0D01*
G01*
X204700000Y-84200000D02*
G75*
G02*
X206100000Y-84200000I700000J0D01*
G01*
%TO.C,5V1*%
X201300000Y-77800000D02*
G75*
G02*
X199900000Y-77800000I-700000J0D01*
G01*
X199900000Y-77800000D02*
G75*
G02*
X201300000Y-77800000I700000J0D01*
G01*
%TO.C,C4*%
X181988748Y-74665000D02*
X182511252Y-74665000D01*
X181988748Y-76135000D02*
X182511252Y-76135000D01*
%TO.C,U1*%
X187890000Y-66890000D02*
X192510000Y-66890000D01*
X192510000Y-73660000D02*
X187890000Y-73660000D01*
X186340000Y-67345000D02*
X186010000Y-67585000D01*
X186010000Y-67105000D01*
X186340000Y-67345000D01*
G36*
X186340000Y-67345000D02*
G01*
X186010000Y-67585000D01*
X186010000Y-67105000D01*
X186340000Y-67345000D01*
G37*
%TO.C,D3*%
X176865000Y-82412500D02*
X176865000Y-84697500D01*
X176865000Y-84697500D02*
X178335000Y-84697500D01*
X178335000Y-84697500D02*
X178335000Y-82412500D01*
%TO.C,D4*%
X196600000Y-75535000D02*
X198885000Y-75535000D01*
X198885000Y-74065000D02*
X196600000Y-74065000D01*
X198885000Y-75535000D02*
X198885000Y-74065000D01*
%TO.C,C5*%
X199865000Y-80811252D02*
X199865000Y-80288748D01*
X201335000Y-80811252D02*
X201335000Y-80288748D01*
%TO.C,D1*%
X173612500Y-84135000D02*
X175897500Y-84135000D01*
X175897500Y-82665000D02*
X173612500Y-82665000D01*
X175897500Y-84135000D02*
X175897500Y-82665000D01*
%TO.C,U3*%
X183750000Y-78390000D02*
X187510000Y-78390000D01*
X183750000Y-85210000D02*
X187510000Y-85210000D01*
X187510000Y-78390000D02*
X187510000Y-79650000D01*
X187510000Y-85210000D02*
X187510000Y-83950000D01*
X182470000Y-78490000D02*
X182230000Y-78160000D01*
X182710000Y-78160000D01*
X182470000Y-78490000D01*
G36*
X182470000Y-78490000D02*
G01*
X182230000Y-78160000D01*
X182710000Y-78160000D01*
X182470000Y-78490000D01*
G37*
%TO.C,D2*%
X203715000Y-79665000D02*
X203715000Y-81135000D01*
X203715000Y-81135000D02*
X206000000Y-81135000D01*
X206000000Y-79665000D02*
X203715000Y-79665000D01*
%TO.C,C6*%
X185738748Y-74665000D02*
X186261252Y-74665000D01*
X185738748Y-76135000D02*
X186261252Y-76135000D01*
%TO.C,U2*%
X192840000Y-78390000D02*
X192840000Y-79650000D01*
X192840000Y-85210000D02*
X192840000Y-83950000D01*
X196600000Y-78390000D02*
X192840000Y-78390000D01*
X196600000Y-85210000D02*
X192840000Y-85210000D01*
X198120000Y-85440000D02*
X197640000Y-85440000D01*
X197880000Y-85110000D01*
X198120000Y-85440000D01*
G36*
X198120000Y-85440000D02*
G01*
X197640000Y-85440000D01*
X197880000Y-85110000D01*
X198120000Y-85440000D01*
G37*
%TO.C,R3*%
X179065000Y-83427064D02*
X179065000Y-82972936D01*
X180535000Y-83427064D02*
X180535000Y-82972936D01*
%TO.C,R4*%
X195385436Y-76065000D02*
X195839564Y-76065000D01*
X195385436Y-77535000D02*
X195839564Y-77535000D01*
%TO.C,R2*%
X203572936Y-77265000D02*
X204027064Y-77265000D01*
X203572936Y-78735000D02*
X204027064Y-78735000D01*
%TO.C,C3*%
X199865000Y-83738748D02*
X199865000Y-84261252D01*
X201335000Y-83738748D02*
X201335000Y-84261252D01*
%TO.C,R1*%
X174627064Y-80065000D02*
X174172936Y-80065000D01*
X174627064Y-81535000D02*
X174172936Y-81535000D01*
%TO.C,J14*%
X172500000Y-67000000D02*
X172500000Y-75300000D01*
X172500000Y-75300000D02*
X174240000Y-75300000D01*
X174240000Y-67000000D02*
X172500000Y-67000000D01*
X178300000Y-67000000D02*
X176960000Y-67000000D01*
X178300000Y-68490000D02*
X178300000Y-67000000D01*
X178300000Y-68490000D02*
X179500000Y-68490000D01*
X178300000Y-73810000D02*
X178300000Y-75300000D01*
X178300000Y-75300000D02*
X176960000Y-75300000D01*
%TO.C,C1*%
X198261252Y-66265000D02*
X197738748Y-66265000D01*
X198261252Y-67735000D02*
X197738748Y-67735000D01*
%TO.C,J1*%
X201750000Y-67000000D02*
X203090000Y-67000000D01*
X201750000Y-68490000D02*
X201750000Y-67000000D01*
X201750000Y-73810000D02*
X200550000Y-73810000D01*
X201750000Y-73810000D02*
X201750000Y-75300000D01*
X201750000Y-75300000D02*
X203090000Y-75300000D01*
X205810000Y-75300000D02*
X207550000Y-75300000D01*
X207550000Y-67000000D02*
X205810000Y-67000000D01*
X207550000Y-75300000D02*
X207550000Y-67000000D01*
%TD*%
%LPC*%
D13*
%TO.C,C2*%
X190850000Y-75800000D03*
X192750000Y-75800000D03*
%TD*%
D14*
%TO.C,5V2*%
X174000000Y-78500000D03*
%TD*%
%TO.C,3V3*%
X179000000Y-78000000D03*
%TD*%
%TO.C,1V5*%
X205400000Y-84200000D03*
%TD*%
%TO.C,5V1*%
X200600000Y-77800000D03*
%TD*%
D15*
%TO.C,C4*%
X181300000Y-75400000D03*
X183200000Y-75400000D03*
%TD*%
D16*
%TO.C,U1*%
X187337500Y-67350000D03*
X187337500Y-68000000D03*
X187337500Y-68650000D03*
X187337500Y-69300000D03*
X187337500Y-69950000D03*
X187337500Y-70600000D03*
X187337500Y-71250000D03*
X187337500Y-71900000D03*
X187337500Y-72550000D03*
X187337500Y-73200000D03*
X193062500Y-73200000D03*
X193062500Y-72550000D03*
X193062500Y-71900000D03*
X193062500Y-71250000D03*
X193062500Y-70600000D03*
X193062500Y-69950000D03*
X193062500Y-69300000D03*
X193062500Y-68650000D03*
X193062500Y-68000000D03*
X193062500Y-67350000D03*
%TD*%
D17*
%TO.C,D3*%
X177600000Y-84000000D03*
X177600000Y-82425000D03*
%TD*%
D18*
%TO.C,D4*%
X198187500Y-74800000D03*
X196612500Y-74800000D03*
%TD*%
D19*
%TO.C,C5*%
X200600000Y-81500000D03*
X200600000Y-79600000D03*
%TD*%
D18*
%TO.C,D1*%
X175200000Y-83400000D03*
X173625000Y-83400000D03*
%TD*%
D20*
%TO.C,U3*%
X182450000Y-79500000D03*
X182450000Y-81800000D03*
D21*
X188750000Y-81800000D03*
D20*
X182450000Y-84100000D03*
%TD*%
D22*
%TO.C,D2*%
X204412500Y-80400000D03*
X205987500Y-80400000D03*
%TD*%
D15*
%TO.C,C6*%
X185050000Y-75400000D03*
X186950000Y-75400000D03*
%TD*%
D23*
%TO.C,U2*%
X197900000Y-84100000D03*
X197900000Y-81800000D03*
D24*
X191600000Y-81800000D03*
D23*
X197900000Y-79500000D03*
%TD*%
D25*
%TO.C,R3*%
X179800000Y-84200000D03*
X179800000Y-82200000D03*
%TD*%
D26*
%TO.C,R4*%
X194612500Y-76800000D03*
X196612500Y-76800000D03*
%TD*%
%TO.C,R2*%
X202800000Y-78000000D03*
X204800000Y-78000000D03*
%TD*%
D27*
%TO.C,C3*%
X200600000Y-83050000D03*
X200600000Y-84950000D03*
%TD*%
D28*
%TO.C,R1*%
X175400000Y-80800000D03*
X173400000Y-80800000D03*
%TD*%
D29*
%TO.C,J14*%
X178850000Y-68900000D03*
X178850000Y-69400000D03*
X178850000Y-69900000D03*
X178850000Y-70400000D03*
X178850000Y-70900000D03*
X178850000Y-71400000D03*
X178850000Y-71900000D03*
X178850000Y-72400000D03*
X178850000Y-72900000D03*
X178850000Y-73400000D03*
D30*
X175600000Y-67000000D03*
X175600000Y-75300000D03*
%TD*%
D13*
%TO.C,C1*%
X198950000Y-67000000D03*
X197050000Y-67000000D03*
%TD*%
D29*
%TO.C,J1*%
X201200000Y-73400000D03*
X201200000Y-72900000D03*
X201200000Y-72400000D03*
X201200000Y-71900000D03*
X201200000Y-71400000D03*
X201200000Y-70900000D03*
X201200000Y-70400000D03*
X201200000Y-69900000D03*
X201200000Y-69400000D03*
X201200000Y-68900000D03*
D30*
X204450000Y-75300000D03*
X204450000Y-67000000D03*
%TD*%
%LPD*%
M02*
