%TF.GenerationSoftware,KiCad,Pcbnew,9.0.7+dfsg-1*%
%TF.CreationDate,2026-04-03T11:08:26-07:00*%
%TF.ProjectId,ffc_adapter,6666635f-6164-4617-9074-65722e6b6963,rev?*%
%TF.SameCoordinates,Original*%
%TF.FileFunction,Copper,L2,Bot*%
%TF.FilePolarity,Positive*%
%FSLAX46Y46*%
G04 Gerber Fmt 4.6, Leading zero omitted, Abs format (unit mm)*
G04 Created by KiCad (PCBNEW 9.0.7+dfsg-1) date 2026-04-03 11:08:26*
%MOMM*%
%LPD*%
G01*
G04 APERTURE LIST*
%TA.AperFunction,ViaPad*%
%ADD10C,0.600000*%
%TD*%
%TA.AperFunction,Conductor*%
%ADD11C,0.500000*%
%TD*%
G04 APERTURE END LIST*
D10*
%TO.N,5V_B_IN*%
X184000000Y-78250000D03*
%TO.N,GND*%
X192600000Y-77200000D03*
%TO.N,3V3_OUT*%
X180250000Y-79250000D03*
%TO.N,1V5_OUT*%
X204750000Y-82750000D03*
X202250000Y-80250000D03*
X195400000Y-78500000D03*
%TO.N,5V_A_IN*%
X202600000Y-69600000D03*
%TO.N,5V_B_IN*%
X177200000Y-72750000D03*
%TO.N,GND*%
X190862500Y-72800000D03*
X200900000Y-68100000D03*
X175600000Y-85000000D03*
X184800000Y-77000000D03*
X202200000Y-83200000D03*
X202200000Y-81600000D03*
X179100000Y-74200000D03*
X200000000Y-67600000D03*
X205000000Y-81600000D03*
X184850000Y-82400000D03*
X195600000Y-81200000D03*
X189400000Y-79000000D03*
X198400000Y-76200000D03*
X191000000Y-84500000D03*
X180600000Y-77200000D03*
X177000000Y-85000000D03*
%TO.N,3V3_OUT*%
X186950000Y-79650000D03*
X189000000Y-68737500D03*
%TD*%
D11*
%TO.N,3V3_OUT*%
X180250000Y-79250000D02*
X180650000Y-79650000D01*
X180650000Y-79650000D02*
X186950000Y-79650000D01*
%TO.N,1V5_OUT*%
X202250000Y-80250000D02*
X204750000Y-82750000D01*
%TO.N,3V3_OUT*%
X186950000Y-79650000D02*
X189000000Y-77600000D01*
X189000000Y-77600000D02*
X189000000Y-68737500D01*
%TD*%
%TA.AperFunction,Conductor*%
%TO.N,GND*%
G36*
X206887348Y-66100465D02*
G01*
X206893695Y-66101644D01*
X206897406Y-66100877D01*
X206931815Y-66108729D01*
X206974560Y-66125168D01*
X206990114Y-66132422D01*
X207096448Y-66191297D01*
X207110850Y-66200629D01*
X207208030Y-66273617D01*
X207221003Y-66284847D01*
X207300356Y-66363773D01*
X207302707Y-66366175D01*
X207309543Y-66373356D01*
X207318388Y-66382648D01*
X207321888Y-66386484D01*
X207333030Y-66399217D01*
X207336086Y-66402847D01*
X207402661Y-66485075D01*
X207413879Y-66501456D01*
X207468387Y-66596589D01*
X207476847Y-66614553D01*
X207491556Y-66653631D01*
X207499505Y-66697313D01*
X207499500Y-84887395D01*
X207491236Y-84931906D01*
X207474831Y-84974562D01*
X207467577Y-84990116D01*
X207408702Y-85096449D01*
X207399369Y-85110852D01*
X207326384Y-85208027D01*
X207315151Y-85221004D01*
X207236224Y-85300356D01*
X207233803Y-85302725D01*
X207217352Y-85318385D01*
X207213510Y-85321892D01*
X207200761Y-85333047D01*
X207197137Y-85336098D01*
X207114930Y-85402658D01*
X207098547Y-85413877D01*
X207003410Y-85468387D01*
X206985446Y-85476847D01*
X206946483Y-85491513D01*
X206902759Y-85499462D01*
X172896937Y-85487764D01*
X172852470Y-85479500D01*
X172818433Y-85466410D01*
X172802878Y-85459155D01*
X172696558Y-85400287D01*
X172682154Y-85390954D01*
X172584977Y-85317966D01*
X172572001Y-85306735D01*
X172492475Y-85227636D01*
X172490117Y-85225225D01*
X172474605Y-85208927D01*
X172471118Y-85205106D01*
X172459947Y-85192339D01*
X172456898Y-85188717D01*
X172390343Y-85106511D01*
X172379126Y-85090130D01*
X172324620Y-84994999D01*
X172316163Y-84977043D01*
X172308446Y-84956542D01*
X172300500Y-84912866D01*
X172300500Y-83459390D01*
X172300501Y-79171153D01*
X179449500Y-79171153D01*
X179449500Y-79328846D01*
X179480261Y-79483489D01*
X179480264Y-79483501D01*
X179540602Y-79629172D01*
X179540609Y-79629185D01*
X179628210Y-79760288D01*
X179628213Y-79760292D01*
X179739710Y-79871789D01*
X179807766Y-79917262D01*
X179870821Y-79959394D01*
X179870826Y-79959396D01*
X179870828Y-79959397D01*
X179894473Y-79969191D01*
X179901406Y-79973823D01*
X179906451Y-79974921D01*
X179934705Y-79996072D01*
X180067048Y-80128415D01*
X180067049Y-80128416D01*
X180171584Y-80232951D01*
X180171585Y-80232952D01*
X180294498Y-80315080D01*
X180294511Y-80315087D01*
X180401469Y-80359390D01*
X180431087Y-80371658D01*
X180431091Y-80371658D01*
X180431092Y-80371659D01*
X180576079Y-80400500D01*
X180576082Y-80400500D01*
X186645396Y-80400500D01*
X186692844Y-80409937D01*
X186716503Y-80419737D01*
X186716508Y-80419738D01*
X186716511Y-80419739D01*
X186871153Y-80450499D01*
X186871156Y-80450500D01*
X186871158Y-80450500D01*
X187028844Y-80450500D01*
X187028845Y-80450499D01*
X187183497Y-80419737D01*
X187329179Y-80359394D01*
X187460289Y-80271789D01*
X187560925Y-80171153D01*
X201449500Y-80171153D01*
X201449500Y-80328846D01*
X201480261Y-80483489D01*
X201480264Y-80483501D01*
X201540602Y-80629172D01*
X201540609Y-80629185D01*
X201628210Y-80760288D01*
X201628213Y-80760292D01*
X201739710Y-80871789D01*
X201870815Y-80959390D01*
X201870821Y-80959394D01*
X201894475Y-80969191D01*
X201934703Y-80996071D01*
X204003927Y-83065295D01*
X204030807Y-83105523D01*
X204040604Y-83129175D01*
X204040609Y-83129185D01*
X204128210Y-83260288D01*
X204128213Y-83260292D01*
X204239707Y-83371786D01*
X204239711Y-83371789D01*
X204370814Y-83459390D01*
X204370827Y-83459397D01*
X204516498Y-83519735D01*
X204516503Y-83519737D01*
X204671153Y-83550499D01*
X204671156Y-83550500D01*
X204671158Y-83550500D01*
X204828844Y-83550500D01*
X204828845Y-83550499D01*
X204983497Y-83519737D01*
X205129179Y-83459394D01*
X205260289Y-83371789D01*
X205371789Y-83260289D01*
X205459394Y-83129179D01*
X205519737Y-82983497D01*
X205550500Y-82828842D01*
X205550500Y-82671158D01*
X205550500Y-82671155D01*
X205550499Y-82671153D01*
X205519738Y-82516510D01*
X205519737Y-82516503D01*
X205519735Y-82516498D01*
X205459397Y-82370827D01*
X205459390Y-82370814D01*
X205371789Y-82239711D01*
X205371786Y-82239707D01*
X205260292Y-82128213D01*
X205260288Y-82128210D01*
X205129185Y-82040609D01*
X205129175Y-82040604D01*
X205105523Y-82030807D01*
X205065295Y-82003927D01*
X202996071Y-79934703D01*
X202969191Y-79894475D01*
X202959394Y-79870821D01*
X202885539Y-79760289D01*
X202871789Y-79739710D01*
X202760292Y-79628213D01*
X202760288Y-79628210D01*
X202629185Y-79540609D01*
X202629172Y-79540602D01*
X202483501Y-79480264D01*
X202483489Y-79480261D01*
X202328845Y-79449500D01*
X202328842Y-79449500D01*
X202171158Y-79449500D01*
X202171155Y-79449500D01*
X202016510Y-79480261D01*
X202016498Y-79480264D01*
X201870827Y-79540602D01*
X201870814Y-79540609D01*
X201739711Y-79628210D01*
X201739707Y-79628213D01*
X201628213Y-79739707D01*
X201628210Y-79739711D01*
X201540609Y-79870814D01*
X201540602Y-79870827D01*
X201480264Y-80016498D01*
X201480261Y-80016510D01*
X201449500Y-80171153D01*
X187560925Y-80171153D01*
X187571789Y-80160289D01*
X187659394Y-80029179D01*
X187672510Y-79997512D01*
X187676909Y-79990044D01*
X187683932Y-79983462D01*
X187696069Y-79965297D01*
X188496301Y-79165066D01*
X189240216Y-78421153D01*
X194599500Y-78421153D01*
X194599500Y-78578846D01*
X194630261Y-78733489D01*
X194630264Y-78733501D01*
X194690602Y-78879172D01*
X194690609Y-78879185D01*
X194778210Y-79010288D01*
X194778213Y-79010292D01*
X194889707Y-79121786D01*
X194889711Y-79121789D01*
X195020814Y-79209390D01*
X195020827Y-79209397D01*
X195166498Y-79269735D01*
X195166503Y-79269737D01*
X195321153Y-79300499D01*
X195321156Y-79300500D01*
X195321158Y-79300500D01*
X195478844Y-79300500D01*
X195478845Y-79300499D01*
X195633497Y-79269737D01*
X195779179Y-79209394D01*
X195910289Y-79121789D01*
X196021789Y-79010289D01*
X196109394Y-78879179D01*
X196112854Y-78870827D01*
X196125346Y-78840666D01*
X196169737Y-78733497D01*
X196200500Y-78578842D01*
X196200500Y-78421158D01*
X196200500Y-78421155D01*
X196200499Y-78421153D01*
X196169738Y-78266510D01*
X196169737Y-78266503D01*
X196130242Y-78171153D01*
X196109397Y-78120827D01*
X196109390Y-78120814D01*
X196021789Y-77989711D01*
X196021786Y-77989707D01*
X195910292Y-77878213D01*
X195910288Y-77878210D01*
X195779185Y-77790609D01*
X195779172Y-77790602D01*
X195633501Y-77730264D01*
X195633489Y-77730261D01*
X195478845Y-77699500D01*
X195478842Y-77699500D01*
X195321158Y-77699500D01*
X195321155Y-77699500D01*
X195166510Y-77730261D01*
X195166498Y-77730264D01*
X195020827Y-77790602D01*
X195020814Y-77790609D01*
X194889711Y-77878210D01*
X194889707Y-77878213D01*
X194778213Y-77989707D01*
X194778210Y-77989711D01*
X194690609Y-78120814D01*
X194690602Y-78120827D01*
X194630264Y-78266498D01*
X194630261Y-78266510D01*
X194599500Y-78421153D01*
X189240216Y-78421153D01*
X189333984Y-78327385D01*
X189582947Y-78078421D01*
X189582948Y-78078420D01*
X189582948Y-78078419D01*
X189582952Y-78078416D01*
X189638872Y-77994724D01*
X189665084Y-77955495D01*
X189721658Y-77818913D01*
X189737413Y-77739711D01*
X189750500Y-77673920D01*
X189750500Y-69521153D01*
X201799500Y-69521153D01*
X201799500Y-69678846D01*
X201830261Y-69833489D01*
X201830264Y-69833501D01*
X201890602Y-69979172D01*
X201890609Y-69979185D01*
X201978210Y-70110288D01*
X201978213Y-70110292D01*
X202089707Y-70221786D01*
X202089711Y-70221789D01*
X202220814Y-70309390D01*
X202220827Y-70309397D01*
X202366498Y-70369735D01*
X202366503Y-70369737D01*
X202521153Y-70400499D01*
X202521156Y-70400500D01*
X202521158Y-70400500D01*
X202678844Y-70400500D01*
X202678845Y-70400499D01*
X202833497Y-70369737D01*
X202979179Y-70309394D01*
X203110289Y-70221789D01*
X203221789Y-70110289D01*
X203309394Y-69979179D01*
X203369737Y-69833497D01*
X203400500Y-69678842D01*
X203400500Y-69521158D01*
X203400500Y-69521155D01*
X203400499Y-69521153D01*
X203369738Y-69366510D01*
X203369737Y-69366503D01*
X203369735Y-69366498D01*
X203309397Y-69220827D01*
X203309390Y-69220814D01*
X203221789Y-69089711D01*
X203221786Y-69089707D01*
X203110292Y-68978213D01*
X203110288Y-68978210D01*
X202979185Y-68890609D01*
X202979172Y-68890602D01*
X202833501Y-68830264D01*
X202833489Y-68830261D01*
X202678845Y-68799500D01*
X202678842Y-68799500D01*
X202521158Y-68799500D01*
X202521155Y-68799500D01*
X202366510Y-68830261D01*
X202366498Y-68830264D01*
X202220827Y-68890602D01*
X202220814Y-68890609D01*
X202089711Y-68978210D01*
X202089707Y-68978213D01*
X201978213Y-69089707D01*
X201978210Y-69089711D01*
X201890609Y-69220814D01*
X201890602Y-69220827D01*
X201830264Y-69366498D01*
X201830261Y-69366510D01*
X201799500Y-69521153D01*
X189750500Y-69521153D01*
X189750500Y-69042104D01*
X189759939Y-68994651D01*
X189769737Y-68970997D01*
X189800500Y-68816342D01*
X189800500Y-68658658D01*
X189800500Y-68658655D01*
X189800499Y-68658653D01*
X189769738Y-68504010D01*
X189769737Y-68504003D01*
X189769735Y-68503998D01*
X189709397Y-68358327D01*
X189709390Y-68358314D01*
X189621789Y-68227211D01*
X189621786Y-68227207D01*
X189510292Y-68115713D01*
X189510288Y-68115710D01*
X189379185Y-68028109D01*
X189379172Y-68028102D01*
X189233501Y-67967764D01*
X189233489Y-67967761D01*
X189078845Y-67937000D01*
X189078842Y-67937000D01*
X188921158Y-67937000D01*
X188921155Y-67937000D01*
X188766510Y-67967761D01*
X188766498Y-67967764D01*
X188620827Y-68028102D01*
X188620814Y-68028109D01*
X188489711Y-68115710D01*
X188489707Y-68115713D01*
X188378213Y-68227207D01*
X188378210Y-68227211D01*
X188290609Y-68358314D01*
X188290602Y-68358327D01*
X188230264Y-68503998D01*
X188230261Y-68504010D01*
X188199500Y-68658653D01*
X188199500Y-68816346D01*
X188230261Y-68970989D01*
X188230263Y-68970997D01*
X188240061Y-68994651D01*
X188249500Y-69042104D01*
X188249500Y-77237770D01*
X188229815Y-77304809D01*
X188213181Y-77325451D01*
X186675451Y-78863181D01*
X186614128Y-78896666D01*
X186587770Y-78899500D01*
X184760759Y-78899500D01*
X184693720Y-78879815D01*
X184647965Y-78827011D01*
X184638021Y-78757853D01*
X184657657Y-78706609D01*
X184666194Y-78693831D01*
X184709394Y-78629179D01*
X184769737Y-78483497D01*
X184800500Y-78328842D01*
X184800500Y-78171158D01*
X184800500Y-78171155D01*
X184800499Y-78171153D01*
X184769738Y-78016510D01*
X184769737Y-78016503D01*
X184760714Y-77994719D01*
X184709397Y-77870827D01*
X184709390Y-77870814D01*
X184621789Y-77739711D01*
X184621786Y-77739707D01*
X184510292Y-77628213D01*
X184510288Y-77628210D01*
X184379185Y-77540609D01*
X184379172Y-77540602D01*
X184233501Y-77480264D01*
X184233489Y-77480261D01*
X184078845Y-77449500D01*
X184078842Y-77449500D01*
X183921158Y-77449500D01*
X183921155Y-77449500D01*
X183766510Y-77480261D01*
X183766498Y-77480264D01*
X183620827Y-77540602D01*
X183620814Y-77540609D01*
X183489711Y-77628210D01*
X183489707Y-77628213D01*
X183378213Y-77739707D01*
X183378210Y-77739711D01*
X183290609Y-77870814D01*
X183290602Y-77870827D01*
X183230264Y-78016498D01*
X183230261Y-78016510D01*
X183199500Y-78171153D01*
X183199500Y-78328846D01*
X183230261Y-78483489D01*
X183230264Y-78483501D01*
X183290602Y-78629172D01*
X183290609Y-78629184D01*
X183342343Y-78706609D01*
X183363221Y-78773286D01*
X183344737Y-78840666D01*
X183292758Y-78887357D01*
X183239241Y-78899500D01*
X181044836Y-78899500D01*
X180977797Y-78879815D01*
X180941734Y-78844391D01*
X180871789Y-78739710D01*
X180760292Y-78628213D01*
X180760288Y-78628210D01*
X180629185Y-78540609D01*
X180629172Y-78540602D01*
X180483501Y-78480264D01*
X180483489Y-78480261D01*
X180328845Y-78449500D01*
X180328842Y-78449500D01*
X180171158Y-78449500D01*
X180171155Y-78449500D01*
X180016510Y-78480261D01*
X180016498Y-78480264D01*
X179870827Y-78540602D01*
X179870814Y-78540609D01*
X179739711Y-78628210D01*
X179739707Y-78628213D01*
X179628213Y-78739707D01*
X179628210Y-78739711D01*
X179540609Y-78870814D01*
X179540602Y-78870827D01*
X179480264Y-79016498D01*
X179480261Y-79016510D01*
X179449500Y-79171153D01*
X172300501Y-79171153D01*
X172300503Y-72671153D01*
X176399500Y-72671153D01*
X176399500Y-72828846D01*
X176430261Y-72983489D01*
X176430264Y-72983501D01*
X176490602Y-73129172D01*
X176490609Y-73129185D01*
X176578210Y-73260288D01*
X176578213Y-73260292D01*
X176689707Y-73371786D01*
X176689711Y-73371789D01*
X176820814Y-73459390D01*
X176820827Y-73459397D01*
X176966498Y-73519735D01*
X176966503Y-73519737D01*
X177121153Y-73550499D01*
X177121156Y-73550500D01*
X177121158Y-73550500D01*
X177278844Y-73550500D01*
X177278845Y-73550499D01*
X177433497Y-73519737D01*
X177579179Y-73459394D01*
X177710289Y-73371789D01*
X177821789Y-73260289D01*
X177909394Y-73129179D01*
X177969737Y-72983497D01*
X178000500Y-72828842D01*
X178000500Y-72671158D01*
X178000500Y-72671155D01*
X178000499Y-72671153D01*
X177969738Y-72516510D01*
X177969737Y-72516503D01*
X177969735Y-72516498D01*
X177909397Y-72370827D01*
X177909390Y-72370814D01*
X177821789Y-72239711D01*
X177821786Y-72239707D01*
X177710292Y-72128213D01*
X177710288Y-72128210D01*
X177579185Y-72040609D01*
X177579172Y-72040602D01*
X177433501Y-71980264D01*
X177433489Y-71980261D01*
X177278845Y-71949500D01*
X177278842Y-71949500D01*
X177121158Y-71949500D01*
X177121155Y-71949500D01*
X176966510Y-71980261D01*
X176966498Y-71980264D01*
X176820827Y-72040602D01*
X176820814Y-72040609D01*
X176689711Y-72128210D01*
X176689707Y-72128213D01*
X176578213Y-72239707D01*
X176578210Y-72239711D01*
X176490609Y-72370814D01*
X176490602Y-72370827D01*
X176430264Y-72516498D01*
X176430261Y-72516510D01*
X176399500Y-72671153D01*
X172300503Y-72671153D01*
X172300505Y-66700827D01*
X172301689Y-66694454D01*
X172300918Y-66690726D01*
X172308769Y-66656323D01*
X172325175Y-66613670D01*
X172332416Y-66598148D01*
X172391303Y-66491803D01*
X172400622Y-66477420D01*
X172473629Y-66380223D01*
X172484846Y-66367265D01*
X172564602Y-66287081D01*
X172567011Y-66284726D01*
X172573256Y-66278782D01*
X172582649Y-66269841D01*
X172586451Y-66266371D01*
X172599260Y-66255164D01*
X172602830Y-66252159D01*
X172685065Y-66185584D01*
X172701442Y-66174370D01*
X172796585Y-66119860D01*
X172814542Y-66111403D01*
X172821646Y-66108729D01*
X172853557Y-66096717D01*
X172897276Y-66088768D01*
X206887348Y-66100465D01*
G37*
%TD.AperFunction*%
%TD*%
M02*
