M48
; DRILL file {KiCad 9.0.7+dfsg-1} date 2026-04-03T11:08:26-0700
; FORMAT={-:-/ absolute / inch / decimal}
; #@! TF.CreationDate,2026-04-03T11:08:26-07:00
; #@! TF.GenerationSoftware,Kicad,Pcbnew,9.0.7+dfsg-1
; #@! TF.FileFunction,Plated,1,2,PTH
FMAT,2
INCH
; #@! TA.AperFunction,Plated,PTH,ViaDrill
T1C0.0118
%
G90
G05
T1
X6.9134Y-3.3465
X6.9685Y-3.3465
X6.9764Y-2.8642
X7.0512Y-2.9213
X7.0965Y-3.1201
X7.1102Y-3.0394
X7.2441Y-3.0807
X7.2756Y-3.0315
X7.2776Y-3.2441
X7.3602Y-3.1358
X7.4409Y-2.7062
X7.4567Y-3.1102
X7.5143Y-2.8661
X7.5197Y-3.3268
X7.5827Y-3.0394
X7.6929Y-3.0906
X7.7008Y-3.1969
X7.811Y-3.0
X7.874Y-2.6614
X7.9094Y-2.6811
X7.9606Y-3.2126
X7.9606Y-3.2756
X7.9626Y-3.1594
X7.9764Y-2.7402
X8.061Y-3.2579
X8.0709Y-3.2126
M30
